<svg width="1742" height="1547" fill="none" xmlns="http://www.w3.org/2000/svg"><path fill-rule="evenodd" clip-rule="evenodd" d="M919.811 188.217C1050.62 150.895 1162.5 97.2 1283.32 130.698c118.01 32.721 123.4 73.41 184.19 160.941 56.85 81.853 72.04 175.246 93.68 270.836 30.44 134.473 127.96 264.922 58.34 400.653-75 146.202-243.16 282.562-427.33 318.702-180.85 35.48-309.707-99.77-475.95-141.46-159.444-39.99-387.459 15.24-476.125-97.32-88.794-112.721-171.21-285.849-127.711-428.444 35.305-115.737 291.201-219.597 388.895-314.061 94.534-91.41 284.376-74.061 418.502-112.328z" fill="#EDE8D7"/></svg>