<svg xmlns="http://www.w3.org/2000/svg" width="102" height="102" viewBox="0 0 102 102" fill="none">
<path d="M45.3917 75.5385C45.1813 75.4964 44.9712 75.4536 44.7607 75.412C40.7509 74.6152 36.7398 73.8226 32.7327 73.0161C32.3342 72.9358 32.1477 73.0141 32.0869 73.3868C32.0278 73.7475 31.954 74.1119 31.826 74.4572C31.663 74.8976 31.79 75.0905 32.2941 75.2385C35.1613 76.0807 38.0428 76.8934 40.8653 77.8412C44.17 78.9507 47.419 80.1885 50.6925 81.37C50.8762 81.4363 51.0634 81.495 51.3261 81.5832C51.3715 81.3425 51.4221 81.1555 51.4397 80.9668C51.9769 75.1562 52.9978 69.4026 54.2442 63.6752C54.4358 62.7943 54.5289 62.8915 53.5443 62.6381C52.0743 62.26 52.0863 62.2605 51.6591 63.5936C50.5783 66.9667 49.4866 70.3365 48.3977 73.7077C48.3688 73.7971 48.3204 73.882 48.2564 74.0229C48.1512 73.9112 48.0735 73.8477 48.0212 73.7703C45.8029 70.4865 43.7496 67.13 42.3395 63.4778C39.3886 55.8362 38.9528 48.0931 41.6062 40.2453C43.7532 33.8952 47.6327 28.4754 52.9636 23.8636C55.8584 21.3592 59.0874 19.2604 62.5559 17.4515C63.271 17.0787 63.2667 17.0709 62.8559 16.4386C62.6252 16.083 62.3779 15.7353 62.163 15.3719C61.9392 14.9937 61.6875 14.9737 61.2743 15.1909C58.3017 16.7551 55.4605 18.4837 52.8455 20.5086C47.9073 24.3324 43.9361 28.825 41.131 34.107C36.6086 42.6219 35.6845 51.4321 38.127 60.4948C39.1041 64.1206 40.5895 67.5729 42.5675 70.8434C43.3985 72.2177 44.283 73.5656 45.1438 74.9251C45.2514 75.0949 45.3642 75.2619 45.4745 75.4299C45.4468 75.4662 45.419 75.5025 45.3916 75.5384L45.3917 75.5385Z" fill="#333333"/>
</svg>