<svg xmlns="http://www.w3.org/2000/svg" width="96" height="94" viewBox="0 0 96 94" fill="none">
<path d="M48.9204 71.1264C49.1254 71.1234 49.3303 71.1198 49.5354 71.1174C53.4425 71.067 57.3501 71.0207 61.2564 70.9607C61.6449 70.9546 61.8065 71.0607 61.7987 71.4215C61.7914 71.7708 61.7974 72.1261 61.8575 72.4729C61.934 72.9152 61.781 73.0744 61.2815 73.1257C58.4403 73.4178 55.5908 73.6796 52.7732 74.0788C49.4742 74.5458 46.2052 75.1432 42.9231 75.6834C42.7389 75.7138 42.5528 75.7364 42.2905 75.7735C42.2898 75.5393 42.2748 75.3548 42.2911 75.1744C42.7983 69.6201 42.841 64.0352 42.6672 58.4356C42.6405 57.5744 42.5362 57.6496 43.5056 57.5828C44.9529 57.4835 44.9416 57.4819 45.1108 58.8092C45.5391 62.1673 45.9781 65.5244 46.4143 68.8822C46.4259 68.9713 46.4566 69.0595 46.4922 69.2031C46.6105 69.1164 46.6945 69.0703 46.7572 69.0066C49.4138 66.307 51.9281 63.5102 53.8894 60.3235C57.9935 53.6561 59.7517 46.4551 58.625 38.6178C57.7133 32.2762 55.0113 26.507 50.8046 21.2444C48.5203 18.3867 45.8513 15.8519 42.9068 13.5478C42.2997 13.0728 42.3051 13.0663 42.8012 12.5436C43.08 12.2496 43.3729 11.9659 43.6382 11.6619C43.9144 11.3454 44.1544 11.3705 44.5049 11.6465C47.0261 13.6343 49.3952 15.7536 51.4999 18.112C55.4748 22.5657 58.4244 27.4794 60.1406 32.9319C62.9077 41.7217 62.2417 50.1623 58.3677 58.2538C56.818 61.4911 54.8208 64.4768 52.3923 67.2059C51.3719 68.3526 50.3059 69.4654 49.2602 70.5931C49.1295 70.7339 48.9944 70.8712 48.8615 71.0099C48.8812 71.0488 48.901 71.0878 48.9205 71.1263L48.9204 71.1264Z" fill="#333333"/>
</svg>