<svg xmlns="http://www.w3.org/2000/svg" width="316" height="329" viewBox="0 0 316 329" fill="none">
<mask id="mask0_1264_5097" style="mask-type:alpha" maskUnits="userSpaceOnUse" x="0" y="0" width="316" height="329">
<path fill-rule="evenodd" clip-rule="evenodd" d="M163.53 328.624C229.99 328.095 278.448 287.937 301.243 225.533C327.431 153.838 318.861 66.3209 257.132 21.2974C195.123 -23.9308 133.796 13.553 73.3806 60.7381C20.1736 102.293 -14.2338 151.812 6.54679 216.116C27.4956 280.941 95.4336 329.167 163.53 328.624Z" fill="#FAD2E2"/>
</mask>
<g mask="url(#mask0_1264_5097)">
<path fill-rule="evenodd" clip-rule="evenodd" d="M163.53 328.624C229.99 328.095 278.448 287.937 301.243 225.533C327.431 153.838 318.861 66.3209 257.132 21.2974C195.123 -23.9308 133.796 13.553 73.3806 60.7381C20.1736 102.293 -14.2338 151.812 6.54679 216.116C27.4956 280.941 95.4336 329.167 163.53 328.624Z" fill="#FAD2E2"/>
<path fill-rule="evenodd" clip-rule="evenodd" d="M123.267 186.417C155.529 244.522 204.598 272.915 255.629 270.982C314.257 268.761 366.352 230.494 365.621 160.533C364.887 90.2542 311.354 49.635 252.029 13.2238C199.781 -18.8429 151.449 -31.6226 120.128 9.19751C88.5537 50.348 90.2099 126.881 123.267 186.417Z" fill="#F5A4C4"/>
<path fill-rule="evenodd" clip-rule="evenodd" d="M-25.7373 399.417C6.52531 457.522 55.5937 485.915 106.625 483.982C165.253 481.761 217.348 443.494 216.617 373.533C215.883 303.254 162.351 262.635 103.025 226.224C50.7775 194.157 2.44501 181.377 -28.8759 222.198C-60.4502 263.348 -58.794 339.881 -25.7373 399.417Z" fill="#FFE7E4"/>
<path fill-rule="evenodd" clip-rule="evenodd" d="M-2.72918 219.984C-4.24758 244.052 2.89306 262.166 15.276 271.306C29.5025 281.807 47.8619 279.95 58.7113 258.243C69.6099 236.439 63.339 213.704 55.0339 191.161C47.7198 171.308 38.2935 158.147 24.449 164.755C10.4924 171.416 -1.17342 195.325 -2.72918 219.984Z" fill="#736EBE"/>
<rect x="161" y="59" width="32" height="18" rx="5" fill="#8B0F40"/>
<circle cx="177" cy="173" r="103" fill="#B91456"/>
<ellipse cx="177" cy="172.5" rx="88" ry="87.5" fill="#F8F6EF"/>
<path d="M177.149 172.395L176.554 108.405" stroke="#534DAC" stroke-width="13" stroke-linecap="round"/>
<path d="M177.576 173.3L210.908 220.034" stroke="#534DAC" stroke-width="13" stroke-linecap="round"/>
<circle cx="177" cy="173" r="8" fill="#534DAC" stroke="#9591CE" stroke-width="6"/>
<path d="M151 45C151 42.2386 153.239 40 156 40H198C200.761 40 203 42.2386 203 45V61C203 63.7614 200.761 66 198 66H156C153.239 66 151 63.7614 151 61V45Z" fill="#B91456"/>
<rect x="232.383" y="61.6328" width="27.9932" height="15.3963" rx="5" transform="rotate(32 232.383 61.6328)" fill="#8B0F40"/>
<rect width="27.3084" height="15.0196" rx="5" transform="matrix(-0.848048 0.529919 0.529919 0.848048 121.961 61.9531)" fill="#8B0F40"/>
<rect x="61" y="188" width="25" height="112" fill="#F076A6"/>
<rect x="31" y="226" width="25" height="74" fill="#EB4889"/>
<rect x="92" y="213" width="24" height="87" fill="#F5A4C4"/>
<rect x="122" y="234" width="25" height="66" fill="#F076A6"/>
<rect x="152" y="234" width="25" height="66" fill="#F076A6"/>
<rect x="31.0039" y="300" width="243" height="42" fill="#B91456"/>
<ellipse cx="31.8801" cy="152.898" rx="17" ry="18" transform="rotate(-5.20798 31.8801 152.898)" fill="#FFE7E4"/>
<path fill-rule="evenodd" clip-rule="evenodd" d="M44.9564 139.129C44.851 138.982 44.7447 138.834 44.6382 138.684C42.3353 135.451 36.443 131.398 30.9657 131.897C28.6517 132.108 26.4925 132.659 24.5944 133.463C18.0976 135.687 12.8573 143.798 12.0836 153.82C11.1411 166.028 17.1827 176.45 25.5778 177.098C31.6037 177.563 31.5027 174.064 31.3143 167.537C31.2403 164.971 31.1527 161.937 31.4187 158.492C31.5231 157.139 31.5409 156.055 31.5557 155.157C31.6015 152.372 31.618 151.373 34.0934 149.687C34.9114 149.13 35.7576 148.874 36.5417 148.688C38.8396 148.313 41.1547 147.705 43.3727 146.833C48.9202 144.651 47.1317 142.159 44.9564 139.129Z" fill="#423D89"/>
<circle cx="44.5039" cy="223.5" r="7.5" fill="#FFE7E4"/>
</g>
</svg>