<svg xmlns="http://www.w3.org/2000/svg" width="310" height="349" viewBox="0 0 310 349" fill="none">
<path fill-rule="evenodd" clip-rule="evenodd" d="M145.174 74.596C181.596 68.2897 219.746 80.2615 247.433 104.274C275.189 128.346 286.609 164.234 290.296 200.458C294.179 238.608 295.427 281.43 268.274 309.033C241.67 336.078 197.406 343.57 160.467 332.438C127.117 322.387 115.318 296.09 90.8273 277.5C62.6886 256.14 13.9265 251.735 8.61272 217.166C3.29098 182.545 44.4936 160.71 68.9501 135.178C92.2336 110.87 111.738 80.3853 145.174 74.596Z" fill="#EDE8D7"/>
<path d="M98.2422 157.566C98.2422 146.521 107.196 137.566 118.242 137.566H240.138C251.184 137.566 260.138 146.521 260.138 157.566V213.911C260.138 219.951 257.392 225.674 252.112 228.607C245.452 232.307 234.716 237.189 220.158 240.395C193.998 246.156 168.496 246.06 142.336 240.395C126.879 237.048 115.04 232.228 107.541 228.586C101.561 225.682 98.2422 219.475 98.2422 212.827V157.566Z" fill="#534DAC"/>
<mask id="mask0_1041_841" style="mask-type:alpha" maskUnits="userSpaceOnUse" x="98" y="137" width="163" height="108">
<path d="M98.2422 157.57C98.2422 146.525 107.196 137.57 118.242 137.57H240.138C251.184 137.57 260.138 146.525 260.138 157.57V213.915C260.138 219.955 257.392 225.678 252.112 228.611C245.452 232.311 234.716 237.193 220.158 240.399C193.998 246.16 168.496 246.064 142.336 240.399C126.879 237.051 115.04 232.232 107.541 228.59C101.561 225.686 98.2422 219.479 98.2422 212.831V157.57Z" fill="#534DAC"/>
</mask>
<g mask="url(#mask0_1041_841)">
<path d="M187.369 202.574C187.369 238.475 164.306 267.578 135.856 267.578C107.407 267.578 84.3438 238.475 84.3438 202.574C84.3438 132.664 107.407 137.57 135.856 137.57C164.306 137.57 187.369 166.674 187.369 202.574Z" fill="#423D89"/>
</g>
<path d="M45.9102 131.891L178.513 97.7573L309.296 131.891L184.413 188.67L45.9102 131.891Z" fill="#736EBE"/>
<path d="M280.795 201.403C274.741 196.292 292.938 167.047 292.938 167.047L296.895 166.827C301.5 175.265 311.094 199.47 303.913 203.746C296.732 208.023 286.85 206.513 280.795 201.403Z" fill="#534DAC"/>
<ellipse cx="295.296" cy="164.24" rx="7.35892" ry="7.76775" fill="#736EBE"/>
<ellipse cx="182.054" cy="131.842" rx="13.4914" ry="6.54126" fill="#534DAC"/>
<path d="M180.824 131.844H284.114C290.741 131.844 296.114 137.216 296.114 143.844V157.191" stroke="#534DAC" stroke-width="10" stroke-linecap="round"/>
<rect x="47.8516" y="176.523" width="180.702" height="39.2476" rx="19.6238" transform="rotate(32.8155 47.8516 176.523)" fill="#FBFAF7"/>
<path d="M94.549 254.088C89.25 234.866 100.286 220.559 120.305 223.017" stroke="#F076A6" stroke-width="10" stroke-linecap="round"/>
<path d="M105.197 260.624C99.8794 245.906 103.559 228.735 120.75 223.012" stroke="#F076A6" stroke-width="10" stroke-linecap="round"/>
</svg>