<svg xmlns="http://www.w3.org/2000/svg" width="217" height="234" viewBox="0 0 217 234" fill="none">
<mask id="mask0_1387_10025" style="mask-type:alpha" maskUnits="userSpaceOnUse" x="0" y="0" width="215" height="234">
<path fill-rule="evenodd" clip-rule="evenodd" d="M181.505 32.9758C166.722 12.5101 136.362 -2.59576 116.225 0.573567C93.1005 4.21333 80.8044 18.2135 64.2326 33.4871C47.6609 48.7607 30.7447 59.9989 18.6582 78.1606C6.57178 96.3222 -0.68495 121.407 1.25783 148.194C3.20059 174.98 14.3429 203.468 33.2038 217.719C52.0647 231.97 78.6441 231.984 100.232 232.932C121.82 233.88 121.165 232.932 142.772 232.932C164.378 232.931 188.53 224.685 203.427 206.425C217.089 189.68 214.419 162.449 214.419 145.011C214.419 130.984 212.894 117.715 209.11 98.7607C205.325 79.8066 196.288 53.4414 181.505 32.9758Z" fill="#D8D8D8"/>
</mask>
<g mask="url(#mask0_1387_10025)">
<path fill-rule="evenodd" clip-rule="evenodd" d="M232.25 1553.83L-2394.6 1548.04L-2390.55 -296.533L236.305 -290.746L232.25 1553.83Z" fill="#028377"/>
<path fill-rule="evenodd" clip-rule="evenodd" d="M-22.7122 130.687C10.5296 105.836 48.7172 112.276 48.7172 112.276L35.3702 220.744C35.3702 220.744 9.73091 188.063 -34.9199 197.792L-51.1787 161.7C-51.1787 161.7 -67.6136 164.254 -22.7122 130.687Z" fill="#CDF8F4"/>
<path fill-rule="evenodd" clip-rule="evenodd" d="M83.0724 149.602L165.598 149.784C173.077 149.8 175.179 153.713 175.165 160.257L174.992 238.741L78.1382 248.354L48.4168 233.41L48.1733 217.822L82.9441 218.082L82.9637 199.046L80.6935 173.676L83.0724 149.602Z" fill="#CDF8F4"/>
<path fill-rule="evenodd" clip-rule="evenodd" d="M101.473 138.333C101.534 110.826 115.427 104.797 141.681 77.3045C161.677 56.3645 146.462 -5.09055 146.462 -5.09055L32.2801 23.8549L14.0687 26.1272L-18.3336 83.0519L-42.6052 151.225L101.473 138.333Z" fill="#CDF8F4"/>
<mask id="mask1_1387_10025" style="mask-type:alpha" maskUnits="userSpaceOnUse" x="110" y="-203" width="109" height="291">
<path fill-rule="evenodd" clip-rule="evenodd" d="M218.508 -201.801L110.696 -202.038L110.061 87.0203L217.872 87.2578L218.508 -201.801Z" fill="white"/>
</mask>
<g mask="url(#mask1_1387_10025)">
<path fill-rule="evenodd" clip-rule="evenodd" d="M236.798 87.3023L187.526 87.1937L110.226 12.9917L160.791 -190.413L200.665 -201.837L254.391 -169.916L236.798 87.3023Z" fill="#CDF8F4"/>
</g>
<path fill-rule="evenodd" clip-rule="evenodd" d="M56.7157 115.383C42.1941 112.286 39.2657 99.8723 41.1205 88.8069C43.0045 77.5615 49.9038 67.6879 64.0709 67.7191C78.9408 67.7519 85.4288 78.9244 85.1121 90.7455C84.8308 101.266 78.9092 112.377 72.5778 115.417C62.4913 120.261 62.8023 136.551 62.8023 136.551L56.7157 115.383Z" fill="#02AE9E"/>
<path fill-rule="evenodd" clip-rule="evenodd" d="M-132.92 119.978L-133.053 180.415C-133.053 180.415 -94.3681 184.229 -94.4286 211.745L-94.5191 252.949C-94.5191 252.949 -51.3379 257.552 -38.2917 258.024C-25.2455 258.496 5.84913 218.731 -4.55962 197.568C-15.9652 174.38 -21.4643 152.263 -22.7142 130.687C-22.7142 130.687 -87.5307 143.786 -132.92 119.978Z" fill="#35E1D1"/>
<mask id="mask2_1387_10025" style="mask-type:alpha" maskUnits="userSpaceOnUse" x="-62" y="-292" width="209" height="320">
<path fill-rule="evenodd" clip-rule="evenodd" d="M146.43 -290.945L-60.7288 -291.402L-61.4297 27.4806L145.729 27.937L146.43 -290.945Z" fill="white"/>
</mask>
<g mask="url(#mask2_1387_10025)">
<path fill-rule="evenodd" clip-rule="evenodd" d="M-49.4598 -13.5998C-8.80949 -72.9512 34.2892 -45.0147 80.1198 -64.7454C97.4964 -97.702 113.744 -136.182 80.5609 -185.962C47.3762 -235.742 9.6072 -246.92 9.73108 -303.282L41.2245 -303.212C41.2245 -303.212 41.6083 -272.589 77.5172 -234.343C113.426 -196.097 154.863 -154.152 144.373 -88.9369C138.322 -51.3331 107.16 -39.3625 74.9994 -33.763C51.3849 -29.6493 25.8499 -27.9527 16.324 -27.2213C-0.169412 -25.9561 -15.456 -14.9422 -25.0796 -2.42776C-22.0645 7.93072 -26.784 8.41544 -29.1243 13.7219C-36.3587 30.1269 -52.2673 28.1241 -56.7628 26.3381C-61.2571 24.5534 -67.0629 12.1027 -49.4598 -13.5998Z" fill="#35E1D1"/>
</g>
<mask id="mask3_1387_10025" style="mask-type:alpha" maskUnits="userSpaceOnUse" x="117" y="27" width="102" height="92">
<path fill-rule="evenodd" clip-rule="evenodd" d="M218.008 28.0938L117.811 27.873L117.613 117.977L217.81 118.198L218.008 28.0938Z" fill="white"/>
</mask>
<g mask="url(#mask3_1387_10025)">
<path fill-rule="evenodd" clip-rule="evenodd" d="M227.487 87.118C227.487 87.118 229.577 113.38 208.062 117.673C202.001 118.883 168.121 120.639 160.098 85.4802C142.826 79.9479 131.368 69.1542 131.127 51.2396C131.127 51.2396 123.014 57.4078 122.208 69.8465C122.208 69.8465 105.597 42.2424 136.53 29.3453C143.32 26.5141 162.833 27.1063 174.492 39.121C183.451 48.3518 186.35 64.1206 195.153 75.504C209.028 93.4448 242.111 80.8637 247.428 94.8567C260.125 128.278 227.487 87.118 227.487 87.118Z" fill="#35E1D1"/>
</g>
<mask id="mask4_1387_10025" style="mask-type:alpha" maskUnits="userSpaceOnUse" x="127" y="194" width="91" height="141">
<path fill-rule="evenodd" clip-rule="evenodd" d="M217.641 194.977L127.586 194.778L127.281 333.93L217.335 334.128L217.641 194.977Z" fill="white"/>
</mask>
<g mask="url(#mask4_1387_10025)">
<path fill-rule="evenodd" clip-rule="evenodd" d="M127.504 233.579L175.008 233.683L175.094 194.883L242.258 195.031L228.237 313.998L157.931 333.998C157.931 333.998 179.435 233.693 127.504 233.579Z" fill="#35E1D1"/>
</g>
<mask id="mask5_1387_10025" style="mask-type:alpha" maskUnits="userSpaceOnUse" x="-101" y="229" width="319" height="282">
<path fill-rule="evenodd" clip-rule="evenodd" d="M217.562 230.5L-99.9189 229.801L-100.534 509.675L216.947 510.375L217.562 230.5Z" fill="white"/>
</mask>
<g mask="url(#mask5_1387_10025)">
<path fill-rule="evenodd" clip-rule="evenodd" d="M-100.06 292.947C-100.06 292.947 -90.4156 282.778 -94.5132 250.595C-94.5132 250.595 -54.6377 257.823 -39.8566 257.953C-29.3885 258.047 -29.2165 230.187 -29.2165 230.187C-29.2165 230.187 14.1739 224.471 38.534 271.444C62.8929 318.417 97.2553 348.433 125.342 348.495C153.428 348.557 162.916 332.455 162.916 332.455L248.651 307.655L225.421 365.248C225.421 365.248 160.611 378.064 129.772 394.084C98.9321 410.103 108.962 429.684 114.227 470.67C118.403 503.191 65.1054 510.042 65.1054 510.042C65.1054 510.042 101.566 433.715 39.4165 370.024C-24.0665 304.964 -100.06 292.947 -100.06 292.947Z" fill="#01574F"/>
</g>
<path fill-rule="evenodd" clip-rule="evenodd" d="M-206.68 -95.0118C-185.857 -94.9659 -180.627 -106.325 -180.627 -106.325L-180.598 -119.529C-180.585 -125.397 -189.129 -128.718 -189.129 -128.718C-189.129 -128.718 -183.468 -166.851 -211.356 -166.912C-224.37 -166.941 -229.226 -157.049 -229.247 -147.513C-229.268 -137.976 -225.966 -128.231 -233.764 -122.213C-238.979 -118.19 -235.666 -102.778 -235.666 -102.778C-235.666 -102.778 -227.503 -95.0578 -206.68 -95.0118ZM-323.041 -140.473C-323.041 -140.473 -305.296 -141.764 -288.537 -140.397C-280.352 -139.729 -266.872 -134.835 -266.901 -121.715C-266.931 -108.041 -272.614 -105.75 -280.11 -102.832C-295.755 -96.7368 -292.303 -76.0462 -292.303 -76.0462C-268.776 -59.8165 -238.113 -73.5345 -238.113 -73.5345C-238.113 -73.5345 -234.846 -86.0873 -241.969 -95.7681C-249.552 -106.074 -245.116 -109.904 -249.14 -134.043C-253.164 -158.183 -284.894 -149.762 -284.894 -149.762L-170.652 -187.046L-172.114 -140.14L-4.15877 -89.2645L-151.904 -60.5439L-49.4525 -13.6004C-49.4525 -13.6004 -53.9423 -7.89877 -57.2959 3.45263C-60.8149 15.3618 -57.7856 21.6189 -51.5696 23.6685C-47.0851 25.1472 -40.5305 25.0073 -35.6024 16.2676C-30.6744 7.52655 -25.0722 -2.42964 -25.0722 -2.42964L32.2874 23.8535C-19.8944 60.9683 -22.7086 130.685 -22.7086 130.685C-22.7086 130.685 -78.984 152.767 -132.915 119.977C-186.845 87.1875 -193.794 36.3315 -228.141 1.76269C-246.786 -17.0001 -286.934 -47.492 -295.897 -61.4698C-317.397 -95.0033 -323.041 -140.473 -323.041 -140.473Z" fill="#01574F"/>
<path fill-rule="evenodd" clip-rule="evenodd" d="M160.095 85.4827C160.095 85.4827 153.084 89.674 146.887 90.6082C136.517 92.1712 126.483 87.0574 122.206 69.849C121.644 67.5945 116.399 59.3107 116.697 56.5565C118.851 36.6846 120.313 52.9274 120.313 52.9274C120.313 52.9274 123.033 55.6239 133.623 48.4708C134.177 51.9638 135.021 55.6529 136.305 58.9494C140.726 70.3026 150.675 81.6743 160.095 85.4827Z" fill="#01574F"/>
<path fill-rule="evenodd" clip-rule="evenodd" d="M99.4692 128.97C112.703 138.861 127.684 149.7 127.684 149.7L99.2543 149.637C92.3559 149.622 82.8278 155.495 82.804 166.302C82.7922 171.688 82.9597 202.228 82.9597 202.228C82.9597 202.228 69.6441 202.124 64.6245 202.113C57.5931 202.098 55.6171 207.165 55.6082 211.229L55.5936 217.838L48.1737 217.822L48.4158 233.41C48.4158 233.41 -0.997985 203.468 0.232177 162.236C0.864045 141.097 20.5797 121.802 36.5055 114.8C39.8543 113.327 44.0635 112.512 48.716 112.275C56.2607 114.843 62.1978 116.843 72.4481 115.185C82.5297 117.882 91.1385 122.742 99.4692 128.97Z" fill="#012C28"/>
<path fill-rule="evenodd" clip-rule="evenodd" d="M32.2842 23.8532C46.2756 29.6573 57.1951 33.1937 79.0783 43.8381C107.844 57.8299 122.209 69.848 122.209 69.848C122.209 69.848 118.486 54.0761 124.956 42.2556C129.647 33.6902 139.125 28.6632 148.823 28.0544C152.604 26.302 159.646 21.2156 163.936 17.1172C178.189 3.49408 186.894 -11.6267 184.993 -30.3115C181.513 -64.523 143.255 -54.6387 160.877 -89.6229C178.498 -124.607 200.26 -150.739 184.683 -190.363C184.683 -190.363 176.761 -189.857 169.108 -184.435C163.902 -180.749 159.382 -174.639 156.44 -165.172C147.842 -137.518 131.016 -131.095 131.016 -131.095C131.016 -131.095 137.637 -86.5476 119.75 -62.1923C101.865 -37.8357 75.0037 -33.7639 75.0037 -33.7639C75.0037 -33.7639 61.0542 0.0555234 32.2842 23.8532Z" fill="#012C28"/>
<path fill-rule="evenodd" clip-rule="evenodd" d="M-56.1719 357.398C-67.4913 345.418 -103.836 352.491 -116.361 350.076C-132.254 347.012 -137.887 342.437 -142.372 337.203C-148.279 330.308 -149.936 322.271 -147.961 315.052C-144.91 303.904 -122.429 302.424 -113.055 299.86C-105.806 297.877 -100.154 290.755 -98.5072 283.515C-96.2375 273.542 -105.025 264.601 -113.603 258.867C-122.183 253.133 -132.242 247.261 -134.559 237.297C-136.117 230.6 -133.318 223.116 -127.725 219.023C-124.263 216.49 -119.991 215.252 -116.41 212.888C-106.055 206.056 -103.919 192.003 -104.705 180.657C-105.444 170 -100.065 157.207 -87.567 155.404C-75.3881 153.647 -62.7883 160.266 -59.8644 173.573C-57.0387 186.439 -62.8693 197.134 -55.096 202.449C-49.5917 206.21 -42.6991 195.219 -25.5447 192.791C-14.4824 191.227 -1.09823 196.326 4.33966 205.956C8.53854 213.39 8.11507 222.76 4.80698 230.618C1.49759 238.475 -4.20579 245.23 -10.8125 250.7C-38.6082 273.718 -29.514 289.097 -20.1217 290.441C-10.9979 291.747 -0.517221 287.307 8.59654 293.183C23.0848 302.525 26.7989 317.555 13.6284 335.077C8.47505 341.932 1.3943 347.159 -4.17949 353.687C-6.01608 355.838 -7.70038 358.111 -9.24797 360.47C24.402 383.057 51.5968 416.313 50.2639 465.147C47.7015 559.051 -111.768 581.896 -111.768 581.896C-111.768 581.896 -170.878 543.843 -145.939 499.556C-145.939 499.556 -127.652 515.175 -94.361 516.02C-74.9353 516.514 -29.7107 504.961 -17.0101 478.172C5.66135 430.353 -23.1819 387.824 -56.1719 357.398Z" fill="#012C28"/>
</g>
</svg>