<svg xmlns="http://www.w3.org/2000/svg" width="572" height="136" viewBox="0 0 572 136" fill="none">
<path fill-rule="evenodd" clip-rule="evenodd" d="M528.837 30.8717C528.837 30.8717 527.13 29.6821 525.357 29.3759C523.879 29.121 522.255 29.9979 522.541 31.474C522.805 32.833 525.269 33.2504 526.402 33.6906C528.512 34.5113 529.675 34.5447 529.675 34.5447L531.134 32.5521L528.837 30.8717Z" fill="#F5A4C4"/>
<path fill-rule="evenodd" clip-rule="evenodd" d="M529.061 31.1403C529.061 31.1403 529.486 30.2752 529.418 29.4917C529.361 28.8392 528.664 28.2655 527.893 28.569C527.183 28.8488 527.283 29.9364 527.192 30.467C527.023 31.4557 527.16 31.9489 527.16 31.9489L528.446 32.3144L529.061 31.1403Z" fill="#F5A4C4"/>
<path fill-rule="evenodd" clip-rule="evenodd" d="M564.145 39.0356C564.145 39.0356 566.79 38.8089 568.507 39.2939C569.937 39.698 570.825 41.1445 569.705 42.302C568.674 43.3673 566.293 42.6862 565.052 42.5885C562.739 42.4067 561.712 41.9434 561.712 41.9434L562.297 39.1171L564.145 39.0356Z" fill="#F5A4C4"/>
<path fill-rule="evenodd" clip-rule="evenodd" d="M564.254 39.2588C564.254 39.2588 564.397 38.33 564.919 37.6803C565.354 37.1394 566.297 36.9373 566.785 37.5262C567.234 38.0687 566.505 38.9686 566.27 39.4664C565.832 40.3941 565.422 40.7634 565.422 40.7634L564.092 40.5359L564.254 39.2588Z" fill="#F5A4C4"/>
<path fill-rule="evenodd" clip-rule="evenodd" d="M535.128 130.226C522.296 130.144 511.832 122.331 503.818 113.452C495.79 104.556 489.944 93.8663 492.192 82.6527C494.569 70.798 503.313 60.5601 515.495 55.2194C527.837 49.8087 543.05 48.8041 554.76 55.2217C565.485 61.0991 566.63 73.516 568.925 84.5006C571.044 94.6409 573.389 105.23 567.012 113.857C559.933 123.435 548.052 130.309 535.128 130.226Z" fill="#F076A6"/>
<path fill-rule="evenodd" clip-rule="evenodd" d="M293.589 79.6985C280.757 79.6162 270.293 71.8032 262.279 62.9247C254.251 54.029 248.405 43.339 250.653 32.1254C253.03 20.2707 261.774 10.0327 273.956 4.69205C286.297 -0.718662 301.511 -1.72327 313.221 4.69438C323.946 10.5718 325.091 22.9886 327.386 33.9733C329.504 44.1135 331.85 54.7023 325.473 63.33C318.394 72.9078 306.513 79.7814 293.589 79.6985Z" fill="#9591CE"/>
<path fill-rule="evenodd" clip-rule="evenodd" d="M53.2924 79.6985C40.4605 79.6162 29.9956 71.8032 21.9825 62.9247C13.954 54.029 8.10785 43.339 10.3564 32.1254C12.7334 20.2707 21.4775 10.0327 33.6592 4.69205C46.0006 -0.718662 61.2139 -1.72327 72.9243 4.69438C83.6488 10.5718 84.7936 22.9886 87.0888 33.9733C89.2076 44.1135 91.5529 54.7023 85.1759 63.33C78.0967 72.9078 66.2156 79.7814 53.2924 79.6985Z" fill="#02AE9E"/>
<path d="M540.342 72.9599L534.796 70.4953C535.412 66.1821 534.989 54.475 533.756 52.6265C532.523 50.778 529.251 52.6265 526.786 54.475C524.815 55.9538 525.952 64.539 528.211 69.2629L522.665 70.4953C521.022 67.0037 519.392 57.5558 520.008 54.475C521.111 48.9638 531.505 47.081 535.408 46.4648C540.953 46.4648 547.104 55.3489 546.506 55.7073C543.423 57.5558 539.815 54.4185 540.958 56.3235C542.807 59.4043 540.958 66.3875 540.342 72.9599Z" fill="#E61A6B"/>
<path d="M535.411 46.4666L546.502 55.7091C550.445 53.2444 554.306 43.5912 555.744 39.0726C556.771 36.8134 557.223 32.5413 550.815 33.5272C544.407 34.513 543.832 32.2948 543.421 31.0625C540.956 33.0342 537.259 33.1164 536.643 32.911L530.481 31.0625L528.633 34.7595C529.044 34.9649 530.728 35.6221 534.178 36.608C537.629 37.5938 536.438 43.5912 535.411 46.4666Z" fill="#B7B4DE"/>
<circle cx="548.35" cy="29.2135" r="5.54548" fill="#F5A4C4"/>
<path d="M557.591 37.8396C556.359 36.6081 556.359 34.7581 555.743 35.3771C555.127 35.9933 550.324 39.8114 550.817 40.3043C551.433 40.9205 555.746 42.7689 560.059 43.3851C563.3 43.8481 562.521 41.5366 562.521 40.3043C562.521 39.6881 563.017 39.072 562.524 39.072C561.908 39.072 559.388 39.6355 557.591 37.8396Z" fill="#B7B4DE"/>
<path d="M553.896 29.2115C551.545 25.1992 545.885 27.9792 543.421 27.9791C541.367 27.5676 537.875 25.7586 540.34 21.8152C543.421 16.8858 552.663 21.5218 553.896 22.7492C555.277 24.1242 555.163 31.3755 553.896 29.2115Z" fill="#333333"/>
<path fill-rule="evenodd" clip-rule="evenodd" d="M529.26 72.1121C530.361 70.8426 528.595 69.0735 528.595 69.0735L522.203 70.5463C522.203 70.5463 518.467 74.0881 519.84 75.6701C519.84 75.6701 528.159 73.3817 529.26 72.1121Z" fill="#333333"/>
<path fill-rule="evenodd" clip-rule="evenodd" d="M540.317 72.1609C540.422 74.1316 538.833 73.4529 536.985 74.1872C535.137 74.9219 532.492 75.0213 531.837 74.365C530.478 73.0046 532.215 71.7198 533.592 70.8443C535.338 69.7353 534.264 70.5097 534.902 69.7025L540.317 72.1609Z" fill="#333333"/>
<path fill-rule="evenodd" clip-rule="evenodd" d="M22.8124 60.0496C22.8124 60.0496 22.2674 57.7917 22.9382 56.1882C23.4786 54.8973 25.0576 53.816 27.0982 54.3223C30.129 55.0747 28.879 58.1644 27.9437 60.5955C27.1681 62.6123 25.1836 64.5654 25.1836 64.5654L22.8124 60.0496Z" fill="#EDE8D7"/>
<path fill-rule="evenodd" clip-rule="evenodd" d="M68.8911 60.3057C68.8911 60.3057 71.1317 58.385 71.8875 56.2651C72.5168 54.4996 71.2515 52.4041 68.7168 52.5555C66.3831 52.6959 65.3467 55.6427 64.4503 56.9634C62.7794 59.4243 62.5668 60.8375 62.5668 60.8375L65.7412 62.8799L68.8911 60.3057Z" fill="#EDE8D7"/>
<path fill-rule="evenodd" clip-rule="evenodd" d="M38.118 61.2094C33.3817 61.6684 30.9731 64.2097 30.1893 66.982C29.4054 69.7543 24.3466 70.7948 23.8163 75.6112C23.2861 80.4277 37.8846 85.3295 40.2701 78.7588C41.4791 75.4263 41.9712 71.7684 44.2881 68.0929C46.801 64.1075 40.4079 60.9875 38.118 61.2094Z" fill="#E61A6B"/>
<path fill-rule="evenodd" clip-rule="evenodd" d="M23.9051 90.5359L43.9052 91.4369C43.9052 91.4369 57.376 92.9017 56.0222 99.4075C54.6671 105.913 50.0443 108.115 50.0443 108.115L45.8766 112.644C45.8766 112.644 37.6514 111.875 40.7725 106.304C44.1081 100.349 40.4851 99.6361 38.6345 99.3548C35.8286 98.9287 34.2367 101.533 30.2014 108.548C25.7931 116.211 12.5206 121.096 12.5206 121.096L6.85513 116.902C6.85513 116.902 15.1198 110.023 17.07 106.692C18.1912 104.778 18.5056 100.381 18.8369 98.3576C19.4643 94.5328 22.0274 90.4514 23.9051 90.5359Z" fill="#E61A6B"/>
<path fill-rule="evenodd" clip-rule="evenodd" d="M23.9092 90.5301C23.9092 90.5301 19.035 89.5011 18.339 83.2966C17.5005 75.8214 18.484 67.3079 22.8091 60.0026L27.9405 60.5485L28.9233 70.8808C28.9233 70.8808 22.7586 74.1699 26.9327 78.3543C28.6721 80.0985 33.5692 80.636 37.1683 76.4339C39.0124 74.2789 38.6962 71.0384 38.6962 71.0384C38.6962 71.0384 39.2524 72.9765 42.8701 72.9966C46.4878 73.0163 60.3471 65.1237 60.0401 59.1898C67.1431 56.4385 69.5547 59.9385 69.5547 59.9385C69.5547 59.9385 61.7757 72.5722 53.2067 80.456C44.6377 88.3393 47.5415 92.3922 47.5415 92.3922L23.9092 90.5301Z" fill="#FFC4BC"/>
<path fill-rule="evenodd" clip-rule="evenodd" d="M40.0517 111.015C38.2483 109.241 40.7782 106.3 40.7782 106.3L50.6878 107.63C50.6878 107.63 56.7371 112.483 54.7893 115.083C54.7893 115.083 41.855 112.788 40.0517 111.015Z" fill="#333333"/>
<path fill-rule="evenodd" clip-rule="evenodd" d="M6.85868 116.901C3.29767 117.041 2.18019 119.586 1.11802 122.069C0.0552616 124.553 0.247368 127.973 1.52019 128.725C4.15873 130.283 6.22726 127.867 7.60935 125.97C9.36028 123.566 11.161 122.03 12.5241 121.095C8.71228 118.724 12.5241 121.095 12.5241 121.095L6.85868 116.901Z" fill="#333333"/>
</svg>