<svg xmlns="http://www.w3.org/2000/svg" width="300" height="336" viewBox="0 0 300 336" fill="none">
<mask id="mask0_1983_4498" style="mask-type:alpha" maskUnits="userSpaceOnUse" x="0" y="0" width="297" height="335">
<path fill-rule="evenodd" clip-rule="evenodd" d="M119.841 324.543C172.559 342.269 197.062 333.194 226.396 322.825C260.312 306.721 295.38 266.273 296.388 192.257C297.396 118.241 262.396 50.7871 215.142 26.0957C167.888 1.40425 101.907 -19.7337 48.1804 36.5561C-5.54598 92.8459 -6.81324 202.401 11.1059 237.461C29.0251 272.521 67.1223 306.817 119.841 324.543Z" fill="#D8D8D8"/>
</mask>
<g mask="url(#mask0_1983_4498)">
<path fill-rule="evenodd" clip-rule="evenodd" d="M-179.87 1554.87L1545.9 632.713L894.758 -585.852L-831.008 336.309L-179.87 1554.87Z" fill="#8B0F40"/>
<path fill-rule="evenodd" clip-rule="evenodd" d="M-114.365 151.707C-107.521 136.271 -95.0669 147.13 -75.9608 104.517C-56.8543 61.903 -18.255 -33.3793 -18.255 -33.3793L-132.157 33.3475L-208.708 59.1881L-210.448 179.16C-210.448 179.16 -187.793 204.232 -186.924 203.768C-186.054 203.303 -114.365 151.707 -114.365 151.707" fill="#F1EDDF"/>
<path fill-rule="evenodd" clip-rule="evenodd" d="M210.234 343.003C190.389 334.524 149.171 319.665 144.786 292.774C141.952 275.4 156.668 266.213 166.539 250.603C171.946 242.051 177.325 233.603 174.253 216.099C165.572 166.639 146.856 145.851 176.259 100.862C205.663 55.8729 200.911 109.777 200.911 109.777L310.403 116.303C310.403 116.303 297.213 150.395 283.195 189.033C269.176 227.671 253.439 232.313 235.388 262.704C212.556 301.142 210.234 343.003 210.234 343.003" fill="#F1EDDF"/>
<path fill-rule="evenodd" clip-rule="evenodd" d="M197.454 78.8328C228.403 58.478 240.483 43.6584 240.483 43.6584C240.483 43.6584 274.542 54.1085 298.676 94.366C327.952 143.198 200.648 112.927 200.648 112.927L197.454 78.8328Z" fill="#F1EDDF"/>
<path fill-rule="evenodd" clip-rule="evenodd" d="M256.192 19.7631C293.066 36.77 312.956 64.8559 325.7 94.9316L370.264 35.4092L341.212 -43.8741L281.687 -83.7686C281.687 -83.7686 270.625 -21.1079 256.192 19.7631" fill="#F1EDDF"/>
<path fill-rule="evenodd" clip-rule="evenodd" d="M99.3123 745.042L110.347 760.724L176.831 754.9L218.829 732.459L281.849 754.886L321.516 582.838L365.056 594.065L359.791 495.614C359.791 495.614 354.933 483.919 338.969 478.28C327.863 474.358 305.601 480.966 305.601 480.966C305.601 480.966 314.483 456.935 315.051 434.593C315.565 414.363 312.096 394.774 305.526 384.43C283.062 349.056 210.234 343.003 210.234 343.003L202.241 363.569C202.241 363.569 188.075 478.355 219.911 532.406C219.911 532.406 180.758 528.881 154.53 569.248C128.303 609.616 148.182 588.355 148.245 606.862C148.384 646.896 195.35 671.544 186.849 701.904C182.555 717.244 165.658 729.044 150.32 733.078C132.4 737.792 116.06 733.337 116.06 733.337L103.358 701.073L99.3123 745.042Z" fill="#5D0A2B"/>
<path fill-rule="evenodd" clip-rule="evenodd" d="M134.935 47.8886C134.935 47.8886 205.352 -135.986 224.972 -182.528C244.591 -229.068 258.423 -243.364 258.423 -243.364L186.162 -204.752L101.145 -166.231L36.9794 -87.0462L-55.8737 135.255L-73.0314 236.81C-73.0314 236.81 -45.4102 277.525 -19.3188 250.361C8.49918 221.4 26.8932 186.006 26.8932 186.006L9.15724 125.113L107.624 9.89986L134.935 47.8886Z" fill="#FFD0C9"/>
<path fill-rule="evenodd" clip-rule="evenodd" d="M-365.727 497.639C-380.406 470.128 -392.319 375.904 -374.498 327.958C-356.675 280.013 -328.779 262.516 -306.675 264.52C-284.572 266.524 -256.671 243.845 -233.614 220.299C-210.556 196.754 -206.202 191.782 -213.548 178.034L-244.556 120.004L-277.792 57.8056C-277.792 57.8056 -231.135 -19.4567 -198.061 -9.79885C-190.75 -12.8309 -165.171 -18.9949 -165.171 -18.9949C-165.171 -18.9949 -166.261 -8.35638 -155.914 -0.728561C-155.256 -0.243168 -156.355 1.37934 -155.6 1.83682C-154.301 2.62521 -152.831 3.01234 -154.094 5.17711C-160.529 16.1987 -194.195 41.2288 -194.195 41.2288L-212.108 123.328C-212.108 123.328 -212.856 143.064 -200.544 166.104L-177.646 208.957C-177.646 208.957 -182.819 218.033 -207.268 244.993C-228.218 268.095 -262.973 301.475 -272.38 310.222C-273.952 311.684 -274.424 311.314 -274.424 311.314L-316.174 345.146L-342.194 451.436L-364.187 470.96L-368.63 482.325L-365.727 497.639Z" fill="#FFD0C9"/>
<path fill-rule="evenodd" clip-rule="evenodd" d="M-138.311 -28.8322C-140.668 -23.7204 -141.082 -17.9997 -135.149 -11.264C-129.218 -4.5287 -80.0415 -12.4122 -80.0415 -12.4122L-72.8572 -52.5688C-72.8572 -52.5688 -83.9777 -138.314 -53.6516 -177.508C-25.28 -214.176 39.2815 -249.783 94.3965 -210.331C98.1936 -207.613 99.0522 -207.158 102.744 -203.703L122.553 -214.652C122.553 -214.652 118.753 -219.318 107.277 -227.032C88.1464 -239.889 55.4495 -255.351 17.0948 -246.38C-11.6916 -239.648 -52.9442 -216.359 -71.7713 -189.686C-90.3944 -163.301 -100.093 -157.824 -100.093 -157.824L-109.117 -75.225L-118.332 -50.2338C-118.332 -50.2338 -120.743 -42.9879 -138.311 -28.8322" fill="#FFD0C9"/>
<path fill-rule="evenodd" clip-rule="evenodd" d="M346.422 335.969C346.422 335.969 361.003 305.229 351.967 285.394C345.327 270.819 327.875 254.396 294.755 261.753C294.755 261.753 302.08 229.182 337.017 197.246L363.808 204.677L407.639 273.403L358.847 352.92L346.422 335.969Z" fill="#FFD0C9"/>
<path fill-rule="evenodd" clip-rule="evenodd" d="M28.7266 142.419C28.7266 142.419 72.2474 130.607 99.903 86.2969C127.557 41.9871 117.093 28.0144 125.147 25.5555C133.201 23.0983 137.684 46.9135 133.56 74.9574C129.436 103.002 121.7 112.746 132.001 126.734C138.828 136.006 132.693 138.546 128.536 144.09C124.379 149.634 136.288 183.139 103.384 209.211C103.384 209.211 77.8418 214 53.0032 196.265C28.163 178.528 28.7266 142.419 28.7266 142.419" fill="#E61A6B"/>
<path fill-rule="evenodd" clip-rule="evenodd" d="M176.258 100.866C176.258 100.866 185.53 87.9762 197.457 78.8335C197.457 78.8335 185.399 61.6673 199.879 48.0536C209.359 39.1418 219.43 37.607 240.485 43.6592C240.485 43.6592 251.471 31.1993 256.191 19.7612C256.191 19.7612 247.612 13.9969 229.743 10.9174C217.716 8.84438 197.374 12.5316 181.883 27.9622C168.598 41.1952 164.988 55.9812 165.865 70.8975C166.873 88.077 176.258 100.866 176.258 100.866" fill="#E61A6B"/>
<path fill-rule="evenodd" clip-rule="evenodd" d="M216.565 160.17C216.565 160.17 229.618 198.178 251.939 245.432C251.939 245.432 247.55 246.1 235.385 262.706C238.983 257.96 235.336 253.133 226.516 254.525C215.067 256.329 199.131 248.853 196.062 236.097C193.709 226.319 194.636 218.984 187.076 208.889C185.725 207.086 184.987 203.205 189.9 200.334C193.139 198.443 196.824 194.047 198.756 189.251C201.977 181.254 207.483 162.807 216.565 160.17" fill="#E61A6B"/>
<path fill-rule="evenodd" clip-rule="evenodd" d="M337.014 197.244C318.538 177.228 361.647 168.455 350.92 142.069C340.194 115.685 310.396 116.305 310.396 116.305C310.396 116.305 334.922 77.3591 337.173 44.4081C339.425 11.4582 335.264 -11.0522 335.264 -11.0522C335.264 -11.0522 340.59 10.8356 379.525 -1.84844C397.93 -7.84358 416.267 -8.81737 425.241 -0.435446C435.251 8.91502 449.777 32.3346 439.936 59.3936C421.272 110.714 420.18 143.654 420.18 143.654C420.18 143.654 376.415 164.827 398.972 214.052C411.457 241.298 428.532 259.305 437.461 274.318C444.665 286.43 443.058 310.362 432.97 321.852C410.375 347.583 383.677 348.108 383.677 348.108L347.411 333.845C347.411 333.845 381.055 310.564 381.874 276.716C382.725 241.544 356.768 218.646 337.014 197.244" fill="#E61A6B"/>
<path fill-rule="evenodd" clip-rule="evenodd" d="M-200.545 166.102C-200.545 166.102 -222.072 119.325 -191.39 77.5711C-167.048 44.4424 -137.518 47.9961 -102.057 41.6711C-76.3057 37.0783 -42.9298 26.5233 -32.0288 0.362136C-26.6432 -12.5644 -23.5765 -18.6271 -18.2545 -33.3839C-18.2545 -33.3839 -63.389 -29.0959 -91.9188 -52.5135C-91.9188 -52.5135 -87.4037 -32.8339 -94.1768 -26.4829C-98.8643 -22.0875 -107.817 -21.6154 -108.164 -31.2092C-108.164 -31.2092 -117.901 -14.9594 -135.148 -11.2667C-135.148 -11.2667 -117.653 4.24085 -126.685 16.5631C-135.718 28.8854 -143.537 38.9814 -150.293 32.3343C-157.049 25.6862 -139.793 14.5137 -147.361 7.09568C-155.199 -0.58866 -155.915 -0.73095 -155.915 -0.73095C-155.915 -0.73095 -202.171 7.18797 -219.17 30.0792C-240.165 58.3523 -241.707 89.0713 -200.545 166.102" fill="#E61A6B"/>
<path fill-rule="evenodd" clip-rule="evenodd" d="M116.196 357.548C116.196 357.548 69.4475 335.069 82.9052 305.352C96.3613 275.636 98.7935 243.297 74.8179 231.885C58.9858 224.35 33.8032 239.638 17.8198 264.752C9.59937 277.668 3.05414 295.957 3.19272 309.229C3.64966 352.725 26.6093 361.61 46.9784 359.52C57.7107 358.419 80.0336 350.806 104.611 364.178C110.289 367.268 108.827 352.332 116.196 357.548" fill="#5D0A2B"/>
<path fill-rule="evenodd" clip-rule="evenodd" d="M122.938 291.309C125.126 269.326 133.511 267.658 150.111 242.403C159.477 228.154 158.467 209.648 148.784 200.613C139.698 192.132 123.409 193.944 112.919 200.123L103.385 209.211C103.385 209.211 108.495 218.956 114.016 241.296C119.536 263.637 119.495 325.914 122.938 291.309" fill="#5D0A2B"/>
<path fill-rule="evenodd" clip-rule="evenodd" d="M207.938 168.177C207.938 168.177 205.34 189.772 226.565 223.857C247.793 257.941 265.53 269.689 294.751 261.753C294.751 261.753 298.473 250.555 304.857 237.568C308.887 229.369 311.414 210.784 301.586 198.467C297.049 192.781 289.3 189.786 279.732 186.422C274.208 184.479 271.091 181.108 269.17 176.852C264.924 167.445 261.873 154.06 246.278 150.567C232.816 147.554 216.499 153.275 207.938 168.177" fill="#F076A6"/>
<path fill-rule="evenodd" clip-rule="evenodd" d="M310.399 116.308L298.674 94.3671C298.674 94.3671 225.85 127.719 197.453 78.8339C197.453 78.8339 184.28 88.9908 176.255 100.867C176.255 100.867 220.627 161.322 310.399 116.308" fill="#F076A6"/>
<path fill-rule="evenodd" clip-rule="evenodd" d="M207.267 -203.326L199.576 -217.72C199.576 -217.72 112.793 -208.921 52.2351 -122.343C-8.32379 -35.7631 -47.7864 111.62 -74.8676 168.891C-101.949 226.163 -122.17 249.626 -122.17 249.626L-175.42 248.598L-225.427 294.95L-144.335 299.655C-144.335 299.655 -119.626 349.287 -115.241 357.493C-118.162 349.829 -121.392 344.102 -119.336 333.316C-117.664 324.543 -110.151 320.828 -102.852 321.258C-94.6715 321.741 -88.7369 330.102 -88.7369 330.102L-71.9413 310.308L-98.5553 260.502C-80.934 227.593 -62.9665 215.155 -32.8277 116.957C-2.68998 18.7605 46.8226 -98.2319 97.9007 -144.834C150.563 -192.883 207.267 -203.326 207.267 -203.326" fill="#F076A6"/>
<path fill-rule="evenodd" clip-rule="evenodd" d="M210.233 343.008C210.233 343.008 235.584 307.672 282.626 308.993C282.626 308.993 369.411 342.314 391.057 350.304C412.702 358.292 415.742 364.968 405.655 387.479C395.569 409.989 389.124 419.608 354.658 405.365C320.194 391.122 210.233 343.008 210.233 343.008" fill="#F076A6"/>
<path fill-rule="evenodd" clip-rule="evenodd" d="M227.686 463.376C265.475 418.799 282.805 386.193 221.659 364.393C160.514 342.593 121.434 329.284 122.899 285.839C123.896 256.326 128.98 222.482 103.708 206.721C70.3291 185.905 42.602 209.91 28.7249 142.412C28.7249 142.412 88.1454 148.873 121.608 50.0322C133.348 15.3508 134.932 47.8878 134.932 47.8878C134.932 47.8878 142.048 13.141 123.968 -15.6161C113.121 -32.87 96.2882 -53.5745 58.4309 -55.2086C58.4309 -55.2086 33.0609 -10.3706 10.1162 51.467C-4.4666 90.7714 -15.8025 137.497 -26.3142 182.158L17.8181 264.749C17.8181 264.749 48.9017 222.406 73.6993 236.295C81.9114 240.895 86.0566 254.242 83.6169 268.682C78.6919 297.842 61.137 337.306 95.6011 359.136C110.088 368.313 149.545 382.177 171.627 427.443C193.709 472.711 167.764 516.665 167.764 516.665C167.764 516.665 189.898 507.95 227.686 463.376Z" fill="#F076A6"/>
<path fill-rule="evenodd" clip-rule="evenodd" d="M310.403 116.308C318.959 134.148 315.795 141.592 315.173 154.157C314.855 160.572 316.79 171.192 325.704 183.84C331.829 192.532 337.02 197.248 337.02 197.248C337.02 197.248 382.645 162.524 364.681 127.278C354.858 108.005 329.478 106.115 310.403 116.308" fill="#5D0A2B"/>
<path fill-rule="evenodd" clip-rule="evenodd" d="M-60.1277 -167.335C-60.1277 -167.335 -27.1464 -120.876 30.4621 -130.837C30.4621 -130.837 0.811966 -78.6602 -20.8783 -26.9251C-20.8783 -26.9251 -36.103 -16.051 -61.4349 -23.6147C-86.7657 -31.1789 -91.9193 -52.5121 -91.9193 -52.5121C-91.9193 -52.5121 -91.0745 -88.5914 -76.7816 -133.564C-72.746 -146.259 -63.9823 -160.872 -60.1277 -167.335" fill="#5D0A2B"/>
<path fill-rule="evenodd" clip-rule="evenodd" d="M-71.9405 310.306L-43.1292 364.225C-33.7495 381.779 -25.2534 390.011 -14.4126 381.116C-14.4126 381.116 -33.9426 399.284 -44.4358 419.724C-54.9279 440.164 -69.6783 442.566 -69.6783 442.566C-69.6783 442.566 -86.5155 406.423 -82.6379 379.2C-79.2703 355.565 -80.7674 341.863 -88.7368 330.099L-71.9405 310.306Z" fill="#5D0A2B"/>
</g>
</svg>