<svg xmlns="http://www.w3.org/2000/svg" width="342" height="317" viewBox="0 0 342 317" fill="none">
<mask id="mask0_1394_8581" style="mask-type:alpha" maskUnits="userSpaceOnUse" x="0" y="0" width="290" height="314">
<path fill-rule="evenodd" clip-rule="evenodd" d="M113.993 13.8294C141.709 -2.466 185.503 -4.06883 208.119 10.4752C234.092 27.1779 242.02 50.3368 254.458 77.2947C266.896 104.253 281.715 126.619 287.362 154.591C293.01 182.562 289.488 216.138 274.097 246.796C258.707 277.454 231.449 305.195 201.87 311.95C172.291 318.705 140.392 304.475 114.026 294.025C87.6603 283.575 88.9087 282.805 62.9835 271.223C37.0582 259.641 12.0994 236.936 3.126 207.342C-5.10313 180.203 11.3771 149.408 19.879 128.771C26.7175 112.172 35.0168 97.2862 48.7983 76.884C62.5799 56.4818 86.2774 30.1249 113.993 13.8294Z" fill="#D8D8D8"/>
</mask>
<g mask="url(#mask0_1394_8581)">
<path fill-rule="evenodd" clip-rule="evenodd" d="M-302.146 668.982L2306.3 663.235L2302.27 -1168.41L-306.172 -1162.67L-302.146 668.982Z" fill="#028377"/>
<path fill-rule="evenodd" clip-rule="evenodd" d="M102.57 151.166L48.1686 139.713L40.3945 173.493L93.5921 189.739L102.57 151.166Z" fill="#CDF8F4"/>
<path fill-rule="evenodd" clip-rule="evenodd" d="M25.2227 7.36855C25.2227 7.36855 21.7397 9.00068 17.8282 15.3271C12.2589 24.3338 4.24064 40.084 -9.36693 50.4405C-29.605 78.2374 40.3873 173.492 40.3873 173.492L108.286 143.206L115.785 81.0562L124.364 76.6441L109.498 34.3133L25.2227 7.36855Z" fill="#CDF8F4"/>
<path fill-rule="evenodd" clip-rule="evenodd" d="M-26.1002 27.2069C-9.38357 13.5512 34.9192 -92.9265 123.983 -98.7713C213.045 -104.616 166.167 -149.516 206.123 -138.399C246.08 -127.283 284.226 -140.355 284.226 -140.355L456.64 -235.053L421.923 -257.899L-26.3247 -74.9545L-53.7459 18.7088L-26.1002 27.2069Z" fill="#01574F"/>
<path fill-rule="evenodd" clip-rule="evenodd" d="M117.35 63.7959L126.928 78.8368L390.172 4.77452L385.047 -11.165L161.044 -30.6273L105.227 47.8182L117.35 63.7959Z" fill="#CDF8F4"/>
<path fill-rule="evenodd" clip-rule="evenodd" d="M301.135 26.4851L287.367 126.691C287.367 126.691 223.498 53.9322 168.608 76.0765L172.672 53.4465L301.135 26.4851Z" fill="#CDF8F4"/>
<mask id="mask1_1394_8581" style="mask-type:alpha" maskUnits="userSpaceOnUse" x="-286" y="264" width="352" height="335">
<path fill-rule="evenodd" clip-rule="evenodd" d="M-285.586 265.137L65.1831 264.364L65.9165 598.049L-284.853 598.821L-285.586 265.137Z" fill="white"/>
</mask>
<g mask="url(#mask1_1394_8581)">
<path fill-rule="evenodd" clip-rule="evenodd" d="M-84.8629 488.301C-125.72 492.363 -158.796 496.83 -157.574 473.605C-156.353 450.382 -106.275 453.284 -99.0176 407.578C-93.7857 374.628 -127.368 357.839 -160.564 377.588C-190.473 395.383 -274.234 455.553 -262.369 500.813C-257.129 520.803 -241.59 524.728 -225.838 523.402C-212.051 522.24 -183.774 522.548 -183.734 540.762C-183.615 594.923 -222.234 598.687 -222.234 598.687C-222.234 598.687 -219.056 592.854 -233.089 586.518C-243.698 572.916 -269.995 551.162 -302.764 550.294L-291.516 468.565C-291.516 468.565 -195.332 345.153 -126.796 350.432L-67.9465 290.461C-67.9465 290.461 -65.7082 289.792 -52.0386 288.211C-38.3703 286.629 -9.47646 264.532 -9.47646 264.532L50.6606 266.036L65.3609 347.58L37.9389 412.611L-84.8629 488.301Z" fill="#CDF8F4"/>
</g>
<path fill-rule="evenodd" clip-rule="evenodd" d="M59.687 -163.656C58.7573 -159.022 60.1188 -152.136 66.4326 -149.341C76.3621 -144.943 83.895 -142.377 92.4997 -136.354C111.651 -122.952 117.706 -110.972 132.296 -78.9446C146.887 -46.9167 145.404 -42.7361 183.425 -25.8256C203.545 -16.8793 240.269 -1.35034 283.821 4.1448C317.94 8.45004 355.999 4.09178 378.861 -0.229182C397.418 -3.73608 385.138 0.989384 400.642 -1.49168C470.965 -12.7407 572.262 -57.5457 572.262 -57.5457C572.262 -57.5457 560.431 -76.515 522.317 -72.942C484.203 -69.3691 450.457 -38.2283 394.485 -27.8589C338.512 -17.4882 277.574 -27.8223 277.574 -27.8223C277.574 -27.8223 168.83 -59.893 156.883 -87.9064C144.937 -115.917 126.793 -146.41 101.212 -162.488C75.6318 -178.565 61.2417 -171.413 59.687 -163.656Z" fill="#02AE9E"/>
<mask id="mask2_1394_8581" style="mask-type:alpha" maskUnits="userSpaceOnUse" x="87" y="220" width="272" height="449">
<path fill-rule="evenodd" clip-rule="evenodd" d="M87.5156 221.119L357.077 220.525L358.06 667.517L88.4981 668.11L87.5156 221.119Z" fill="white"/>
</mask>
<g mask="url(#mask2_1394_8581)">
<path fill-rule="evenodd" clip-rule="evenodd" d="M182.745 599.655C195.388 583.056 220.789 568.483 240.716 560.549C253.847 555.32 260.374 549.385 260.374 549.385L269.421 540.124C269.421 540.124 280.531 530.907 292.967 516.15C312.555 492.906 332.147 452.762 323.821 417.513C310.858 362.632 285.512 293.453 285.512 293.453L357.132 245.439L294.318 220.664C294.318 220.664 229.434 239.623 229.505 271.696C229.607 317.966 232.427 330.714 274.65 376.019C294.15 396.94 307.192 418.517 306.05 441.198C304.719 467.632 285.246 495.492 251.636 524.43C238.377 535.847 230.944 538.674 222.608 544.796C206.148 556.885 190.804 558.247 165.096 585.974C126.197 627.925 88.5567 694.801 88.5567 694.801L185.394 699.304L182.745 599.655Z" fill="#02AE9E"/>
</g>
<path fill-rule="evenodd" clip-rule="evenodd" d="M48.0644 175.418L75.3698 182.254L141.469 196.175L122.825 224.07L39.1493 211.372L43.1092 179.334L48.0644 175.418Z" fill="#02AE9E"/>
<path fill-rule="evenodd" clip-rule="evenodd" d="M287.31 101.389L287.365 126.693L462.044 75.7615L468.096 -4.42225L373.607 35.9299L297.911 48.0208L288.081 91.6614L287.31 101.389Z" fill="#02AE9E"/>
<path fill-rule="evenodd" clip-rule="evenodd" d="M323.816 417.519C323.816 417.519 352.937 389.976 387.404 379.87C421.869 369.762 409.403 330.973 362.527 327.151C339.088 325.24 337.186 314.284 346.564 306.687C355.943 299.088 376.605 294.845 398.698 288.253C442.885 275.071 514.867 251.797 514.867 251.797C514.867 251.797 470.224 241.427 440.611 246.727C410.999 252.026 380.308 246.167 339.797 245.483L258.062 274.17C258.062 274.17 245.706 295.621 265.678 330.033C288.132 368.721 312.667 374.364 323.816 417.519Z" fill="#35E1D1"/>
<path fill-rule="evenodd" clip-rule="evenodd" d="M287.179 40.7681L287.312 101.392C287.312 101.392 293.982 68.6051 336.29 55.0527C383.267 40.0047 446.04 31.5653 461.875 -1.95735L287.179 40.7681Z" fill="#35E1D1"/>
<path fill-rule="evenodd" clip-rule="evenodd" d="M145.276 53.5087C145.276 53.5087 211.989 30.0281 272.097 18.1196C272.097 18.1196 252.285 -18.5083 190.247 -5.25335C140.749 5.32399 145.276 53.5087 145.276 53.5087Z" fill="#35E1D1"/>
<path fill-rule="evenodd" clip-rule="evenodd" d="M-209.48 102.485L40.3925 173.495C40.3925 173.495 60.3526 92.2883 -9.36043 50.4436C-9.36043 50.4436 -38.3083 79.201 -105.642 66.1953C-105.642 66.1953 -173.906 57.5223 -209.48 102.485Z" fill="#35E1D1"/>
<path fill-rule="evenodd" clip-rule="evenodd" d="M138.329 121.254C153.886 115.787 171.439 111.627 187.528 117.688C210.788 126.447 213.443 143.77 213.468 155.063C213.492 166.355 244.832 149.405 251.664 160.682L260.376 182.638C260.376 182.638 212.129 202.958 189.843 210.914C189.697 217.817 177.426 218.582 174.014 218.44C159.21 217.82 138.174 202.59 152.963 180.231C154.007 178.654 157.139 179.633 163.488 173.225C169.757 142.779 122.773 126.72 138.329 121.254Z" fill="#35E1D1"/>
<path fill-rule="evenodd" clip-rule="evenodd" d="M229.51 271.703L229.398 220.812L189.85 210.913C189.85 210.913 180.698 215.782 168.913 213.015C158.689 210.615 154.682 202.108 154.682 202.108L132.946 196.666C132.946 196.666 128.079 213.911 113.013 209.7C97.9468 205.491 104.126 189.451 104.126 189.451L75.3723 182.253C75.3723 182.253 70.895 200.397 55.2138 196.187C39.5338 191.979 48.0681 175.417 48.0681 175.417L40.3942 173.495C40.3942 173.495 35.4815 197.893 20.558 226.271C11.5704 243.362 -9.47203 264.53 -9.47203 264.53L4.0497 281.089L172.593 283.631C172.593 283.631 191.136 271.787 229.51 271.703Z" fill="#01574F"/>
<path fill-rule="evenodd" clip-rule="evenodd" d="M122.702 72.0824C122.702 72.0824 111.822 27.5309 151.185 -3.72697C160.946 -11.4761 174.745 -20.9966 195.298 -20.6702C195.298 -20.6702 149.891 -37.5746 132.305 -78.948C132.305 -78.948 86.9095 -74.0142 55.1495 -37.6468C29.6387 -8.43471 23.9064 4.76001 17.8395 15.3259C29.4378 21.5249 122.702 72.0824 122.702 72.0824Z" fill="#01574F"/>
<path fill-rule="evenodd" clip-rule="evenodd" d="M73.3587 -377.905C73.3587 -377.905 102.904 -332.831 20.6449 -283.587C18.8179 -282.495 14.0754 -279.614 12.2678 -278.519C-71.5578 -271.177 -125.526 -179.866 -73.2484 -36.0054L-26.1037 27.2113C-26.1037 27.2113 -57.4953 -39.2098 -55.4241 -132.959C-53.3528 -226.707 -17.6865 -162.224 -17.6865 -162.224L6.16651 -171.691C6.16651 -171.691 -21.3445 -185.448 -10.5139 -217.569C-3.71204 -237.74 36.9325 -254.435 70.913 -283.697C104.422 -312.555 111.243 -340.373 110.527 -364.739L150.317 -364.827C150.317 -364.827 156.852 -408.666 197.222 -447.763L158.082 -452.842L143.144 -441.539L73.3587 -377.905Z" fill="#01574F"/>
<path fill-rule="evenodd" clip-rule="evenodd" d="M-20.1332 311.497C-13.4004 307.606 -0.481771 314.833 13.686 323.742C34.8897 337.081 45.1835 351.142 45.1835 351.142C45.1835 351.142 25.0993 335.845 -1.62836 350.986C-10.1519 350.083 -13.0366 349.424 -17.9639 347.756C-28.3458 344.243 -27.7213 332.113 -25.793 323.509C-24.6365 318.348 -26.866 315.389 -20.1332 311.497Z" fill="#01574F"/>
<path fill-rule="evenodd" clip-rule="evenodd" d="M64.4259 127.227C72.6238 126.676 83.7473 131.229 86.5284 138.362C88.2132 142.681 94.3686 140.57 96.754 145.532C104.259 161.14 88.2828 159.003 82.641 168.054C78.2869 175.04 65.4421 177.276 55.8582 172.796C49.0697 169.621 42.1538 162.665 43.0248 148.393C43.8233 135.28 52.8894 128.001 64.4259 127.227Z" fill="#01574F"/>
<path fill-rule="evenodd" clip-rule="evenodd" d="M229.385 220.81L580.79 90.8241L580.931 154.935C580.963 169.515 604.087 182.259 629.286 172.195C650.987 163.53 674.047 135.773 687.317 103.142C687.317 103.142 701.93 104.789 717.887 79.1866C732.581 55.6124 745.324 60.0299 745.324 60.0299C745.324 60.0299 740.123 74.3332 742.113 89.5901C743.955 103.711 752.476 118.647 764.503 123.883C766.614 124.802 773.14 124.573 770.486 115.117C768.558 108.248 765.939 100.63 764.001 89.6082C763.016 84.0078 765.61 78.5604 767.3 74.6195C770.323 67.571 776.179 68.9858 776.952 76.7846C778.786 95.306 783.323 126.434 793.052 125.636C806.878 124.505 794.762 79.3136 798.655 64.0489C798.655 64.0489 808.376 54.8772 817.641 49.2823C821.753 46.7995 826.041 50.6353 822.151 57.318C815.413 68.8904 807.201 86.2156 812.624 94.5099C821.178 107.593 877.762 30.8785 864.326 -34.1071C864.326 -34.1071 873.07 -25.4282 902.942 -23.821L903.247 115.058L871.295 135.716C871.295 135.716 827.306 128.734 784.133 134.759C740.968 140.783 727.913 145.021 720.199 148.847C684.432 166.581 685.147 193.659 685.147 193.659C685.147 193.659 559.22 234.641 514.863 251.796L514.71 182.099L339.795 245.482C339.795 245.482 315.773 231.258 287.61 241.067C263.607 249.427 258.059 274.168 258.059 274.168L229.497 271.701L229.385 220.81Z" fill="#012C28"/>
<path fill-rule="evenodd" clip-rule="evenodd" d="M172.591 283.628C142.465 297.22 141.75 327.631 141.75 327.631C141.75 327.631 89.2783 315.428 65.3625 347.574L4.04688 281.086L172.591 283.628Z" fill="#012C28"/>
<path fill-rule="evenodd" clip-rule="evenodd" d="M86.8563 139.563C86.8563 139.563 64.9851 72.8824 179.671 39.8737C294.357 6.86377 390.692 0.87654 439.539 -19.6913C504.034 -46.8463 528.082 -58.4787 560.505 -53.0318C572.277 -47.4156 578.359 -47.1059 578.359 -47.1059L578.42 -19.0816C578.42 -19.0816 556.163 -31.6298 519.112 -23.5382C502.609 -19.9337 471.751 -5.94418 448.973 3.44279C394.651 25.8323 323.357 29.5869 205.877 63.1867C105.307 91.9525 119.896 125.899 119.896 125.899L138.325 121.251C138.325 121.251 172.295 144.34 163.483 173.222C149.411 191.298 154.67 202.106 154.67 202.106L75.3615 182.251C75.3615 182.251 76.7307 175.534 82.6361 168.054C91.3354 157.037 86.8563 139.563 86.8563 139.563Z" fill="#012C28"/>
<path fill-rule="evenodd" clip-rule="evenodd" d="M251.67 160.681C251.67 160.681 268.463 151.902 281.618 155.185C286.551 156.417 289.953 158.693 291.467 161.372C293.992 165.841 291.274 171.43 281.662 175.173C266.281 181.163 260.382 182.637 260.382 182.637L251.67 160.681Z" fill="#012C28"/>
</g>
</svg>