<svg xmlns="http://www.w3.org/2000/svg" width="259" height="356" viewBox="0 0 259 356" fill="none">
<mask id="mask0_1387_11405" style="mask-type:alpha" maskUnits="userSpaceOnUse" x="2" y="64" width="257" height="280">
<path fill-rule="evenodd" clip-rule="evenodd" d="M55.0376 307.487C89.2557 338.772 111.437 340.634 137.812 343.227C169.799 343.211 211.5 325.769 239.111 271.921C266.722 218.073 264.192 156.527 236.713 122.039C209.233 87.551 166.026 49.1627 104.197 71.726C42.3679 94.2893 1.6722 174.071 2.7768 205.966C3.8814 237.86 20.8194 276.202 55.0376 307.487Z" fill="#D8D8D8"/>
</mask>
<g mask="url(#mask0_1387_11405)">
<path fill-rule="evenodd" clip-rule="evenodd" d="M-618.259 676.813L1007.98 595.972L950.955 -553.527L-675.281 -472.686L-618.259 676.813Z" fill="#8B0F40"/>
<path fill-rule="evenodd" clip-rule="evenodd" d="M256.678 166.868L226.023 151.544L182.612 163.703C182.612 163.703 190.388 213.543 190.777 213.523C191.166 213.504 246.182 209.659 246.182 209.659L256.678 166.868Z" fill="#F1EDDF"/>
<path fill-rule="evenodd" clip-rule="evenodd" d="M249.129 159.989L255.218 167.698L270.839 170.225C270.839 170.225 297.358 159.799 312.608 135.805C327.858 111.811 359.608 83.1344 403.06 80.6343C446.514 78.1331 479.901 26.9672 479.901 26.9672C479.901 26.9672 455.438 35.4649 450.758 18.3619C446.081 1.2608 441.631 -20.85 421.563 -19.9678C413.095 -19.5949 407.223 -11.5945 404.451 -3.48169C400.578 7.85948 398.046 21.0956 378.441 22.7339C364.607 23.8893 360.123 23.6741 341.977 30.1046C323.831 36.536 295.937 36.1122 295.937 36.1122L257.282 101.764L249.129 159.989Z" fill="#F1EDDF"/>
<path fill-rule="evenodd" clip-rule="evenodd" d="M291.213 191.176L292.681 220.768L225.041 330.42L224.674 330.523L224.696 330.979L223.955 332.18L188.841 355.608L144.904 385.019L196.324 256.564L291.213 191.176Z" fill="#F1EDDF"/>
<path fill-rule="evenodd" clip-rule="evenodd" d="M-120.46 166.086L-117.729 181.824L-65.6319 201.083L-26.056 199.116L13.3975 238.423L104.373 122.933L133.147 146.875L164.164 70.8422C164.164 70.8422 164.663 60.3049 154.654 50.3788C147.691 43.475 128.591 40.535 128.591 40.535C128.591 40.535 143.812 25.5918 152.178 8.96452C159.752 -6.09171 164.101 -22.0813 162.833 -32.2101C158.497 -66.8456 105.847 -97.3077 105.847 -97.3077L92.525 -84.6595C92.525 -84.6595 41.0834 -3.23247 45.8349 48.8059C45.8349 48.8059 17.626 32.2251 -16.4527 53.3042C-50.5303 74.3844 -28.0178 65.4393 -34.5455 79.402C-48.665 109.608 -22.081 144.879 -39.2644 164.725C-47.9461 174.753 -64.853 177.632 -77.8274 175.215C-92.9869 172.393 -103.7 163.226 -103.7 163.226L-101.795 134.404L-120.46 166.086Z" fill="#5D0A2B"/>
<path fill-rule="evenodd" clip-rule="evenodd" d="M208.32 129.623C207.752 118.181 195.127 117.158 190.903 122.194C185.326 128.842 188.931 139.274 197.533 141.206C206.136 143.138 212.865 139.69 212.865 139.69L208.32 129.623Z" fill="#F076A6"/>
<path fill-rule="evenodd" clip-rule="evenodd" d="M243.284 160.277L238.31 179.265L259.716 182.09L253.723 159.758L243.284 160.277Z" fill="#FFD0C9"/>
<path fill-rule="evenodd" clip-rule="evenodd" d="M250.79 391.665C250.79 391.665 294.326 411.118 331.035 384.663C356.815 366.083 358.689 363.742 377.952 339.69C397.215 315.639 348.119 294.129 348.119 294.129L328.375 297.606L256.745 388.123L250.79 391.665Z" fill="#FFD0C9"/>
<path fill-rule="evenodd" clip-rule="evenodd" d="M128.344 299.498C110.954 300.974 109.148 311.965 114.232 318.208C119.313 324.45 148.579 347.122 148.579 347.122L166.388 335.479L173.136 307.108L155.107 295.529L128.344 299.498Z" fill="#E61A6B"/>
<path fill-rule="evenodd" clip-rule="evenodd" d="M52.5193 585.465L8.89817 536.275C8.89817 536.275 29.4488 525.183 28.3915 514.158C27.3342 503.133 15.7486 495.989 -3.14741 499.279C-22.0436 502.567 -52.3591 502.06 -49.0529 458.93C-45.7477 415.798 -10.4854 378.799 44.2277 342.848L154.13 458.899C154.13 458.899 139.889 473.705 151.85 495.265C151.85 495.265 106.23 488.134 82.3221 527.589C58.4128 567.046 52.5193 585.465 52.5193 585.465Z" fill="#E61A6B"/>
<path fill-rule="evenodd" clip-rule="evenodd" d="M257.441 387.302C257.441 387.302 254.389 405.099 238.215 419.665C220.544 435.579 184.614 445.385 173.061 449.569L224.673 330.523C224.673 330.523 235.354 374.301 257.441 387.302Z" fill="#E61A6B"/>
<path fill-rule="evenodd" clip-rule="evenodd" d="M340.031 -9.02513L341.972 30.101C341.972 30.101 319.947 38.5297 312.513 63.4697C307.741 79.4782 290.375 65.9109 285.798 77.9979C282.895 85.6638 288.355 94.8082 288.139 101.251C287.682 114.815 279.172 111.398 265.896 121.44C262.584 123.945 257.444 129.206 255.89 135.147C252.29 148.918 255.399 166.927 255.399 166.927C255.399 166.927 254.458 147.955 232.828 138.294C232.828 138.294 224.715 81.3315 264.713 47.44C304.71 13.5485 340.031 -9.02513 340.031 -9.02513Z" fill="#F076A6"/>
<path fill-rule="evenodd" clip-rule="evenodd" d="M164.164 70.8489C164.164 70.8489 164.342 83.9156 158.782 112.836C156.013 127.239 159.481 140.6 170.208 148.773C181.333 157.251 197.187 159.703 197.187 159.703C197.187 159.703 187.162 177.073 198.614 188.468C204.211 194.037 208.025 199.035 210.127 202.677C212.327 206.487 218.784 208.417 218.924 211.233C219.197 216.741 213.163 221.7 223.311 219.354L235.133 243.519L211.809 260.97L172.348 258.291L167.414 249.225C167.414 249.225 188.397 239.592 170.548 205.814C170.548 205.814 174.185 198.099 156.813 172.875C154.856 170.032 146.488 170.931 143.962 167.631C142.783 166.091 141.978 163.034 140.934 161.66C119.891 133.943 131.345 136.594 131.345 136.594C131.345 136.594 128.521 123.543 164.164 70.8489Z" fill="#FFD0C9"/>
<path fill-rule="evenodd" clip-rule="evenodd" d="M9.29125 263.758C5.62189 267.999 -16.4424 263.122 -33.5924 252.779C-52.1779 241.57 -65.5718 224.182 -59.1893 211.469C-53.1384 199.416 -28.528 204.317 -13.9449 220.736C1.39711 238.01 14.3188 257.946 9.29125 263.758ZM74.3122 266.797C56.4777 250.874 42.721 265.86 14.412 233.649C3.43726 221.161 -7.49103 207.499 -15.9512 201.04C-29.3109 190.84 -43.6547 192.414 -66.2607 192.002C-103.182 191.33 -120.459 166.098 -120.459 166.098L-118.847 198.634C-65.3309 200.486 -84.957 220.279 -61.112 249.7C-37.2671 279.121 -0.140976 278.78 24.1161 280.583C48.3721 282.387 65.8714 281.266 58.6915 290.404C51.5126 299.543 28.1613 326.294 28.1613 326.294L44.2231 342.842L77.5907 307.275C77.5907 307.275 94.9058 285.182 74.3122 266.797Z" fill="#E61A6B"/>
<path fill-rule="evenodd" clip-rule="evenodd" d="M224.679 330.522L188.846 355.607C188.846 355.607 170.233 397.119 123.999 427.085L154.13 458.901C154.13 458.901 157.404 453.958 173.066 449.568L224.679 330.522Z" fill="#F076A6"/>
<path fill-rule="evenodd" clip-rule="evenodd" d="M77.5891 307.281L150.323 382.215C150.323 382.215 142.757 401.217 113.483 415.98L44.2248 342.848L77.5891 307.281Z" fill="#F076A6"/>
<path fill-rule="evenodd" clip-rule="evenodd" d="M89.5805 131.879L121.008 137.618C121.008 137.618 126.219 161.192 101.174 186.355C101.174 186.355 103.553 199.666 98.916 204.719C93.3086 210.832 75.1153 215.934 61.9894 203.495C48.8645 191.055 44.8027 191.509 50.4413 181.662C53.5834 176.171 59.0302 170.724 65.5105 166.47C70.6533 163.095 79.6482 160.32 83.6264 155.944C94.0351 144.498 89.5805 131.879 89.5805 131.879Z" fill="#E61A6B"/>
<path fill-rule="evenodd" clip-rule="evenodd" d="M144.703 277.822L167.877 310.087L199.325 265.408L178.055 254.617C178.055 254.617 191.528 255.08 191.965 251.27C192.658 245.213 170.415 245.044 145.851 253.962C130.695 259.467 144.703 277.822 144.703 277.822Z" fill="#E61A6B"/>
<path fill-rule="evenodd" clip-rule="evenodd" d="M235.131 243.516L291.648 199.977C291.648 199.977 283.28 167.971 255.049 164.482C255.049 164.482 254.336 176.905 247.021 177.269C239.706 177.633 240.856 169.54 240.856 169.54C240.856 169.54 238.579 176.279 228.629 176.583C231.524 182.757 226.642 192.012 226.642 192.012C226.642 192.012 223.635 208.522 223.309 219.352L235.131 243.516Z" fill="#F076A6"/>
<path fill-rule="evenodd" clip-rule="evenodd" d="M197.189 159.7L255.053 164.483C255.053 164.483 251.939 145.049 232.481 134.851C225.787 131.341 220.702 130.258 208.32 129.623C208.565 134.554 206.159 142.262 196.833 141.024C195.349 144.788 193.365 153.028 197.189 159.7Z" fill="#E61A6B"/>
<path fill-rule="evenodd" clip-rule="evenodd" d="M291.649 199.976C291.649 199.976 292.436 165.534 312.601 135.802C312.601 135.802 301.568 142.168 288.863 143.803C274.106 145.705 257.236 144.135 255.051 164.481C255.051 164.481 281.43 167.304 291.649 199.976Z" fill="#5D0A2B"/>
<path fill-rule="evenodd" clip-rule="evenodd" d="M224.678 330.523C224.678 330.523 255.35 340.577 282.836 307.471C310.323 274.365 291.653 199.977 291.653 199.977L224.678 330.523Z" fill="#5D0A2B"/>
<path fill-rule="evenodd" clip-rule="evenodd" d="M-140.155 -121.867L-160.83 -123.5C-160.83 -123.5 -176.889 -114.702 -203.281 -97.1276C-227.361 -81.0915 -262.212 -63.0843 -253.005 -31.3561C-244.014 -0.377899 -191.895 -6.40994 -152.971 -26.3688C-114.046 -46.3267 -86.5847 -31.8337 -105.417 -1.35637C-124.25 29.12 -122.078 58.9178 -82.0048 66.3977C-42.7557 73.7245 -16.4578 53.3058 -16.4578 53.3058L12.1862 18.4043L-2.25525 17.7212C-2.25525 17.7212 -9.52072 24.3245 -31.5555 26.39C-31.5555 26.39 -33.0798 35.4424 -42.7693 37.2812C-53.4752 39.3124 -57.5101 25.4082 -57.5101 25.4082C-57.5101 25.4082 -62.1496 29.1596 -70.408 32.1107C-79.0051 35.1818 -86.8637 34.6923 -86.8637 34.6923C-86.8637 34.6923 -87.9554 36.0822 -88.8195 37.7793C-89.6827 39.4765 -90.5201 42.1087 -85.8785 43.4709C-81.9187 44.6332 -78.7267 46.0542 -80.0421 49.9049C-82.3523 56.6591 -97.4433 53.4831 -99.6689 45.7678C-101.895 38.0525 -98.0449 30.2517 -98.0449 30.2517C-98.0449 30.2517 -102.18 27.4449 -96.2215 17.0038C-96.2215 17.0038 -106.364 3.52577 -93.4783 -14.6231C-83.1401 -29.1826 -80.3539 -29.6162 -80.3539 -29.6162C-80.3539 -29.6162 -86.286 -30.3833 -86.9645 -38.4246C-87.4591 -44.2838 -84.7167 -47.5856 -80.4594 -48.9623C-81.8051 -55.0314 -93.3779 -70.7451 -118.242 -67.1135C-155.68 -61.6458 -164.464 -37.4486 -198.317 -40.3516C-209.522 -41.313 -215.302 -49.3346 -216.313 -54.6268C-217.616 -61.4495 -214.153 -73.7282 -198.09 -77.9587C-171.651 -84.9229 -138.794 -94.4251 -140.155 -121.867Z" fill="#5D0A2B"/>
<path fill-rule="evenodd" clip-rule="evenodd" d="M14.3654 216.347C15.919 209.304 19.3343 202.789 22.6982 196.447C28.4054 185.687 34.5884 174.938 37.9148 163.186C41.6695 149.924 41.6287 134.429 49.0515 122.524C60.9221 103.48 84.8001 100.711 95.3401 101.802C104.69 102.77 123.845 107.326 133.266 126.638C137.341 134.992 138.164 147.265 143.828 156.451C151.179 168.373 159.621 169.275 165.872 177.067C170.786 183.195 173.047 194.913 170.555 205.81C170.555 205.81 146.562 170.897 101.176 186.354C101.176 186.354 118.552 174.239 112.724 141.407L89.5826 131.878C89.5826 131.878 96.2655 152.475 75.3682 161.402C54.4689 170.329 83.9068 192.797 61.9915 203.493C40.0774 214.19 33.1704 226.123 32.0064 249.428C26.6101 246.024 20.7978 240.889 15.6607 235.05C12.1287 231.033 13.6301 219.683 14.3654 216.347Z" fill="#F076A6"/>
<path fill-rule="evenodd" clip-rule="evenodd" d="M211.807 260.97L150.319 382.222L102.842 333.31C102.842 333.31 110.117 323.405 114.231 318.214C118.828 322.972 126.444 326.462 137.469 327.82C143.745 328.593 156.298 341.56 159.74 335.815C162.417 331.35 153.557 323.953 147.196 319.267C148.956 316.767 160.682 327.802 163.556 325.099C166.43 322.396 161.221 312.114 153.91 310.785C160.005 309.552 161.51 306.432 159.355 304.097C157.706 302.309 153.218 301.072 151.158 300.942C141.654 300.344 128.343 299.503 128.343 299.503L144.696 277.826C144.696 277.826 158.062 296.719 164.146 293.795C170.23 290.874 156.305 281.154 158.812 278.171C161.322 275.188 170.746 270.098 171.639 276.95C172.757 285.527 181.077 288.212 182.774 278.599C184.471 268.987 186.042 258.613 178.049 254.622L211.807 260.97Z" fill="#5D0A2B"/>
<path fill-rule="evenodd" clip-rule="evenodd" d="M220.909 203.492C220.909 203.492 216.282 198.801 210.128 202.672C210.128 202.672 213.454 209.439 213.464 216.509C213.472 223.579 221.827 222.551 223.311 219.349C225.177 221.746 231.233 219.794 230.776 210.324C230.32 200.855 234.162 195.451 226.643 192.01C226.643 192.01 219.896 196.519 220.909 203.492Z" fill="#5D0A2B"/>
<path fill-rule="evenodd" clip-rule="evenodd" d="M208.321 129.62C208.321 129.62 215.905 123.521 222.665 111.772C231.429 96.5399 241.009 73.4569 253.605 58.8362C253.605 58.8362 230.767 90.9495 232.482 134.848C232.482 134.848 225.586 130.983 208.321 129.62Z" fill="#5D0A2B"/>
<path fill-rule="evenodd" clip-rule="evenodd" d="M-54.5528 221.502C-63.1903 226.997 -67.669 238.165 -65.1762 247.99C-64.0771 252.323 -61.7872 256.304 -60.8232 260.669C-59.8602 265.034 -60.6289 270.284 -64.3817 272.792C-66.0942 273.938 -68.1847 274.353 -70.1308 275.049C-80.6494 278.812 -86.1695 292.403 -81.1877 302.271C-78.3667 307.86 -72.7134 312.648 -73.1653 318.879C-73.5904 324.73 -80.209 326.947 -84.7084 330.79C-87.2353 332.947 -91.9789 336.918 -90.6784 344.142C-90.037 347.7 -85.1505 351.452 -83.4938 351.643C-71.1263 353.073 -44.9035 361.674 -60.303 383.377C-65.2411 390.335 -64.2306 397.307 -62.7105 405.66C-26.8725 394.393 -15.4147 391.113 -15.4147 391.113C-15.4147 391.113 -24.4136 383.666 -23.9014 375.605C-23.251 365.361 -14.2101 357.898 -6.18367 351.356C1.84275 344.814 10.2858 336.193 9.06483 326.002C7.53013 313.18 -8.91209 304.16 -6.49902 291.465C-5.28399 285.069 0.712745 279.917 0.500095 273.418C0.307234 267.568 -4.87718 263.133 -10.063 260.296C-15.2488 257.462 -21.104 255.24 -24.6966 250.587C-31.7547 241.439 -22.3044 228.329 -27.4305 221.645C-32.7394 214.721 -48.5731 217.698 -54.5528 221.502Z" fill="#F076A6"/>
</g>
</svg>