<svg xmlns="http://www.w3.org/2000/svg" width="338" height="336" viewBox="0 0 338 336" fill="none">
<path fill-rule="evenodd" clip-rule="evenodd" d="M186.43 22.7138C124.54 13.5215 73.8862 41.8845 44.0116 93.5921C9.68938 152.998 5.49897 231.406 56.6583 280.074C108.05 328.963 170.302 304.828 233.054 272.007C288.319 243.101 327.204 204.442 316.811 144.726C306.334 84.5272 249.845 32.1323 186.43 22.7138Z" fill="#FFDCD7"/>
<mask id="mask0_1054_1029" style="mask-type:alpha" maskUnits="userSpaceOnUse" x="18" y="21" width="301" height="287">
<path fill-rule="evenodd" clip-rule="evenodd" d="M186.43 22.7138C124.54 13.5215 73.8862 41.8845 44.0116 93.5921C9.68938 152.998 5.49897 231.406 56.6583 280.074C108.05 328.963 170.302 304.828 233.054 272.007C288.319 243.101 327.204 204.442 316.811 144.726C306.334 84.5272 249.845 32.1323 186.43 22.7138Z" fill="#FFDCD7"/>
</mask>
<g mask="url(#mask0_1054_1029)">
<path fill-rule="evenodd" clip-rule="evenodd" d="M74.416 479.041C124.627 513.469 181.577 509.477 230.619 475.767C286.961 437.038 325.277 368.526 301.916 303.252C278.45 237.682 213.198 232.977 143.669 235.846C82.4365 238.372 31.258 256.573 13.9888 314.5C-3.42006 372.896 22.9684 443.766 74.416 479.041Z" fill="#423D89"/>
<path fill-rule="evenodd" clip-rule="evenodd" d="M184.342 198.725C234.553 233.152 340.864 263.616 389.906 229.906C446.249 191.178 435.203 88.2094 411.842 22.9359C388.376 -42.6341 323.123 -47.3396 253.595 -44.4707C192.362 -41.9441 141.184 -23.7435 123.915 34.1836C106.506 92.5795 132.894 163.449 184.342 198.725Z" fill="#FFE7E4"/>
</g>
<path d="M162.906 69.4062V231.406" stroke="#534DAC" stroke-width="11" stroke-linecap="round"/>
<path d="M117.906 233.906H209.406" stroke="#534DAC" stroke-width="12" stroke-linecap="round"/>
<path d="M92.9062 107.906L62.9062 162.906H123.406L92.9062 107.906Z" stroke="#9591CE" stroke-width="5" stroke-linecap="round"/>
<path d="M203.906 163.906L233.906 108.906L264.406 163.906" stroke="#9591CE" stroke-width="5" stroke-linecap="round"/>
<circle cx="162.906" cy="89.4062" r="11" fill="#534DAC"/>
<path d="M181.906 230.906C181.906 237.258 173.624 236.406 163.406 236.406C153.189 236.406 144.906 237.258 144.906 230.906C144.906 224.555 153.189 219.406 163.406 219.406C173.624 219.406 181.906 224.555 181.906 230.906Z" fill="#534DAC"/>
<path d="M58.9062 161.406H127.906V172.406C127.906 186.213 116.713 197.406 102.906 197.406H83.9062C70.0991 197.406 58.9062 186.213 58.9062 172.406V161.406Z" fill="#534DAC"/>
<path d="M199.906 163.406C199.906 162.854 200.354 162.406 200.906 162.406H267.906C268.459 162.406 268.906 162.854 268.906 163.406V173.406C268.906 187.213 257.713 198.406 243.906 198.406H224.906C211.099 198.406 199.906 187.213 199.906 173.406V163.406Z" fill="#534DAC"/>
<path d="M80.9062 107.407C104.573 98.0739 170.606 85.0073 245.406 107.407" stroke="#534DAC" stroke-width="11" stroke-linecap="round"/>
<path d="M236.906 146.903C222.154 143.402 203.906 162.405 203.906 162.405H264.906C264.906 162.405 251.658 150.405 236.906 146.903Z" fill="#9591CE"/>
<path d="M84.9062 145.909C66.4062 149.91 60.9062 161.402 60.9062 161.402H121.906C121.906 161.402 103.406 141.907 84.9062 145.909Z" fill="#9591CE"/>
</svg>