<svg xmlns="http://www.w3.org/2000/svg" width="236" height="331" viewBox="0 0 236 331" fill="none">
<mask id="mask0_1394_4493" style="mask-type:alpha" maskUnits="userSpaceOnUse" x="0" y="0" width="236" height="331">
<path d="M236 160.945C236 276.666 208.267 331 128.781 331C49.2949 331 0.175781 271.078 0.175781 200.972C0.175781 85.2504 64.6119 0 144.098 0C223.584 0 236 45.2236 236 160.945Z" fill="#CDF8F4"/>
</mask>
<g mask="url(#mask0_1394_4493)">
<path d="M237.194 139.208C237.194 239.3 215.104 286.296 138.162 286.296C61.2206 286.296 8.91797 281.326 8.91797 181.233C8.91797 81.1409 71.2916 0 148.233 0C225.175 0 237.194 39.1158 237.194 139.208Z" fill="#CDF8F4"/>
<path d="M284.752 122.491C284.752 168.814 267.026 189.883 246.997 193.287C212.29 199.186 195.344 169.722 195.344 123.399C195.344 77.0756 220.198 58.9727 250.137 58.9727C280.075 58.9727 284.752 76.1681 284.752 122.491Z" fill="#03DAC6"/>
<path d="M69.7909 143.457C69.7909 205.764 52.0651 234.103 32.0362 238.681C-2.67057 246.616 -19.6172 206.985 -19.6172 144.677C-19.6172 82.3693 5.23718 58.0195 35.1757 58.0195C65.1143 58.0195 69.7909 81.1486 69.7909 143.457Z" fill="#736EBE"/>
<path fill-rule="evenodd" clip-rule="evenodd" d="M150.168 126.466C143.418 119.72 121.806 123.756 114.352 122.41C104.893 120.7 101.535 118.126 98.8603 115.178C95.3373 111.295 94.3405 106.762 95.5063 102.685C97.3066 96.3913 110.679 95.5285 116.253 94.0698C120.562 92.942 123.915 88.9158 124.886 84.8286C126.223 79.1985 120.983 74.1642 115.873 70.9392C110.761 67.7141 104.769 64.4136 103.378 58.7937C102.442 55.0171 104.097 50.7905 107.42 48.4741C109.476 47.0401 112.015 46.3361 114.143 44.9979C120.294 41.1299 121.547 33.1978 121.064 26.7963C120.61 20.7838 123.794 13.5586 131.227 12.5252C138.47 11.5187 145.974 15.2379 147.731 22.7432C149.429 29.9996 145.974 36.0419 150.605 39.0311C153.885 41.1466 157.971 34.9359 168.173 33.5447C174.752 32.6485 182.721 35.5092 185.969 40.9361C188.477 45.1256 188.237 50.4139 186.279 54.8516C184.321 59.2893 180.937 63.108 177.013 66.2032C160.507 79.2261 165.938 87.8925 171.527 88.6393C176.957 89.365 183.186 86.8468 188.615 90.1509C197.247 95.4044 199.476 103.881 191.664 113.784C188.607 117.659 184.401 120.617 181.094 124.307C180.004 125.524 179.005 126.808 178.088 128.141C198.136 140.845 214.358 159.576 213.629 187.134C212.227 240.124 168.173 181.252 168.173 181.252C168.173 181.252 132.952 212.155 147.731 187.134C147.731 187.134 111.42 171.515 131.227 171.951C142.784 172.206 87.9856 169.949 95.5063 154.817C108.931 127.806 169.834 143.594 150.168 126.466Z" fill="#9591CE"/>
<path fill-rule="evenodd" clip-rule="evenodd" d="M256.441 23.2656C248.908 23.269 244.293 24.4817 237.857 28.272C225.109 35.7792 214.317 45.2715 221.027 61.4786C222.377 64.7381 225.778 76.0935 212.479 82.4564C209.019 84.1113 204.016 87.6116 202.748 91.6409C201.361 96.0461 203.993 101.042 206.945 103.949C210.951 107.893 218.222 108.629 223.586 110.194C228.697 111.685 228.315 119.379 223.586 121.448C218.513 123.668 215.341 120.481 210.51 125.939C207.351 129.511 207.892 137.688 210.139 143.344C214.75 154.951 223.586 158.6 231.001 160.723C249.638 155.644 276.004 164.113 285.669 163.911C286.977 150.986 289.387 140.91 295.798 129.485C299.36 123.137 311.724 107.094 313.507 100.937C315.154 95.2514 313.817 89.1483 309.324 86.2675C305.407 83.7559 298.922 84.598 293.896 87.1169C290.126 89.0068 286.723 91.6672 282.941 93.4498C281.679 94.0438 280.377 94.5407 279.005 94.8793C276.151 95.5827 272.834 95.4492 270.627 93.5724C267.556 90.9623 267.937 86.0486 270.141 82.7242C272.344 79.4004 275.881 77.1603 278.994 74.5991C292.411 63.5604 292.477 46.5025 284.075 35.7389C277.863 27.7809 268.348 23.2603 256.441 23.2656Z" fill="#68E9DD"/>
<path d="M281.308 254.96C275.736 316.731 209.724 339.099 137.588 337.168C12.5887 333.823 -44.5555 289.06 -38.9837 227.289C-33.4118 165.519 57.7725 149.408 164.987 159.078C272.201 168.749 286.88 193.19 281.308 254.96Z" fill="#02AE9E"/>
<path d="M184.876 291.328C184.876 296.316 182.944 298.658 176.211 298.658C169.479 298.658 164.902 298.41 164.902 293.422C164.902 288.434 170.36 284.391 177.092 284.391C183.825 284.391 184.876 286.34 184.876 291.328Z" fill="#028377"/>
<path d="M137.613 308.298C136.327 313.099 129.237 314.639 123.452 313.089C117.666 311.539 115.688 310.022 116.975 305.221C118.261 300.42 125.923 299.033 131.708 300.584C137.494 302.134 138.9 303.497 137.613 308.298Z" fill="#028377"/>
<path d="M61.5781 134.637H67.3404V153.844H61.5781V134.637Z" fill="#01574F"/>
<path d="M44.9293 151.209C45.9676 150.028 47.5015 149.403 49.0699 149.524L217.706 162.518C221.814 162.834 223.798 167.707 221.078 170.803L205.935 188.041C204.897 189.223 203.363 189.847 201.794 189.726L33.1587 176.733C29.0498 176.416 27.0666 171.544 29.7864 168.448L44.9293 151.209Z" fill="#01574F"/>
<path d="M46.2109 115.742C46.2109 112.826 48.697 110.528 51.6045 110.758L218.315 123.923C220.916 124.128 222.922 126.298 222.922 128.907V151.529C222.922 154.446 220.436 156.743 217.528 156.513L50.8173 143.349C48.2166 143.143 46.2109 140.973 46.2109 138.364V115.742Z" fill="#01574F"/>
<path d="M155.27 183.834C161.172 171.318 165.116 157.976 166.708 145.523C154.924 152.995 122.967 149.901 116.088 155.131C107.488 161.669 133.764 229.104 128.494 234.268C124.662 238.022 118.925 245.477 118.925 252.014C118.925 258.552 128.48 261.372 132.302 260.438C136.124 259.504 140.901 255.75 144.723 252.014C148.545 248.279 148.554 241.723 148.554 225.845C148.554 209.968 151.582 191.654 155.27 183.834Z" fill="#433D8E"/>
<path d="M116.518 239.411C116.518 226.756 125.237 188.19 129.597 170.489L121.548 164.84C118.865 179.905 113.097 211.616 111.487 217.943C110.114 223.341 109.131 242.281 108.664 254.977C108.545 258.211 111.142 260.878 114.378 260.878C115.56 260.878 116.518 259.924 116.518 258.743V239.411Z" fill="#B7B4DE"/>
<path d="M110.746 202.715C109.21 181.203 131.94 162.875 136.742 155.512C137.382 151.35 120.159 141.827 100.184 144.132C80.2096 146.437 80.581 185.969 84.7976 205.597C86.3433 209.979 87.3131 217.697 81.935 220.002C76.5568 222.307 74.5548 225.463 73.2749 227.704C71.6743 231.225 70.2017 238.844 77.1164 241.149C84.0312 243.454 94.7419 238.89 100.184 235.369C104.345 233.448 112.283 224.228 110.746 202.715Z" fill="#433D8E"/>
<path d="M144.952 82.25C153.595 83.8506 170.114 98.7686 167.041 145.635C155.196 158.44 128.625 182.514 117.101 176.368C105.576 170.221 116.688 160.361 118.929 156.2L122.731 153.348C99.9311 154.781 80.8332 150.635 86.3667 132.19C95.5864 101.458 113.257 86.0915 120.94 82.25C132.465 88.3965 141.75 84.811 144.952 82.25Z" fill="#282655"/>
<circle cx="134.377" cy="72.6268" r="17.2869" fill="#F5A4C4"/>
<path d="M81.4934 154.704C78.1662 145.255 92.2745 117.016 99.7445 104.078L127.343 110.601C120.657 123.992 107.263 152.174 107.171 157.766C107.078 163.359 100.539 165.177 97.2815 165.387C93.4052 165.763 84.8207 164.153 81.4934 154.704Z" fill="#282655"/>
<path d="M189.355 188.402H195.118V219.024H189.355V188.402Z" fill="#01574F"/>
<path d="M40.3008 174.445H46.0631V205.067H40.3008V174.445Z" fill="#01574F"/>
<path d="M206.754 170.891H212.516V201.512H206.754V170.891Z" fill="#01574F"/>
<path d="M57.7031 156.938H63.4654V187.559H57.7031V156.938Z" fill="#01574F"/>
<rect x="198.867" y="144.629" width="5.7623" height="19.2077" fill="#01574F"/>
<path d="M131.148 302.852L132.925 306.406M132.925 306.406L135.295 306.998M132.925 306.406L131.741 308.183" stroke="#433D8E"/>
<path d="M123.023 302.406L123.82 306.299M123.82 306.299L125.955 307.484M123.82 306.299L122.216 307.709" stroke="#433D8E"/>
<path d="M136.479 293.374C136.479 298.281 134.729 304.036 128.186 304.036C121.644 304.036 116.34 300.058 116.34 295.151C116.34 290.244 121.644 286.266 128.186 286.266C134.729 286.266 136.479 288.467 136.479 293.374Z" fill="#EDE8D7"/>
<path d="M128.497 292.781C128.497 294.743 127.966 297.519 124.041 297.519C120.115 297.519 114.281 294.743 114.281 292.781C114.281 290.818 117.464 289.227 121.389 289.227C125.315 289.227 128.497 290.818 128.497 292.781Z" fill="#D9D2BB"/>
<path d="M138.846 292.188C138.846 294.151 136.663 292.78 134.7 292.78C132.737 292.78 131.738 292.966 131.738 291.003C131.738 289.04 133.329 287.449 135.292 287.449C137.255 287.449 138.846 290.225 138.846 292.188Z" fill="#D9D2BB"/>
<circle cx="135.889" cy="290.413" r="0.592333" fill="#433D8E"/>
<path d="M172.621 287.453L170.844 291.007M170.844 291.007L168.475 291.599M170.844 291.007L172.029 292.784" stroke="#433D8E"/>
<path d="M180.738 287.008L179.942 290.901M179.942 290.901L177.806 292.086M179.942 290.901L181.546 292.31" stroke="#433D8E"/>
<path d="M167.279 277.975C167.279 282.882 169.029 288.637 175.571 288.637C182.114 288.637 187.418 284.659 187.418 279.752C187.418 274.845 182.114 270.867 175.571 270.867C169.029 270.867 167.279 273.068 167.279 277.975Z" fill="#EDE8D7"/>
<path d="M175.268 277.382C175.268 279.345 175.799 282.121 179.725 282.121C183.65 282.121 189.484 279.345 189.484 277.382C189.484 275.419 186.302 273.828 182.376 273.828C178.451 273.828 175.268 275.419 175.268 277.382Z" fill="#D9D2BB"/>
<path d="M164.912 276.789C164.912 278.752 167.095 277.382 169.058 277.382C171.021 277.382 172.02 277.568 172.02 275.605C172.02 273.642 170.428 272.051 168.466 272.051C166.503 272.051 164.912 274.827 164.912 276.789Z" fill="#D9D2BB"/>
<circle r="0.592333" transform="matrix(-1 0 0 1 167.876 275.014)" fill="#433D8E"/>
<circle cx="122.481" cy="168.829" r="10.9382" fill="#F5A4C4"/>
<circle cx="101.078" cy="158.844" r="9.51149" fill="#F5A4C4"/>
</g>
</svg>