<svg xmlns="http://www.w3.org/2000/svg" width="638" height="619" viewBox="0 0 638 619" fill="none">
<path fill-rule="evenodd" clip-rule="evenodd" d="M267.994 94.1936C347.468 69.8096 428.755 -14.1666 497.06 33.2147C565.5 80.6889 517.984 186.288 520.766 269.534C523.523 352 574.049 449.368 512.819 504.679C451.266 560.281 357.263 509.926 276.755 489.955C204.994 472.153 127.327 460.642 86.5862 398.944C41.4123 330.534 21.1463 236.812 63.0795 166.367C102.051 100.899 195.155 116.542 267.994 94.1936Z" fill="#F4F1E7"/>
<path d="M167.586 424.861C173.697 421.805 190.928 420.193 198.779 419.768C218.301 419.562 255.817 421.678 276.442 438.843C295.539 454.738 308.345 470.147 313.363 477.675C317.183 483.404 321.639 492.953 325.458 502.501L304.012 496.002C298.919 471.812 262.437 442.026 244.613 437.57C228.309 433.494 207.054 433.772 198.779 433.136C188.381 433.56 164.658 435.171 152.945 438.227C138.303 442.046 131.938 434.407 131.938 435.044C131.938 435.68 134.484 439.5 128.755 442.046C123.026 444.592 123.662 442.046 114.75 425.495C107.62 412.254 83.7868 388.777 75.5113 380.503C72.0122 375.503 62.0117 355.252 63.5114 355.502C67.3307 356.14 106.475 391.122 109.021 396.215C111.567 401.307 131.301 421.678 131.938 421.678C132.447 421.678 136.818 423.8 138.94 424.861C144.669 428.044 159.947 428.68 167.586 424.861Z" fill="#FFC4BC"/>
<path d="M126.215 396.209C122.65 397.227 120.061 398.33 119.212 398.755C114.332 397.694 105.972 393.153 111.573 383.477C118.576 371.382 125.578 375.838 128.761 378.384C131.307 380.421 131.944 385.599 131.944 387.933C131.52 390.267 129.78 395.19 126.215 396.209Z" fill="#FFC4BC"/>
<path d="M119.209 399.393C119.209 407.032 111.794 409.103 110.933 407.669C109.405 405.122 109.023 395.574 109.023 391.118C109.236 387.298 111.442 378.895 118.572 375.84C125.702 372.784 128.333 376.264 128.757 378.386C128.757 384.497 121.118 388.571 117.299 389.844C117.808 390.863 118.784 396.635 119.209 399.393Z" fill="#423D89"/>
<path d="M147.852 428.659C145.305 429.168 135.332 424.627 130.664 422.293C135.12 416.139 147.47 403.832 161.22 403.832C178.408 403.832 189.229 421.02 186.683 421.02C184.646 421.02 171.83 424.415 165.676 426.112C165.888 426.112 166.567 427.131 167.586 431.205C168.859 436.298 166.313 442.027 163.766 446.483C161.22 450.939 169.495 454.758 170.769 455.395C171.787 455.904 172.466 456.88 172.678 457.305C175.225 462.907 170.344 463.458 167.586 463.034C165.464 462.822 159.819 461.379 154.218 457.305C147.215 452.212 149.761 443.937 151.035 442.027C152.308 440.117 151.035 428.022 147.852 428.659Z" fill="#03DAC6"/>
<path d="M131.937 421.039L142.759 414.673C146.791 412.975 152.819 408.052 144.671 401.941C136.523 395.83 127.271 396 123.664 396.849C120.692 397.485 113.986 400.541 110.93 407.67C107.875 414.8 113.476 424.222 116.659 428.041L131.937 435.043V421.039Z" fill="#E61A6B"/>
<path d="M142.759 414.038C143.268 414.038 154.005 413.613 159.31 413.401V410.218L156.761 403.216L162.49 394.304V389.848C159.095 389.635 151.668 389.211 149.122 389.211C146.575 389.211 145.092 397.699 144.669 401.943C137.03 405.125 142.122 414.038 142.759 414.038Z" fill="#EDE8D7"/>
<path d="M162.493 403.852L156.764 404.489C155.237 404.489 152.845 403.343 155.491 398.76C158.137 394.176 161.261 394.304 162.493 394.94C166.567 397.486 164.191 401.943 162.493 403.852Z" fill="#FFC4BC"/>
</svg>