<svg width="220" height="275" viewBox="0 0 220 275" fill="none" xmlns="http://www.w3.org/2000/svg">
<path fill-rule="evenodd" clip-rule="evenodd" d="M38.7576 246.292C4.14951 223.016 4.10089 188.283 1.30656 146.585C-1.03951 111.575 10.6221 81.083 33.0467 45.8039C55.4713 10.5248 86.1528 1.15378 121.496 1.13292C158.699 1.11097 184.093 14.3849 203.916 45.8684C222.627 75.5845 220.534 113.373 213.926 147.93C206.067 189.02 211.455 238.956 175.942 261.032C137.012 285.232 76.7133 271.82 38.7576 246.292Z" fill="#B7B4DE"/>
<mask id="mask0_1264_4395" style="mask-type:alpha" maskUnits="userSpaceOnUse" x="1" y="1" width="218" height="273">
<path fill-rule="evenodd" clip-rule="evenodd" d="M38.7576 246.292C4.14951 223.016 4.10089 188.283 1.30656 146.585C-1.03951 111.575 10.6221 81.083 33.0467 45.8039C55.4713 10.5248 86.1528 1.15378 121.496 1.13292C158.699 1.11097 184.093 14.3849 203.916 45.8684C222.627 75.5845 220.534 113.373 213.926 147.93C206.067 189.02 211.455 238.956 175.942 261.032C137.012 285.232 76.7133 271.82 38.7576 246.292Z" fill="#B7B4DE"/>
</mask>
<g mask="url(#mask0_1264_4395)">
<path fill-rule="evenodd" clip-rule="evenodd" d="M139.642 391.123C77.2651 381.224 55.1743 348.482 24.8884 310.126C-0.539124 277.922 -3.82904 245.101 4.65427 204.016C13.1376 162.931 49.4098 143.406 98.0254 131.076C149.198 118.097 192.555 121.772 239.793 144.562C284.379 166.072 305.462 202.443 318.282 237.338C333.525 278.83 372.603 324.053 337.739 357.243C299.521 393.628 208.051 401.98 139.642 391.123Z" fill="#9591CE"/>
</g>
<rect x="60.7617" y="74.9844" width="75.5666" height="49.5906" rx="5.90364" transform="rotate(37.4047 60.7617 74.9844)" fill="#028377"/>
<rect width="12.988" height="10.6266" rx="1.77109" transform="matrix(0.794364 0.607441 0.607441 -0.794364 54.4219 96.8887)" fill="#02AE9E"/>
<path d="M108.49 123.371L95.3594 113.33" stroke="#03DAC6" stroke-width="3.54218" stroke-linecap="round"/>
<path opacity="0.9" d="M82.4486 130.21L49.6211 105.107" stroke="#028377" stroke-width="3.54218" stroke-linecap="round"/>
<path fill-rule="evenodd" clip-rule="evenodd" d="M97.1212 151.842L94.2534 155.592C92.2729 158.182 88.5677 158.676 85.9777 156.695L35.3295 117.965C32.7395 115.985 32.2454 112.28 34.226 109.69L37.0937 105.939L97.1212 151.842Z" fill="#01574F"/>
<rect x="30.3789" y="127" width="75.5666" height="49.5906" rx="5.90364" transform="rotate(1.78915 30.3789 127)" fill="#02AE9E"/>
<rect width="12.988" height="10.6266" rx="1.77109" transform="matrix(0.999512 0.0312216 0.0312216 -0.999512 37.9766 148.5)" fill="#028377"/>
<path d="M97.3581 138.543L80.8359 138.027" stroke="#03DAC6" stroke-width="3.54218" stroke-linecap="round"/>
<path opacity="0.9" d="M80.1725 159.271L38.8672 157.98" stroke="#028377" stroke-width="3.54218" stroke-linecap="round"/>
<path fill-rule="evenodd" clip-rule="evenodd" d="M104.694 168.305L104.546 173.024C104.445 176.283 101.72 178.842 98.4613 178.74L34.7331 176.75C31.4742 176.648 28.9148 173.924 29.0166 170.665L29.1641 165.945L104.694 168.305Z" fill="#028377"/>
<path d="M112.312 122.759L190.823 127.606C178.937 114.728 178.533 85.1325 179.836 55.4414C180.341 43.9521 171.276 34.2973 159.776 34.2792L112.451 34.2049L112.312 122.759Z" fill="#EDE8D7"/>
<path d="M94.5771 50.3279C95.3132 41.1894 102.992 34.1906 112.16 34.2052L152.005 34.2686C152.005 34.2686 162.132 33.8855 165.582 34.8787C169.713 36.0676 173.25 39.6141 173.25 39.6141C165.584 33.7008 163.581 42.6074 163.195 51.408C160.763 106.866 161.014 154.589 163.206 211.578C163.672 223.694 153.998 233.814 141.874 233.795L95.6541 233.722C90.9944 163.186 88.8667 121.229 94.5771 50.3279Z" fill="#F4F1E7"/>
<path d="M104.742 56.0391L132.489 56.0826" stroke="#EDE8D7" stroke-width="3.54218" stroke-linecap="round"/>
<path d="M109.492 42.4668L136.059 42.5085" stroke="#EDE8D7" stroke-width="3.54218" stroke-linecap="round"/>
<path d="M141.938 56.0957L153.154 56.1133" stroke="#EDE8D7" stroke-width="3.54218" stroke-linecap="round"/>
<path d="M145.5 42.5234L155.536 42.5392" stroke="#EDE8D7" stroke-width="3.54218" stroke-linecap="round"/>
<path d="M102.949 69.6133L131.877 69.6587" stroke="#EDE8D7" stroke-width="3.54218" stroke-linecap="round"/>
<path d="M140.152 69.6719L151.369 69.6895" stroke="#EDE8D7" stroke-width="3.54218" stroke-linecap="round"/>
<path d="M101.16 83.7812L131.269 83.8285" stroke="#EDE8D7" stroke-width="3.54218" stroke-linecap="round"/>
<path d="M139.535 83.8418L150.752 83.8594" stroke="#EDE8D7" stroke-width="3.54218" stroke-linecap="round"/>
<path d="M101.734 97.9473L130.662 97.9927" stroke="#EDE8D7" stroke-width="3.54218" stroke-linecap="round"/>
<path d="M138.922 98.0059L150.139 98.0235" stroke="#EDE8D7" stroke-width="3.54218" stroke-linecap="round"/>
<path d="M101.117 112.115L131.226 112.163" stroke="#EDE8D7" stroke-width="3.54218" stroke-linecap="round"/>
<path d="M101.07 140.455L131.179 140.502" stroke="#EDE8D7" stroke-width="3.54218" stroke-linecap="round"/>
<path d="M139.492 112.176L150.709 112.193" stroke="#EDE8D7" stroke-width="3.54218" stroke-linecap="round"/>
<path d="M139.445 140.514L150.662 140.531" stroke="#EDE8D7" stroke-width="3.54218" stroke-linecap="round"/>
<path d="M101.688 126.283L130.615 126.329" stroke="#EDE8D7" stroke-width="3.54218" stroke-linecap="round"/>
<path d="M101.645 154.623L130.572 154.668" stroke="#EDE8D7" stroke-width="3.54218" stroke-linecap="round"/>
<path d="M101.621 168.791L130.549 168.836" stroke="#EDE8D7" stroke-width="3.54218" stroke-linecap="round"/>
<path d="M102.77 184.143L131.697 184.188" stroke="#EDE8D7" stroke-width="3.54218" stroke-linecap="round"/>
<path d="M102.746 198.311L131.674 198.356" stroke="#EDE8D7" stroke-width="3.54218" stroke-linecap="round"/>
<path d="M103.914 212.482L132.842 212.528" stroke="#EDE8D7" stroke-width="3.54218" stroke-linecap="round"/>
<path d="M138.832 154.682L150.049 154.699" stroke="#EDE8D7" stroke-width="3.54218" stroke-linecap="round"/>
<path d="M138.809 168.85L150.025 168.867" stroke="#EDE8D7" stroke-width="3.54218" stroke-linecap="round"/>
<path d="M138.875 126.342L150.092 126.359" stroke="#EDE8D7" stroke-width="3.54218" stroke-linecap="round"/>
<path d="M139.949 198.369L151.166 198.387" stroke="#EDE8D7" stroke-width="3.54218" stroke-linecap="round"/>
<path d="M139.93 212.539L152.327 212.559" stroke="#EDE8D7" stroke-width="3.54218" stroke-linecap="round"/>
<path d="M139.973 184.201L151.19 184.219" stroke="#EDE8D7" stroke-width="3.54218" stroke-linecap="round"/>
<path d="M131.637 224.332L142.854 224.35" stroke="#EDE8D7" stroke-width="3.54218" stroke-linecap="round"/>
<path fill-rule="evenodd" clip-rule="evenodd" d="M150.323 232.047C139.711 230.351 131.476 217.494 131.501 201.898C131.507 197.824 132.076 193.939 133.103 190.392L62.4607 188.211L62.0492 190.421C57.8608 212.911 75.0989 233.689 97.9756 233.724L141.839 233.793C144.854 233.798 147.723 233.175 150.323 232.047Z" fill="#EDE8D7"/>
<path d="M47.0988 195.858C48.1452 197.953 44.1097 202.091 38.0853 205.099C32.0609 208.108 26.3551 208.834 25.2825 206.752C24.7963 205.809 23.617 203.435 23.3815 202.96C23.2366 203.031 29.3749 199.968 34.296 197.511C39.7353 195.381 42.1067 194.197 45.2042 192.064C46.015 193.436 46.1509 193.96 47.0988 195.858Z" fill="#9AF0E8"/>
<ellipse cx="34.2833" cy="197.507" rx="12.1926" ry="4.24091" transform="rotate(-26.5359 34.2833 197.507)" fill="#CDF8F4"/>
<path d="M75.5636 63.4746C74.1726 65.6812 67.9023 64.228 61.5585 60.2288C55.2147 56.2296 51.2276 51.2162 52.5907 48.9923C53.2086 47.9844 54.7879 45.4906 55.1041 44.9921C54.9524 44.8954 61.4138 48.9715 66.5958 52.2382C71.7652 56.1876 74.2623 57.7617 78.0822 59.4795C77.2439 61.0439 76.8237 61.4758 75.5636 63.4746Z" fill="#9AF0E8"/>
<ellipse cx="66.585" cy="52.2228" rx="13.5784" ry="4.72291" transform="rotate(32.2277 66.585 52.2228)" fill="#CDF8F4"/>
<path d="M198.341 150.955C199.087 153.454 193.865 157.218 186.679 159.361C179.493 161.504 173.094 161.206 172.317 158.716C171.965 157.587 171.127 154.757 170.96 154.191C170.787 154.241 178.109 152.06 183.979 150.309C190.355 149.017 193.184 148.174 196.991 146.429C197.617 148.09 197.666 148.69 198.341 150.955Z" fill="#9AF0E8"/>
<ellipse cx="183.967" cy="150.307" rx="13.5784" ry="4.72291" transform="rotate(-16.6064 183.967 150.307)" fill="#CDF8F4"/>
</svg>
