<svg width="54" height="54" viewBox="0 0 54 54" fill="none" xmlns="http://www.w3.org/2000/svg">
  <path d="M24.4286 17C26.3988 17 28.2882 17.7827 29.6814 19.1758C31.0745 20.5689 31.8571 22.4584 31.8571 24.4286C31.8571 26.2686 31.1829 27.96 30.0743 29.2629L30.3829 29.5714H31.2857L37 35.2857L35.2857 37L29.5714 31.2857V30.3829L29.2629 30.0743C27.96 31.1829 26.2686 31.8571 24.4286 31.8571C22.4584 31.8571 20.5689 31.0745 19.1758 29.6814C17.7827 28.2882 17 26.3988 17 24.4286C17 22.4584 17.7827 20.5689 19.1758 19.1758C20.5689 17.7827 22.4584 17 24.4286 17ZM24.4286 19.2857C21.5714 19.2857 19.2857 21.5714 19.2857 24.4286C19.2857 27.2857 21.5714 29.5714 24.4286 29.5714C27.2857 29.5714 29.5714 27.2857 29.5714 24.4286C29.5714 21.5714 27.2857 19.2857 24.4286 19.2857Z" fill="#333333"/>
</svg>