<svg width="32" height="33" viewBox="0 0 32 33" fill="none" xmlns="http://www.w3.org/2000/svg">
<path d="M26.1883 10.4497L21.9883 14.3997L25.9883 25.3997L22.9883 28.3997L17.0133 19.6497L13.9883 22.3997V25.3997L10.9883 28.3997L9.21328 23.1622L3.98828 21.3997L6.98828 18.3997H9.98828L12.9883 15.3997L3.98828 9.39973L6.98828 6.39973L17.9883 10.3997L21.9508 6.21223L21.8633 6.27473C22.4269 5.71115 23.1913 5.39453 23.9883 5.39453C24.7853 5.39453 25.5497 5.71115 26.1133 6.27473C26.6769 6.83832 26.9935 7.60271 26.9935 8.39973C26.9935 9.19676 26.6769 9.96115 26.1133 10.5247L26.1883 10.4497Z" stroke="black" stroke-width="2" stroke-linecap="round" stroke-linejoin="round"/>
</svg>
