<svg width="32" height="33" viewBox="0 0 32 33" fill="none" xmlns="http://www.w3.org/2000/svg">
<path d="M16 28.3984C22.6274 28.3984 28 23.0259 28 16.3984C28 9.77102 22.6274 4.39844 16 4.39844C9.37258 4.39844 4 9.77102 4 16.3984C4 23.0259 9.37258 28.3984 16 28.3984Z" stroke="black" stroke-width="2" stroke-linecap="round" stroke-linejoin="round"/>
<path d="M11.5 17.8984C12.3284 17.8984 13 17.2269 13 16.3984C13 15.57 12.3284 14.8984 11.5 14.8984C10.6716 14.8984 10 15.57 10 16.3984C10 17.2269 10.6716 17.8984 11.5 17.8984Z" fill="black"/>
<path d="M20.5 17.8984C21.3284 17.8984 22 17.2269 22 16.3984C22 15.57 21.3284 14.8984 20.5 14.8984C19.6716 14.8984 19 15.57 19 16.3984C19 17.2269 19.6716 17.8984 20.5 17.8984Z" fill="black"/>
<path d="M19.3125 21.3984C18.3308 22.0504 17.1785 22.3982 16 22.3982C14.8215 22.3982 13.6692 22.0504 12.6875 21.3984" stroke="black" stroke-width="2" stroke-linecap="round" stroke-linejoin="round"/>
<path d="M16 4.39844C14 6.89844 14 9.39844 14 9.39844C14 9.92887 14.2107 10.4376 14.5858 10.8127C14.9609 11.1877 15.4696 11.3984 16 11.3984C16.5304 11.3984 17.0391 11.1877 17.4142 10.8127C17.7893 10.4376 18 9.92887 18 9.39844" stroke="black" stroke-width="2" stroke-linecap="round" stroke-linejoin="round"/>
</svg>
