<svg xmlns="http://www.w3.org/2000/svg" width="32" height="33" viewBox="0 0 32 33" fill="none">
<path d="M21.9961 4.59766V16.5977L17.9961 13.5977L13.9961 16.5977V4.59766" stroke="#404040" stroke-width="2" stroke-linecap="round" stroke-linejoin="round"/>
<path d="M6.00003 27.5977C5.99837 27.2033 6.07484 26.8124 6.22502 26.4477C6.3752 26.083 6.59611 25.7516 6.87502 25.4727C7.15392 25.1938 7.4853 24.9729 7.85002 24.8227C8.21475 24.6725 8.6056 24.596 9.00003 24.5977H26V4.59768H9.00003C8.6056 4.59603 8.21475 4.6725 7.85002 4.82268C7.4853 4.97285 7.15392 5.19377 6.87502 5.47267C6.59611 5.75158 6.3752 6.08296 6.22502 6.44768C6.07484 6.8124 5.99837 7.20325 6.00003 7.59768V27.5977Z" stroke="#404040" stroke-width="2" stroke-linecap="round" stroke-linejoin="round"/>
<path d="M6 27.5977V28.5977H24" stroke="#404040" stroke-width="2" stroke-linecap="round" stroke-linejoin="round"/>
</svg>