<svg xmlns="http://www.w3.org/2000/svg" width="28" height="29" viewBox="0 0 28 29" fill="none">
<path d="M10.5 22.9219H7.875C6.25055 22.9219 4.69263 22.2766 3.54397 21.1279C2.39531 19.9792 1.75 18.4213 1.75 16.7969C1.75 15.1724 2.39531 13.6145 3.54397 12.4658C4.69263 11.3172 6.25055 10.6719 7.875 10.6719C8.38745 10.6717 8.89801 10.7341 9.39531 10.8578" stroke="#404040" stroke-width="2" stroke-linecap="round" stroke-linejoin="round"/>
<path d="M8.75 14.1719C8.75 12.7854 9.07947 11.4188 9.71125 10.1847C10.343 8.95053 11.259 7.88418 12.3838 7.07351C13.5085 6.26283 14.8098 5.73104 16.1804 5.52195C17.551 5.31286 18.9517 5.43246 20.267 5.8709C21.5823 6.30933 22.7746 7.05405 23.7456 8.04368C24.7166 9.03331 25.4386 10.2395 25.852 11.5629C26.2654 12.8863 26.3584 14.289 26.1233 15.6554C25.8883 17.0217 25.3319 18.3127 24.5 19.4219" stroke="#404040" stroke-width="2" stroke-linecap="round" stroke-linejoin="round"/>
<path d="M12.918 17.8797L16.6258 14.1719L20.3336 17.8797" stroke="#333333" stroke-width="2" stroke-linecap="round" stroke-linejoin="round"/>
<path d="M16.625 22.9219V14.1719" stroke="#333333" stroke-width="2" stroke-linecap="round" stroke-linejoin="round"/>
</svg>