<svg xmlns="http://www.w3.org/2000/svg" width="32" height="32" viewBox="0 0 32 32" fill="none">
<path d="M4.73697 25.9873L11.462 7.47485C11.5195 7.31643 11.6162 7.17514 11.743 7.0641C11.8698 6.95306 12.0226 6.87587 12.1872 6.8397C12.3519 6.80353 12.523 6.80956 12.6846 6.85723C12.8463 6.9049 12.9933 6.99265 13.112 7.11235L24.887 18.8873C25.0067 19.006 25.0944 19.153 25.1421 19.3147C25.1898 19.4763 25.1958 19.6474 25.1596 19.8121C25.1234 19.9767 25.0463 20.1295 24.9352 20.2563C24.8242 20.3831 24.6829 20.4798 24.5245 20.5373L6.01197 27.2623C5.83387 27.3304 5.63986 27.3455 5.45338 27.3057C5.26691 27.2659 5.09593 27.173 4.96111 27.0382C4.82628 26.9034 4.73337 26.7324 4.6936 26.5459C4.65383 26.3595 4.66889 26.1654 4.73697 25.9873V25.9873Z" stroke="#333333" stroke-width="2" stroke-linecap="round" stroke-linejoin="round"/>
<path d="M21 9C21 9 21 6 24 6C27 6 27 3 27 3" stroke="#333333" stroke-width="2" stroke-linecap="round" stroke-linejoin="round"/>
<path d="M12.7992 24.7992L7.19922 19.1992" stroke="#333333" stroke-width="2" stroke-linecap="round" stroke-linejoin="round"/>
<path d="M18 2V5" stroke="#333333" stroke-width="2" stroke-linecap="round" stroke-linejoin="round"/>
<path d="M27 14L29 16" stroke="#333333" stroke-width="2" stroke-linecap="round" stroke-linejoin="round"/>
<path d="M27 10L30 9" stroke="#333333" stroke-width="2" stroke-linecap="round" stroke-linejoin="round"/>
<path d="M9.60156 12.6016L19.4016 22.4016" stroke="#333333" stroke-width="2" stroke-linecap="round" stroke-linejoin="round"/>
</svg>