<svg xmlns="http://www.w3.org/2000/svg" width="32" height="33" viewBox="0 0 32 33" fill="none">
<path d="M21 28.5977H7C6.73478 28.5977 6.48043 28.4923 6.29289 28.3048C6.10536 28.1172 6 27.8629 6 27.5977V9.59766C6 9.33244 6.10536 9.07809 6.29289 8.89055C6.48043 8.70301 6.73478 8.59766 7 8.59766H17L22 13.5977V27.5977C22 27.8629 21.8946 28.1172 21.7071 28.3048C21.5196 28.4923 21.2652 28.5977 21 28.5977Z" stroke="#333333" stroke-width="2" stroke-linecap="round" stroke-linejoin="round"/>
<path d="M10 8.59766V5.59766C10 5.33244 10.1054 5.07809 10.2929 4.89055C10.4804 4.70301 10.7348 4.59766 11 4.59766H21L26 9.59766V23.5977C26 23.8629 25.8946 24.1172 25.7071 24.3048C25.5196 24.4923 25.2652 24.5977 25 24.5977H22" stroke="#333333" stroke-width="2" stroke-linecap="round" stroke-linejoin="round"/>
<path d="M10.9961 19.5977H16.9961" stroke="#333333" stroke-width="2" stroke-linecap="round" stroke-linejoin="round"/>
<path d="M10.9961 23.5977H16.9961" stroke="#333333" stroke-width="2" stroke-linecap="round" stroke-linejoin="round"/>
</svg>