<svg width="32" height="33" viewBox="0 0 32 33" fill="none" xmlns="http://www.w3.org/2000/svg">
<path d="M27 9.39844H5C4.44772 9.39844 4 9.84615 4 10.3984V26.3984C4 26.9507 4.44772 27.3984 5 27.3984H27C27.5523 27.3984 28 26.9507 28 26.3984V10.3984C28 9.84615 27.5523 9.39844 27 9.39844Z" stroke="black" stroke-width="2" stroke-linecap="round" stroke-linejoin="round"/>
<path d="M21 9.39844V7.39844C21 6.868 20.7893 6.3593 20.4142 5.98422C20.0391 5.60915 19.5304 5.39844 19 5.39844H13C12.4696 5.39844 11.9609 5.60915 11.5858 5.98422C11.2107 6.3593 11 6.868 11 7.39844V9.39844" stroke="black" stroke-width="2" stroke-linecap="round" stroke-linejoin="round"/>
<path d="M16 14.8984V21.8984" stroke="black" stroke-width="2" stroke-linecap="round" stroke-linejoin="round"/>
<path d="M19.5 18.3984H12.5" stroke="black" stroke-width="2" stroke-linecap="round" stroke-linejoin="round"/>
</svg>
