<svg width="32" height="33" viewBox="0 0 32 33" fill="none" xmlns="http://www.w3.org/2000/svg">
<path d="M12 20.3984H5C4.73478 20.3984 4.48043 20.2931 4.29289 20.1055C4.10536 19.918 4 19.6637 4 19.3984V13.3984C4 13.1332 4.10536 12.8789 4.29289 12.6913C4.48043 12.5038 4.73478 12.3984 5 12.3984H12V5.39844C12 5.13322 12.1054 4.87887 12.2929 4.69133C12.4804 4.50379 12.7348 4.39844 13 4.39844H19C19.2652 4.39844 19.5196 4.50379 19.7071 4.69133C19.8946 4.87887 20 5.13322 20 5.39844V12.3984H27C27.2652 12.3984 27.5196 12.5038 27.7071 12.6913C27.8946 12.8789 28 13.1332 28 13.3984V19.3984C28 19.6637 27.8946 19.918 27.7071 20.1055C27.5196 20.2931 27.2652 20.3984 27 20.3984H20V27.3984C20 27.6637 19.8946 27.918 19.7071 28.1055C19.5196 28.2931 19.2652 28.3984 19 28.3984H13C12.7348 28.3984 12.4804 28.2931 12.2929 28.1055C12.1054 27.918 12 27.6637 12 27.3984V20.3984Z" stroke="black" stroke-width="2" stroke-linecap="round" stroke-linejoin="round"/>
</svg>
