<svg xmlns="http://www.w3.org/2000/svg" width="32" height="32" viewBox="0 0 32 32" fill="none">
<path d="M16 22.5C18.7614 22.5 21 20.2614 21 17.5C21 14.7386 18.7614 12.5 16 12.5C13.2386 12.5 11 14.7386 11 17.5C11 20.2614 13.2386 22.5 16 22.5Z" stroke="#333333" stroke-width="2" stroke-linecap="round" stroke-linejoin="round"/>
<path d="M24.5 14.5C25.6647 14.4981 26.8137 14.7683 27.8554 15.2892C28.8972 15.81 29.8028 16.5671 30.5 17.5" stroke="#333333" stroke-width="2" stroke-linecap="round" stroke-linejoin="round"/>
<path d="M1.5 17.5C2.19725 16.5671 3.10285 15.81 4.14457 15.2892C5.1863 14.7683 6.33532 14.4981 7.5 14.5" stroke="#333333" stroke-width="2" stroke-linecap="round" stroke-linejoin="round"/>
<path d="M8.79688 27.0007C9.4554 25.6521 10.4795 24.5155 11.7524 23.7205C13.0254 22.9254 14.496 22.5039 15.9969 22.5039C17.4977 22.5039 18.9684 22.9254 20.2413 23.7205C21.5143 24.5155 22.5383 25.6521 23.1969 27.0007" stroke="#333333" stroke-width="2" stroke-linecap="round" stroke-linejoin="round"/>
<path d="M7.49625 14.5C6.73705 14.5008 5.99331 14.2855 5.35193 13.8792C4.71055 13.473 4.19802 12.8927 3.87423 12.206C3.55044 11.5193 3.42875 10.7546 3.52339 10.0014C3.61803 9.24809 3.92509 8.5373 4.40869 7.95206C4.89229 7.36681 5.53245 6.93127 6.25439 6.69634C6.97632 6.4614 7.7502 6.43677 8.48561 6.62532C9.22103 6.81388 9.88759 7.20782 10.4074 7.76113C10.9273 8.31444 11.2789 9.00427 11.4212 9.75" stroke="#333333" stroke-width="2" stroke-linecap="round" stroke-linejoin="round"/>
<path d="M20.5781 9.75C20.7205 9.00427 21.0721 8.31444 21.5919 7.76113C22.1118 7.20782 22.7783 6.81388 23.5138 6.62532C24.2492 6.43677 25.0231 6.4614 25.745 6.69634C26.4669 6.93127 27.1071 7.36681 27.5907 7.95206C28.0743 8.5373 28.3813 9.24809 28.476 10.0014C28.5706 10.7546 28.4489 11.5193 28.1251 12.206C27.8013 12.8927 27.2888 13.473 26.6474 13.8792C26.0061 14.2855 25.2623 14.5008 24.5031 14.5" stroke="#333333" stroke-width="2" stroke-linecap="round" stroke-linejoin="round"/>
</svg>