<svg width="32" height="33" viewBox="0 0 32 33" fill="none" xmlns="http://www.w3.org/2000/svg">
<path d="M27 27.3997V14.8372C26.9978 14.6988 26.9679 14.5622 26.912 14.4356C26.8562 14.3089 26.7756 14.1947 26.675 14.0997L16.675 5.01218C16.4907 4.84353 16.2499 4.75 16 4.75C15.7501 4.75 15.5093 4.84353 15.325 5.01218L5.325 14.0997C5.22437 14.1947 5.14378 14.3089 5.08796 14.4356C5.03215 14.5622 5.00224 14.6988 5 14.8372V27.3997" stroke="black" stroke-width="2" stroke-linecap="round" stroke-linejoin="round"/>
<path d="M2 27.3984H30" stroke="black" stroke-width="2" stroke-linecap="round" stroke-linejoin="round"/>
<path d="M19 27.3984V20.3984C19 20.1332 18.8946 19.8789 18.7071 19.6913C18.5196 19.5038 18.2652 19.3984 18 19.3984H14C13.7348 19.3984 13.4804 19.5038 13.2929 19.6913C13.1054 19.8789 13 20.1332 13 20.3984V27.3984" stroke="black" stroke-width="2" stroke-linecap="round" stroke-linejoin="round"/>
</svg>
