<svg width="32" height="33" viewBox="0 0 32 33" fill="none" xmlns="http://www.w3.org/2000/svg">
<path d="M19.9258 5.39844C21.622 5.85365 23.1686 6.747 24.4104 7.98883C25.6522 9.23065 26.5456 10.7773 27.0008 12.4734" stroke="black" stroke-width="2" stroke-linecap="round" stroke-linejoin="round"/>
<path d="M18.8867 9.26172C19.9069 9.53265 20.8373 10.0684 21.5836 10.8148C22.33 11.5612 22.8658 12.4916 23.1367 13.5117" stroke="black" stroke-width="2" stroke-linecap="round" stroke-linejoin="round"/>
<path d="M11.5625 15.9995C12.5915 18.1245 14.3098 19.8384 16.4375 20.862C16.5944 20.9363 16.768 20.9684 16.9412 20.9553C17.1143 20.9421 17.2811 20.8841 17.425 20.787L20.55 18.6995C20.6881 18.6058 20.8476 18.5487 21.0137 18.5334C21.1799 18.5181 21.3472 18.5451 21.5 18.612L27.35 21.1245C27.5499 21.2077 27.717 21.3543 27.8254 21.5418C27.9338 21.7292 27.9776 21.9472 27.95 22.162C27.7646 23.6091 27.0582 24.9392 25.9631 25.9032C24.8679 26.8672 23.459 27.3991 22 27.3995C17.4913 27.3995 13.1673 25.6084 9.97919 22.4203C6.79107 19.2322 5 14.9081 5 10.3995C5.00033 8.94045 5.53227 7.53156 6.49628 6.4364C7.4603 5.34124 8.79033 4.63487 10.2375 4.44946C10.4523 4.42186 10.6702 4.46565 10.8577 4.57406C11.0452 4.68248 11.1918 4.84952 11.275 5.04946L13.7875 10.912C13.8528 11.0624 13.8802 11.2266 13.8671 11.3901C13.854 11.5536 13.8009 11.7113 13.7125 11.8495L11.625 15.0245C11.5321 15.1681 11.4775 15.3331 11.4666 15.5038C11.4556 15.6745 11.4887 15.8452 11.5625 15.9995V15.9995Z" stroke="black" stroke-width="2" stroke-linecap="round" stroke-linejoin="round"/>
</svg>
