<svg xmlns="http://www.w3.org/2000/svg" width="32" height="32" viewBox="0 0 32 32" fill="none">
<path d="M19 29L16 26L19 23" stroke="#333333" stroke-width="2.5" stroke-linecap="round" stroke-linejoin="round"/>
<path d="M24.3281 9.39844L23.2281 13.4984L19.1406 12.3984" stroke="#333333" stroke-width="2.5" stroke-linecap="round" stroke-linejoin="round"/>
<path d="M9.87187 17.6L8.77187 13.5L4.67188 14.6" stroke="#333333" stroke-width="2.5" stroke-linecap="round" stroke-linejoin="round"/>
<path d="M16 25.9992H27C27.3505 25.998 27.6945 25.9047 27.9975 25.7286C28.3006 25.5526 28.5521 25.3 28.7268 24.9962C28.9015 24.6923 28.9933 24.3479 28.993 23.9975C28.9926 23.647 28.9002 23.3027 28.725 22.9992L25.7375 17.8242" stroke="#333333" stroke-width="2.5" stroke-linecap="round" stroke-linejoin="round"/>
<path d="M8.77577 13.5L3.27577 23C3.10053 23.3035 3.00812 23.6478 3.00781 23.9982C3.0075 24.3487 3.0993 24.6931 3.274 24.997C3.4487 25.3008 3.70018 25.5534 4.00324 25.7294C4.3063 25.9055 4.65029 25.9988 5.00077 26H11.0008" stroke="#333333" stroke-width="2.5" stroke-linecap="round" stroke-linejoin="round"/>
<path d="M23.2234 13.5003L17.7234 4.00032C17.5495 3.6964 17.2984 3.44383 16.9955 3.26817C16.6925 3.09251 16.3486 3 15.9984 3C15.6483 3 15.3043 3.09251 15.0014 3.26817C14.6985 3.44383 14.4474 3.6964 14.2734 4.00032L11.2734 9.17532" stroke="#333333" stroke-width="2.5" stroke-linecap="round" stroke-linejoin="round"/>
</svg>