<svg xmlns="http://www.w3.org/2000/svg" width="32" height="32" viewBox="0 0 32 32" fill="none">
<path d="M18 28H14" stroke="#404040" stroke-width="2" stroke-linecap="round" stroke-linejoin="round"/>
<path d="M15.3749 2.47472C12.9999 4.37472 5.06243 11.9747 11.9999 23.9997H19.9999C26.7999 11.9747 18.9749 4.38722 16.6249 2.47472C16.4496 2.32827 16.2284 2.24805 15.9999 2.24805C15.7715 2.24805 15.5503 2.32827 15.3749 2.47472Z" stroke="#404040" stroke-width="2" stroke-linecap="round" stroke-linejoin="round"/>
<path d="M9.23573 13.9258L5.31073 18.6258C5.21185 18.7411 5.14208 18.8785 5.10728 19.0264C5.07248 19.1743 5.07367 19.3284 5.11073 19.4758L6.64823 26.4383C6.68533 26.6038 6.76392 26.7571 6.8766 26.8839C6.98928 27.0107 7.13235 27.1067 7.29235 27.1629C7.45236 27.2192 7.62404 27.2338 7.79126 27.2054C7.95847 27.1771 8.11573 27.1067 8.24823 27.0008L11.9982 24.0008" stroke="#404040" stroke-width="2" stroke-linecap="round" stroke-linejoin="round"/>
<path d="M22.6875 13.8242L26.6875 18.6242C26.7864 18.7396 26.8561 18.877 26.8909 19.0249C26.9257 19.1728 26.9246 19.3269 26.8875 19.4742L25.35 26.4367C25.3129 26.6022 25.2343 26.7556 25.1216 26.8823C25.009 27.0091 24.8659 27.1051 24.7059 27.1614C24.5459 27.2176 24.3742 27.2323 24.207 27.2039C24.0398 27.1755 23.8825 27.1051 23.75 26.9992L20 23.9992" stroke="#404040" stroke-width="2" stroke-linecap="round" stroke-linejoin="round"/>
<path d="M16 13.5C16.8284 13.5 17.5 12.8284 17.5 12C17.5 11.1716 16.8284 10.5 16 10.5C15.1716 10.5 14.5 11.1716 14.5 12C14.5 12.8284 15.1716 13.5 16 13.5Z" fill="#404040"/>
</svg>