<svg xmlns="http://www.w3.org/2000/svg" width="32" height="32" viewBox="0 0 32 32" fill="none">
<path d="M16 29V11" stroke="#404040" stroke-width="2" stroke-linecap="round" stroke-linejoin="round"/>
<path d="M16 19L10 16" stroke="#404040" stroke-width="2" stroke-linecap="round" stroke-linejoin="round"/>
<path d="M16 16L22 13" stroke="#404040" stroke-width="2" stroke-linecap="round" stroke-linejoin="round"/>
<path d="M16.5621 22.6495C17.4795 23.2744 18.517 23.7015 19.6085 23.9037C20.7 24.1059 21.8216 24.0787 22.902 23.8239C23.9824 23.5691 24.998 23.0922 25.8841 22.4236C26.7702 21.7549 27.5075 20.9092 28.049 19.9402C28.5906 18.9712 28.9245 17.9001 29.0296 16.795C29.1347 15.69 29.0087 14.5751 28.6596 13.5214C28.3104 12.4677 27.7458 11.4981 27.0017 10.6745C26.2575 9.85077 25.3501 9.19098 24.3371 8.73703C24.1146 8.62521 23.9379 8.43965 23.8371 8.21203C23.189 6.66823 22.0995 5.3502 20.7052 4.42331C19.3109 3.49642 17.6739 3.00195 15.9996 3.00195C14.3253 3.00195 12.6883 3.49642 11.294 4.42331C9.89964 5.3502 8.81011 6.66823 8.16207 8.21203C8.06123 8.43965 7.8845 8.62521 7.66207 8.73703C6.64908 9.19098 5.74164 9.85077 4.99747 10.6745C4.25331 11.4981 3.6887 12.4677 3.33957 13.5214C2.99044 14.5751 2.86443 15.69 2.96954 16.795C3.07465 17.9001 3.4086 18.9712 3.95013 19.9402C4.49166 20.9092 5.22892 21.7549 6.11503 22.4236C7.00114 23.0922 8.0167 23.5691 9.09711 23.8239C10.1775 24.0787 11.2992 24.1059 12.3906 23.9037C13.4821 23.7015 14.5196 23.2744 15.4371 22.6495C15.6042 22.5398 15.7997 22.4814 15.9996 22.4814C16.1995 22.4814 16.395 22.5398 16.5621 22.6495Z" stroke="#404040" stroke-width="2" stroke-linecap="round" stroke-linejoin="round"/>
</svg>