<svg width="32" height="33" viewBox="0 0 32 33" fill="none" xmlns="http://www.w3.org/2000/svg">
<path d="M11.6133 21.1628C12.7934 20.0306 14.3654 19.3984 16.0008 19.3984C17.6361 19.3984 19.2082 20.0306 20.3883 21.1628" stroke="black" stroke-width="2" stroke-linecap="round" stroke-linejoin="round"/>
<path d="M7.375 16.9092C9.68176 14.6584 12.777 13.3984 16 13.3984C19.223 13.3984 22.3182 14.6584 24.625 16.9092" stroke="black" stroke-width="2" stroke-linecap="round" stroke-linejoin="round"/>
<path d="M3.13672 12.6751C6.56529 9.29635 11.1856 7.40234 15.9992 7.40234C20.8128 7.40234 25.4331 9.29635 28.8617 12.6751" stroke="black" stroke-width="2" stroke-linecap="round" stroke-linejoin="round"/>
<path d="M16 26.8984C16.8284 26.8984 17.5 26.2269 17.5 25.3984C17.5 24.57 16.8284 23.8984 16 23.8984C15.1716 23.8984 14.5 24.57 14.5 25.3984C14.5 26.2269 15.1716 26.8984 16 26.8984Z" fill="black"/>
</svg>
