<svg xmlns="http://www.w3.org/2000/svg" width="33" height="35" viewBox="0 0 33 35" fill="none">
<path d="M7.06281 15.8288C7.04557 15.9057 7.02856 15.9827 7.0111 16.0596C6.68001 17.5258 6.3473 18.9919 6.01991 20.4586C5.98738 20.6045 5.93282 20.6558 5.79717 20.6218C5.66584 20.589 5.53105 20.5606 5.39459 20.5532C5.22062 20.5438 5.17418 20.4728 5.19956 20.2815C5.34379 19.1933 5.50021 18.1046 5.60188 17.016C5.72102 15.7415 5.78823 14.4669 5.87823 13.1924C5.88326 13.1209 5.89141 13.0493 5.9009 12.948C5.98944 12.9679 6.06051 12.9781 6.12723 12.9998C8.18063 13.6679 10.2873 14.1648 12.4188 14.582C12.7467 14.6462 12.7276 14.6007 12.6659 14.9691C12.5738 15.5192 12.5754 15.5151 12.0587 15.4641C10.7513 15.3352 9.44337 15.2103 8.13543 15.0843C8.10074 15.081 8.06465 15.0849 8.00721 15.0859C8.02934 15.1376 8.03926 15.173 8.05768 15.2019C8.83976 16.4284 9.67131 17.61 10.6997 18.6182C12.8514 20.728 15.415 22.006 18.4776 22.2593C20.9557 22.4643 23.3779 21.9502 25.7435 20.8295C27.0281 20.2209 28.2252 19.4406 29.3597 18.5373C29.5936 18.3511 29.5956 18.3537 29.7487 18.5843C29.8348 18.7139 29.9157 18.848 30.0068 18.9734C30.1017 19.104 30.0707 19.1916 29.935 19.299C28.9579 20.0711 27.9447 20.775 26.8649 21.3594C24.8257 22.4631 22.7046 23.1435 20.4903 23.3161C16.9208 23.5944 13.791 22.6183 11.0805 20.4721C9.99606 19.6134 9.0468 18.6091 8.23316 17.4654C7.89126 16.9849 7.56631 16.4902 7.23388 16.0018C7.19237 15.9408 7.15262 15.8784 7.1121 15.8167C7.09562 15.8208 7.07915 15.8248 7.06283 15.8288L7.06281 15.8288Z" fill="white"/>
</svg>