<!-- <svg xmlns="http://www.w3.org/2000/svg" width="297" height="2131" viewBox="0 0 297 2131" fill="none">
<path fill-rule="evenodd" clip-rule="evenodd" d="M0 598.5H0.378387V2130.5H279.858C291.052 1985.33 271.657 1787.22 253.727 1604.07C243.629 1500.93 233.996 1402.53 230.552 1321C221.248 1100.76 240.802 956.623 258.301 827.634V827.634C273.02 719.135 286.286 621.352 279.702 498C278.254 470.872 276.796 445.126 275.409 420.625L275.406 420.581L275.405 420.564V420.563C264.315 224.692 257.726 108.319 296.511 0.5H0V598.5Z" fill="#282552"/>
</svg> -->
<svg xmlns="http://www.w3.org/2000/svg" width="297" height="26368" viewBox="0 0 297 26368" fill="none">
<path fill-rule="evenodd" clip-rule="evenodd" d="M0.863708 3855.05H0.484375V0.994141H296.998C258.212 695.877 264.801 1445.89 275.892 2708.26L275.893 2708.38L275.895 2708.68L275.902 2709.48L275.902 2709.49C277.287 2867.15 278.742 3032.8 280.188 3207.33C286.772 4002.31 273.506 4632.52 258.787 5331.78L258.787 5331.78C241.288 6163.1 221.735 7092.02 231.038 8511.47C234.482 9036.91 244.115 9671.08 254.213 10335.8C268.866 11300.4 284.496 12329.4 283.612 13184C284.496 14038.6 268.866 15067.6 254.213 16032.2C244.115 16696.9 234.482 17331.1 231.038 17856.5C221.735 19276 241.288 20204.9 258.787 21036.2C273.506 21735.5 286.772 22365.7 280.188 23160.7C278.742 23335.2 277.287 23500.9 275.902 23658.5L275.895 23659.3L275.893 23659.6L275.892 23659.7C264.801 24922.1 258.212 25672.1 296.997 26367H0.484375V22513H0.863741V13728.6H0.863708V3855.05Z" fill="#282552"/>
</svg>