<!-- <svg xmlns="http://www.w3.org/2000/svg" width="297" height="2131" viewBox="0 0 297 2131" fill="none">
<path fill-rule="evenodd" clip-rule="evenodd" d="M0 598.5H0.378387V2130.5H279.858C291.052 1985.33 271.657 1787.22 253.727 1604.07C243.629 1500.93 233.996 1402.53 230.552 1321C221.248 1100.76 240.802 956.623 258.301 827.634V827.634C273.02 719.135 286.286 621.352 279.702 498C278.254 470.872 276.796 445.126 275.409 420.625L275.406 420.581L275.405 420.564V420.563C264.315 224.692 257.726 108.319 296.511 0.5H0V598.5Z" fill="#282552"/>
</svg> -->
<svg xmlns="http://www.w3.org/2000/svg" width="337" height="23465" viewBox="0 0 337 23465" fill="none">
<path fill-rule="evenodd" clip-rule="evenodd" d="M1.8867 11682.4H2.33396V10242.7H2.33392V8624.48H1.87891V7992.81H2.00067V6843.19H2.33002V4999.34H332.618C345.846 5174.06 322.926 5412.49 301.736 5632.92L301.735 5632.92C289.802 5757.06 278.417 5875.49 274.347 5973.61C263.352 6238.69 286.461 6412.16 307.142 6567.41C324.537 6697.99 340.215 6815.68 332.434 6964.14C324.914 7107.6 315.46 7185.76 306.157 7262.67C293.54 7366.97 281.202 7468.97 274.347 7728.4C272.398 7802.19 280.151 7875.17 288.018 7949.22C291.858 7985.38 295.726 8021.79 298.505 8058.66C314.569 8179.76 317.526 8237.74 323.315 8351.25V8351.26L323.315 8351.26C325.594 8395.93 328.31 8449.21 332.437 8518.31C340.219 8648.6 324.541 8751.89 307.146 8866.49C286.465 9002.74 263.356 9154.99 274.351 9387.62C278.421 9473.74 289.806 9577.68 301.739 9686.62L301.74 9686.62C319.046 9844.62 337.507 10013.2 336.486 10153.2C337.557 10293.3 319.071 10462 301.743 10620.2L301.743 10620.2C289.81 10729.2 278.425 10833.1 274.355 10919.2C263.36 11151.9 286.469 11304.1 307.15 11440.4C324.545 11555 340.223 11658.3 332.441 11788.5C330.729 11817.2 329.005 11844.4 327.364 11870.3C319.144 12000.1 313.017 12096.8 320.896 12179H1.8867V11682.4Z" fill="#282552"/>
<path fill-rule="evenodd" clip-rule="evenodd" d="M2.33392 1618.21H1.87891V2280.75H2.65304V5476.99C57.1908 5492.55 118.939 5500.9 188.707 5500.9C387.403 5500.9 341.519 5023.6 301.735 4609.75C289.802 4485.61 278.417 4367.18 274.347 4269.06C263.352 4003.98 286.461 3830.51 307.142 3675.27C324.537 3544.68 340.215 3426.99 332.434 3278.53C324.914 3135.07 315.46 3056.91 306.156 2980C293.54 2875.7 281.202 2773.7 274.347 2514.27C272.398 2440.49 280.151 2367.5 288.018 2293.45C288.467 2289.22 288.917 2284.98 289.365 2280.75H289.378C313.668 2109.37 316.568 2051.79 323.315 1917.83V1917.83V1917.83C325.594 1872.6 328.31 1818.66 332.437 1748.7C340.219 1616.78 324.541 1512.2 307.146 1396.17C286.465 1258.22 263.356 1104.08 274.351 868.538C278.421 781.347 289.806 676.115 301.739 565.81L301.74 565.808C323.059 368.75 346.129 155.501 332.377 0H2.33392V1618.21Z" fill="#282552"/>
<path fill-rule="evenodd" clip-rule="evenodd" d="M0.229668 12405H0.678093V13937H0.678772V15300H0.224731V15854.9L0 15855V16986.4H0.67407V18732H330.965C344.194 18566.6 321.273 18340.9 300.083 18132.2C288.149 18014.6 276.764 17902.5 272.694 17809.6C261.699 17558.7 284.808 17394.4 305.489 17247.5C322.884 17123.8 338.562 17012.4 330.781 16871.9C323.261 16736 313.807 16662 304.503 16589.2C291.887 16490.5 279.549 16393.9 272.694 16148.3C270.745 16078.5 278.498 16009.4 286.365 15939.3C290.207 15905 294.076 15870.5 296.855 15835.6C312.914 15721 315.871 15666.1 321.659 15558.7C323.938 15516.4 326.655 15465.9 330.782 15400.5C338.563 15277.1 322.885 15179.4 305.49 15070.9C284.809 14941.9 261.7 14797.7 272.695 14577.5C276.766 14496 288.15 14397.6 300.084 14294.4L300.084 14294.4C317.389 14144.9 335.848 13985.3 334.83 13852.8C335.903 13720.1 317.417 13560.3 300.088 13410.6L300.088 13410.6C288.154 13307.4 276.77 13209 272.7 13127.5C261.705 12907.3 284.813 12763.1 305.494 12634.1C322.89 12525.6 338.567 12427.9 330.786 12304.5C329.073 12277.3 327.349 12251.6 325.708 12227.1C315.857 12079.8 309.011 11977.5 325.683 11890H0.229668V12405Z" fill="#282552"/>
<path fill-rule="evenodd" clip-rule="evenodd" d="M0.678762 21933H0.224721V21378.1L0 21378V20246.6H0.673887V18501H330.965C344.194 18666.4 321.273 18892.1 300.083 19100.8C288.149 19218.4 276.764 19330.5 272.694 19423.4C261.699 19674.3 284.808 19838.6 305.489 19985.5C322.884 20109.2 338.562 20220.6 330.781 20361.1C323.261 20497 313.807 20570.9 304.503 20643.8C291.887 20742.5 279.549 20839.1 272.694 21084.7C270.745 21154.5 278.498 21223.6 286.365 21293.7C290.207 21328 294.076 21362.5 296.855 21397.4C312.914 21512 315.871 21566.9 321.659 21674.3C323.938 21716.6 326.655 21767.1 330.782 21832.5C338.563 21955.9 322.885 22053.6 305.49 22162.1C284.809 22291.1 261.7 22435.3 272.695 22655.5C276.766 22737 288.15 22835.4 300.084 22938.6L300.084 22938.6L300.084 22938.6C321.274 23121.7 344.195 23319.8 330.966 23465H0.678762V21933Z" fill="#282552"/>
</svg>