<svg width="301" height="75" viewBox="0 0 301 75" fill="none" xmlns="http://www.w3.org/2000/svg">
<mask id="mask0" mask-type="alpha" maskUnits="userSpaceOnUse" x="0" y="0" width="301" height="75">
<path d="M11.8125 25.7812L23.625 51.4219L35.3906 25.7812H47.25L23.5312 74.5781L0 25.7812H11.8125Z" fill="black"/>
<path d="M86.3906 25.7812H96.9844V71.4375H86.3906V66.6562C82.0469 70.7188 77.375 72.75 72.375 72.75C66.0625 72.75 60.8438 70.4688 56.7188 65.9062C52.625 61.25 50.5781 55.4375 50.5781 48.4688C50.5781 41.625 52.625 35.9219 56.7188 31.3594C60.8125 26.7969 65.9375 24.5156 72.0938 24.5156C77.4062 24.5156 82.1719 26.7031 86.3906 31.0781V25.7812ZM61.3594 48.4688C61.3594 52.8438 62.5312 56.4062 64.875 59.1562C67.2812 61.9375 70.3125 63.3281 73.9688 63.3281C77.875 63.3281 81.0312 61.9844 83.4375 59.2969C85.8438 56.5156 87.0469 52.9844 87.0469 48.7031C87.0469 44.4219 85.8438 40.8906 83.4375 38.1094C81.0312 35.3906 77.9062 34.0312 74.0625 34.0312C70.4375 34.0312 67.4062 35.4062 64.9688 38.1562C62.5625 40.9375 61.3594 44.375 61.3594 48.4688Z" fill="black"/>
<path d="M110.297 25.7812H120.844V29.8594C122.781 27.8281 124.5 26.4375 126 25.6875C127.531 24.9062 129.344 24.5156 131.438 24.5156C134.219 24.5156 137.125 25.4219 140.156 27.2344L135.328 36.8906C133.328 35.4531 131.375 34.7344 129.469 34.7344C123.719 34.7344 120.844 39.0781 120.844 47.7656V71.4375H110.297V25.7812Z" fill="black"/>
<path d="M158.25 25.7812V71.4375H147.703V25.7812H158.25ZM146.109 6.79688C146.109 4.95312 146.781 3.35938 148.125 2.01562C149.469 0.671875 151.078 0 152.953 0C154.859 0 156.484 0.671875 157.828 2.01562C159.172 3.32812 159.844 4.9375 159.844 6.84375C159.844 8.75 159.172 10.375 157.828 11.7188C156.516 13.0625 154.906 13.7344 153 13.7344C151.094 13.7344 149.469 13.0625 148.125 11.7188C146.781 10.375 146.109 8.73438 146.109 6.79688Z" fill="black"/>
<path d="M205.266 25.7812H215.859V71.4375H205.266V66.6562C200.922 70.7188 196.25 72.75 191.25 72.75C184.938 72.75 179.719 70.4688 175.594 65.9062C171.5 61.25 169.453 55.4375 169.453 48.4688C169.453 41.625 171.5 35.9219 175.594 31.3594C179.688 26.7969 184.812 24.5156 190.969 24.5156C196.281 24.5156 201.047 26.7031 205.266 31.0781V25.7812ZM180.234 48.4688C180.234 52.8438 181.406 56.4062 183.75 59.1562C186.156 61.9375 189.188 63.3281 192.844 63.3281C196.75 63.3281 199.906 61.9844 202.312 59.2969C204.719 56.5156 205.922 52.9844 205.922 48.7031C205.922 44.4219 204.719 40.8906 202.312 38.1094C199.906 35.3906 196.781 34.0312 192.938 34.0312C189.312 34.0312 186.281 35.4062 183.844 38.1562C181.438 40.9375 180.234 44.375 180.234 48.4688Z" fill="black"/>
<path d="M229.172 25.7812H239.766V30C243.453 26.3438 247.609 24.5156 252.234 24.5156C257.547 24.5156 261.688 26.1875 264.656 29.5312C267.219 32.375 268.5 37.0156 268.5 43.4531V71.4375H257.906V45.9375C257.906 41.4375 257.281 38.3281 256.031 36.6094C254.812 34.8594 252.594 33.9844 249.375 33.9844C245.875 33.9844 243.391 35.1406 241.922 37.4531C240.484 39.7344 239.766 43.7188 239.766 49.4062V71.4375H229.172V25.7812Z" fill="black"/>
<path d="M292.734 35.625V71.4375H282.188V35.625H277.688V25.7812H282.188V9.04688H292.734V25.7812H300.938V35.625H292.734Z" fill="black"/>
</mask>
<g mask="url(#mask0)">
<path fill-rule="evenodd" clip-rule="evenodd" d="M2159 1317.54H-1058V-988H2159V1317.54Z" fill="#03DAC6"/>
<path fill-rule="evenodd" clip-rule="evenodd" d="M310.84 0.566681C328.314 -21.5315 366.281 -64.2441 354.89 -98.0978C347.531 -119.971 325.14 -121.503 304.362 -133.472C292.979 -140.029 281.692 -146.485 274.525 -168.655C254.276 -231.302 262.956 -266.956 201.981 -300.86C141.006 -334.764 179.29 -275.282 179.29 -275.282L58.3455 -199.972C58.3455 -199.972 94.1797 -168.655 133.729 -132.586C173.279 -96.5176 194.064 -100.88 233.187 -76.8564C282.671 -46.4716 310.84 0.566681 310.84 0.566681Z" fill="#EDE8D7"/>
<path fill-rule="evenodd" clip-rule="evenodd" d="M682.5 397.499L679.471 422.487L600.066 456.883H538.467L480.238 521.849L330.09 347.16L287.259 387.103L233.244 269.837C233.244 269.837 231.657 253.288 246.433 236.879C256.713 225.465 286.141 219.342 286.141 219.342C286.141 219.342 261.357 197.01 247.088 171.489C234.168 148.38 226.184 123.549 227.373 107.505C231.437 52.6411 310.839 0.566467 310.839 0.566467L332.497 19.4352C332.497 19.4352 418.639 143.594 415.269 225.887C415.269 225.887 457.791 197.577 512.326 228.094C566.86 258.612 531.218 246.292 542.428 267.762C566.677 314.208 528.118 371.813 556.327 401.71C570.579 416.818 597.051 420.026 617.009 415.207C640.329 409.577 656.256 394.308 656.256 394.308L651.078 349.084L682.5 397.499Z" fill="#333333"/>
<path fill-rule="evenodd" clip-rule="evenodd" d="M151.163 76.6899C151.163 76.6899 115.786 50.1149 114.003 21.5547C112.693 0.567307 122.592 -29.25 164.866 -41.2242C164.866 -41.2242 136.651 -74.4092 77.3203 -89.7736L51.2838 -64.5906L43.174 42.1177L147.322 104.008L151.163 76.6899Z" fill="#FFC4BC"/>
<path fill-rule="evenodd" clip-rule="evenodd" d="M77.3204 -89.7739C86.197 -124.385 31.6645 -107.869 27.8162 -145.062C23.9695 -182.253 58.344 -199.974 58.344 -199.974C58.344 -199.974 6.61824 -229.897 -16.0393 -266.662C-38.6969 -303.425 -47.6731 -332.067 -47.6731 -332.067C-47.6731 -332.067 -40.4056 -303.425 -92.5606 -294.021C-117.215 -289.575 -138.729 -279.356 -143.859 -264.096C-149.578 -247.075 -151.874 -210.966 -124.149 -185.72C-71.5668 -137.839 -50.2386 -100.369 -50.2386 -100.369C-50.2386 -100.369 12.6029 -102.933 16.8772 -31.9702C19.2435 7.30719 10.7398 38.7256 9.70462 61.6355C8.87033 80.1184 25.294 106.838 43.8091 113.901C85.2759 129.717 116.056 113.805 116.056 113.805L148.738 74.8474C148.738 74.8474 96.1586 68.7052 74.5893 30.0162C52.1745 -10.1871 67.8298 -52.7663 77.3204 -89.7739Z" fill="#E61A6B"/>
<path fill-rule="evenodd" clip-rule="evenodd" d="M4.53467 128.766C4.53467 128.766 -34.4662 101.368 -23.733 44.9777C-23.733 44.9777 -41.4443 101.528 -56.783 119.078C-56.783 119.078 -72.2985 127.551 -69.5239 129.194C-63.8254 132.571 -35.2732 130.477 -17.1086 130.477L4.53467 128.766Z" fill="#E61A6B"/>
<path fill-rule="evenodd" clip-rule="evenodd" d="M310.84 0.566675C310.84 0.566675 260.375 -24.6661 207.508 5.97266C207.508 5.97266 128.807 98.2602 108.98 120.906C89.1548 143.551 89.756 153.162 114.989 172.989C140.22 192.814 153.438 199.966 184.077 162.145C214.716 124.326 310.84 0.566675 310.84 0.566675Z" fill="#423D89"/>
<path fill-rule="evenodd" clip-rule="evenodd" d="M364.31 150.76C294.018 122.523 254.367 95.4886 310.84 32.4075C367.313 -30.6736 403.787 -70.2676 375.628 -119.672C356.498 -153.232 330.064 -189.278 349.29 -223.167C374.681 -267.928 420.951 -257.286 395.633 -344.037C395.633 -344.037 331.778 -299.786 233.34 -393.54C198.801 -426.437 216.831 -387.779 216.831 -387.779C216.831 -387.779 187.528 -423.613 190.624 -468.102C192.481 -494.794 199.063 -529.186 241.26 -554.504C241.26 -554.504 297.541 -518.28 361.42 -460.868C402.02 -424.376 443.44 -377.282 482.661 -332.068V-209.118C482.661 -209.118 421.382 -238.917 401.557 -207.489C394.992 -197.081 398.4 -179.059 409.987 -163.848C433.384 -133.127 477.472 -98.2893 451.46 -51.6834C440.526 -32.093 403.96 8.3772 406.363 74.4611C408.767 140.547 465.165 175.392 465.165 175.392C465.165 175.392 434.599 178.996 364.31 150.76Z" fill="#423D89"/>
</g>
</svg>
