<svg width="1398" height="3210" xmlns="http://www.w3.org/2000/svg"><g fill="none" fill-rule="evenodd" opacity=".333"><g fill="#FF0166" fill-opacity=".71"><path opacity=".9" d="M1248.751 988.725l5.343-1.572-1.963 5.147 3.193 4.536-5.577-.277-3.369 4.375-1.484-5.319-5.276-1.832 4.66-3.01.109-5.507z"/><path opacity=".86" d="M1235.885 776.377l-3.896-3.98 5.466-.683 2.506-4.949 2.374 5.055 5.445.92-4 3.808.86 5.518-4.846-2.701-4.913 2.49z"/><path opacity=".81" d="M942.107 2618.064l-4.074-5.668 6.972.212 4.125-5.629 1.955 6.703 6.624 2.19-5.764 3.93-.031 6.982-5.517-4.273-6.643 2.125z"/><path opacity=".92" d="M1105.54 1185.02l-5.113-3.637 5.962-1.846 1.838-5.987 3.623 5.134 6.249-.063-3.723 5.019 2.023 5.948-5.924-2.032-4.998 3.739z"/><path opacity=".93" d="M1002.086 761.655l-3.707-3.67 5.09-.722 2.254-4.675 2.304 4.7 5.1.78-3.668 3.628.899 5.157-4.57-2.458-4.544 2.408z"/><path d="M1059.694 455.503l2.917-5.153 2.311 5.401 5.798 1.124-4.466 3.907.665 5.848-5.071-2.987-5.386 2.49 1.332-5.752-3.995-4.309zM1067.26 5.71l-1.093-4.375 4.058 1.724 3.727-2.475-.393 4.519 3.397 2.845-4.301 1.069-1.628 4.234-2.264-3.859-4.403-.229z"/><path opacity=".77" d="M820.82 2386.203l-3.858 3.51-.456-5.122-4.55-2.494 4.814-2.055 1.046-5.052 3.432 3.852 5.197-.628-2.694 4.436 2.166 4.663z"/><path opacity=".72" d="M786.156 2259.76l-2.211-5.111 5.348 1.32 4.113-3.722.404 5.57 4.753 2.81-5.098 2.122-1.175 5.46-3.556-4.26-5.48.564z"/><path opacity=".92" d="M755.678 1772.813l-6.46 4.166.631-7.682-5.948-4.881 7.475-1.767 2.784-7.183 3.989 6.59 7.668.442-5.01 5.84 1.956 7.456z"/><path opacity=".96" d="M726.493 1401.82l3.47-3.893.99 5.046 4.786 2.005-4.573 2.547-.513 5.133-3.815-3.472-5.103 1.167 2.215-4.692-2.641-4.412z"/><path opacity=".95" d="M824.088 579.71l.156-5.567 4.289 3.457 5.3-1.635-1.987 5.219 3.12 4.556-5.517-.232-3.372 4.45-1.423-5.361-5.204-1.805z"/><path opacity=".84" d="M479.7 3199.337l4.716-1.19-1.864 4.397 2.661 4.033-4.867-.42-3.07 3.683-1.145-4.656-4.559-1.757 4.16-2.458.253-4.769z"/><path opacity=".81" d="M308.282 2865.731l4.17 3.266-5.341 1.306-2.073 4.953-2.754-4.46-5.45-.205 3.639-4.063-1.296-5.08 5.003 1.95 4.65-2.935z"/><path opacity=".71" d="M389.215 1486.555l1.28 5.781-5.331-2.467-5.06 3.044.704-5.892-4.408-3.9 5.768-1.174 2.335-5.455 2.86 5.167 5.852.529z"/><path opacity=".91" d="M458.621 1199.827l-1.586 4.968-2.956-4.207-5.188.115 3.142-4.187-1.62-4.898 4.898 1.62 4.187-3.142-.116 5.189 4.208 2.955z"/><path opacity=".85" d="M302.71 626.856l-3.096-5.458 6.184.847 4.196-4.65 1.114 6.185 5.69 2.584-5.496 2.974-.68 6.247-4.51-4.345-6.11 1.276z"/><path opacity=".77" d="M327.138 408.249l4.324 4.546-6.205.674-2.947 5.527-2.577-5.73-6.145-1.132 4.612-4.216-.851-6.225 5.427 3.125 5.62-2.716z"/><path opacity=".79" d="M465.2 71.89l-4.897-4.466 6.503-1.174 2.71-6.04 3.137 5.843 6.572.732-4.564 4.785 1.353 6.494-5.959-2.886-5.736 3.28z"/><path opacity=".77" d="M260.33 2629.067l4.876-4.49.602 6.581 5.782 3.226-6.095 2.617-1.302 6.483-4.37-4.964-6.586.781 3.395-5.684-2.769-6z"/><path opacity=".8" d="M178.884 2001.948l4.635-3.686.12 5.874 4.954 3.214-5.605 1.95-1.573 5.67-3.583-4.668-5.927.291 3.39-4.835-2.09-5.491z"/><path opacity=".82" d="M89.797 593.094l-2.846 3.942-1.4-4.566-4.63-1.379 3.998-2.807-.016-4.795 3.87 2.831 4.622-1.584-1.606 4.556 2.871 3.816z"/></g><g fill="#03DAC6" fill-rule="nonzero"><path opacity=".84" d="M1356.497 2915.118l-7.771 2.858-.973-1.851-2.942-5.597 1.247-3.216 3.909 7.438 7.77-2.859 3.846 7.318 7.771-2.858-1.24 3.226-7.772 2.858z"/><path opacity=".89" d="M1358.866 2811.916l6.069 4.738-.856 1.746-2.586 5.279-2.99.679 3.437-7.015-6.069-4.738 3.382-6.902-6.069-4.737 2.995-.689 6.069 4.738z"/><path opacity=".83" d="M1373.246 1296.112l-5.602 1.399-.637-1.312-1.926-3.966.98-2.081 2.558 5.27 5.602-1.398 2.518 5.185 5.602-1.399-.976 2.088-5.602 1.399z"/><path opacity=".72" d="M1005.488 2304.763l-.606-8.258 2.048-.425 6.191-1.285 2.748 2.085-8.228 1.708.606 8.257-8.094 1.68.606 8.258-2.76-2.082-.605-8.258z"/><path opacity=".87" d="M871.316 1737.308l-6.453-1.092.013-1.653.042-4.998 2.06-1.717-.055 6.641 6.454 1.092-.055 6.534 6.453 1.092-2.06 1.727-6.454-1.092z"/><path opacity=".74" d="M919.832 1051.026l-1.074-7.624 1.828-.661 5.528-2.001 2.622 1.588-7.345 2.66 1.074 7.623-7.227 2.615 1.075 7.624-2.633-1.585-1.074-7.623z"/><path opacity=".71" d="M608.812 2788.23l6.416-1.293.58 1.548 1.752 4.68-1.309 2.342-2.328-6.22-6.416 1.294-2.29-6.12-6.417 1.294 1.306-2.351 6.416-1.293z"/><path opacity=".7" d="M727.08 2020.008l-2.08 6.407-1.69-.18-5.116-.547-1.453-2.255 6.797.726 2.08-6.407 6.686.715 2.08-6.408 1.462 2.256-2.08 6.408z"/><path opacity=".82" d="M755.474 805.262l5.706 2.802-.547 1.51-1.655 4.563-2.491.997 2.2-6.065-5.707-2.801 2.164-5.967-5.707-2.801 2.494-1.006 5.707 2.802z"/><path opacity=".76" d="M440.651 2438.664l6.533-.388.359 1.614 1.083 4.879-1.621 2.137-1.44-6.484-6.534.388-1.416-6.378-6.534.387 1.62-2.146 6.533-.387zM552.953 818.974l.526-6.523 1.647-.13 4.983-.395 1.89 1.903-6.62.524-.526 6.524-6.514.515-.525 6.524-1.9-1.903.526-6.524z"/><path opacity=".89" d="M254.728 2966.733l-3.905-3.724.847-1.068 2.562-3.228 2.295-.153-3.405 4.29 3.905 3.724-3.35 4.22 3.906 3.724-2.3.16-3.904-3.725z"/><path opacity=".7" d="M12.06 2423.977l7.276-1.844.762 1.736 2.305 5.249-1.354 2.751-3.062-6.975-7.277 1.844-3.012-6.863-7.277 1.844 1.35-2.76 7.276-1.845z"/><path opacity=".9" d="M121.094 2244.68l-1.782 5.492-1.45-.156-4.384-.468-1.246-1.933 5.826.623 1.782-5.493 5.732.613 1.782-5.492 1.253 1.934-1.782 5.492z"/><path d="M155.1 1600.504l-1.902 5.05-1.314-.363-3.972-1.097-1.037-2.052 5.278 1.458 1.903-5.05 5.193 1.434 1.902-5.05 1.045 2.055-1.902 5.05z"/><path opacity=".89" d="M43.595 1065.681l-2.294 5.93-1.55-.414-4.692-1.251-1.21-2.395 6.234 1.663 2.293-5.929 6.133 1.636 2.293-5.93 1.219 2.397-2.294 5.93z"/><path opacity=".82" d="M217.394 898.452l-.538-6.334 1.576-.308 4.765-.932 2.137 1.621-6.331 1.239.537 6.334-6.229 1.218.538 6.335-2.146-1.62-.538-6.334z"/></g><g transform="translate(44 140)" fill="#6200EE" fill-opacity=".53"><circle opacity=".99" transform="rotate(96 1294.259 2118.56)" cx="1294.259" cy="2118.559" r="6.5"/><circle opacity=".91" transform="rotate(-91 1189.835 1879.781)" cx="1189.835" cy="1879.781" r="6.5"/><circle opacity=".81" transform="rotate(90 1311.895 388.659)" cx="1311.895" cy="388.659" r="4.5"/><circle opacity=".93" transform="rotate(-122 1290.803 90.605)" cx="1290.803" cy="90.605" r="5"/><circle opacity=".83" transform="rotate(47 1204.871 9.756)" cx="1204.871" cy="9.756" r="6.5"/><circle opacity=".93" transform="rotate(-78 988.02 2954.555)" cx="988.02" cy="2954.555" r="6.5"/><circle transform="rotate(124 919.505 2785.28)" cx="919.505" cy="2785.28" r="7"/><circle opacity=".9" transform="rotate(8 913.989 2610.33)" cx="913.989" cy="2610.329" r="5.5"/><circle opacity=".89" transform="rotate(39 896.597 1401.9)" cx="896.597" cy="1401.901" r="6"/><circle opacity=".94" transform="rotate(171 1051.515 1328.837)" cx="1051.515" cy="1328.837" r="6"/><circle opacity=".87" transform="rotate(-84 777.933 2769.768)" cx="777.933" cy="2769.768" r="6"/><circle opacity=".92" transform="rotate(119 706.165 2441.763)" cx="706.165" cy="2441.764" r="6.5"/><circle opacity=".73" transform="rotate(76 715.742 1434.435)" cx="715.742" cy="1434.435" r="4.5"/><circle opacity=".94" transform="rotate(-130 724.237 1033.91)" cx="724.237" cy="1033.91" r="6.5"/><circle opacity=".93" transform="rotate(52 654.692 978.914)" cx="654.692" cy="978.914" r="5.5"/><circle opacity=".91" transform="rotate(-126 753.25 180.591)" cx="753.251" cy="180.591" r="5.5"/><circle opacity=".9" transform="rotate(-161 284.884 2583.456)" cx="284.884" cy="2583.456" r="4.5"/><circle opacity=".85" transform="rotate(102 431.106 2351.128)" cx="431.106" cy="2351.128" r="5.5"/><circle opacity=".78" transform="rotate(116 303.886 1616.309)" cx="303.886" cy="1616.309" r="5"/><circle opacity=".95" transform="rotate(-132 390.894 195.218)" cx="390.894" cy="195.218" r="6.5"/><circle opacity=".7" transform="rotate(-51 8.914 2962.73)" cx="8.914" cy="2962.73" r="6"/><circle opacity=".81" transform="rotate(-164 167.567 1353.198)" cx="167.567" cy="1353.198" r="6"/></g><g fill="#33333D" fill-rule="nonzero"><path d="M1394.11 3148.813c-1.485 1.208-2.332 1.711-3.445 1.69-1.702-.03-1.77-2.794-2.24-5.314l2.239.306c.169.908.015 2.333.534 2.502.52.168 1.535-.554 2.149-1.229.97-.793 1.14-.954 1.387-1.113 1.256-.806 1.89-.688 2.686.647.532.893.657 2.44.478 5.026l-2.406-.274c.111-1.598.083-2.699-.026-3.302-.254.162-.235.148-1.357 1.061z" opacity=".81"/><path d="M1243.788 2563.391c-.242-2.193-.197-3.333.528-4.425 1.111-1.67 3.863-.086 6.628.954l-1.72 2.037c-.997-.375-2.295-1.38-2.79-.965-.494.415-.431 1.853-.159 2.865.162 1.436.212 1.7.21 2.041-.007 1.727-.526 2.286-2.338 2.277-1.212-.006-2.808-.806-5.226-2.529l1.794-2.222c1.495 1.065 2.591 1.695 3.252 1.947.002-.348.003-.321-.18-1.98z" opacity=".83"/><path d="M1164.43 2284.994c-1.226 1.129-1.942 1.613-2.947 1.665-1.537.079-1.853-2.29-2.506-4.424l2.044.124c.236.77.228 2.002.712 2.114.483.113 1.332-.57 1.823-1.188.8-.74.939-.89 1.148-1.041 1.057-.77 1.64-.708 2.479.389.561.733.816 2.054.892 4.284l-2.192-.086c-.047-1.378-.174-2.321-.327-2.833-.214.155-.198.142-1.125.996z" opacity=".86"/><path d="M1373.789 1773.318c-1.746.783-2.694 1.05-3.764.742-1.636-.47-.987-3.158-.788-5.713l2.083.874c-.072.922-.59 2.258-.131 2.555.458.297 1.626-.137 2.393-.63 1.142-.516 1.347-.627 1.628-.717 1.422-.453 2.004-.174 2.427 1.32.282 1.001.003 2.528-.84 4.979l-2.252-.888c.52-1.514.778-2.585.83-3.196-.288.091-.266.083-1.586.674z" opacity=".87"/><path d="M1345.813 1545.94c-2.161-.447-3.232-.842-4.046-1.87-1.245-1.572 1.112-3.7 2.956-6.008l1.406 2.264c-.666.833-2.022 1.757-1.78 2.356.242.598 1.629.983 2.675 1.037 1.415.29 1.682.324 2.006.43 1.64.54 2.011 1.207 1.443 2.928-.38 1.151-1.634 2.421-4.02 4.19l-1.558-2.394c1.474-1.093 2.412-1.94 2.856-2.49-.33-.11-.305-.104-1.938-.442zM1332.167 1476.305c.492-2.954.962-4.417 2.278-5.53 2.012-1.704 4.918 1.513 8.04 4.03l-2.916 1.924c-1.126-.907-2.404-2.76-3.18-2.428-.777.33-1.22 2.226-1.243 3.657-.317 1.934-.35 2.299-.476 2.742-.636 2.242-1.495 2.75-3.786 1.975-1.531-.518-3.26-2.23-5.694-5.488l3.078-2.133c1.504 2.013 2.663 3.294 3.407 3.9.129-.452.121-.416.492-2.65z"/><path d="M1231.198 644.144c-2.718-.398-4.075-.807-5.148-2.015-1.643-1.848 1.168-4.636 3.33-7.611l1.884 2.688c-.78 1.073-2.415 2.309-2.08 3.028.336.72 2.087 1.095 3.394 1.087 1.78.255 2.114.278 2.524.387 2.074.548 2.575 1.342 1.968 3.502-.407 1.445-1.895 3.099-4.763 5.447l-2.081-2.836c1.772-1.451 2.89-2.563 3.412-3.272-.418-.112-.386-.105-2.44-.405z" opacity=".92"/><path d="M874.903 2128.988c.873 1.703 1.188 2.636.937 3.72-.384 1.659-3.102 1.151-5.664 1.086l.764-2.126c.924.024 2.286.47 2.559-.002.272-.474-.222-1.617-.755-2.358-.575-1.113-.696-1.312-.8-1.588-.528-1.396-.28-1.992 1.191-2.492.984-.335 2.524-.136 5.015.577l-.768 2.296c-1.54-.44-2.622-.642-3.235-.661.105.282.096.26.756 1.548z" opacity=".81"/><path d="M895.78 1937.288c1.919-.404 2.939-.462 4.007.094 1.633.851.592 3.45.036 6.015l-2.042-1.364c.201-.925.92-2.174.486-2.58-.435-.408-1.705-.229-2.57.102-1.254.268-1.483.335-1.786.363-1.537.142-2.103-.275-2.337-1.898-.157-1.086.342-2.583 1.551-4.896l2.216 1.416c-.747 1.43-1.161 2.465-1.298 3.078.31-.028.287-.025 1.737-.33z" opacity=".95"/><path d="M1091.332 666.21c1.93.972 2.836 1.606 3.309 2.73.723 1.722-2.157 2.976-4.602 4.527l-.672-2.377c.882-.559 2.45-1.015 2.397-1.609-.053-.593-1.264-1.303-2.247-1.629-1.266-.632-1.51-.734-1.788-.914-1.406-.914-1.563-1.602-.51-2.972.703-.917 2.277-1.706 5.078-2.634l.78 2.53c-1.731.574-2.878 1.074-3.465 1.442.283.186.26.172 1.72.907z" opacity=".9"/><path d="M941.99 240.908c-2.205 1.561-3.436 2.189-4.955 2.05-2.324-.212-2.018-4.126-2.294-7.734l3.017.653c.1 1.3-.318 3.3.369 3.59.686.288 2.18-.631 3.117-1.525 1.44-1.026 1.696-1.236 2.058-1.437 1.834-1.015 2.685-.785 3.58 1.18.598 1.315.546 3.515-.073 7.152l-3.251-.625c.383-2.247.504-3.806.442-4.67-.37.204-.343.186-2.01 1.366z" opacity=".79"/><path d="M675.307 3114.013c2.742.159 4.13.449 5.304 1.558 1.797 1.697-.76 4.72-2.654 7.873l-2.111-2.514c.683-1.137 2.205-2.51 1.807-3.198-.397-.688-2.173-.91-3.475-.787-1.795-.1-2.13-.093-2.548-.165-2.114-.366-2.683-1.113-2.266-3.318.28-1.475 1.618-3.252 4.27-5.841l2.321 2.644c-1.64 1.6-2.657 2.805-3.115 3.557.427.074.394.07 2.467.19z" opacity=".8"/><path d="M587.482 415.333c-1.278-2.094-1.77-3.255-1.552-4.656.334-2.144 3.86-1.725 7.143-1.856l-.776 2.77c-1.184.047-2.968-.408-3.272.217-.304.625.437 2.039 1.19 2.937.84 1.369 1.014 1.613 1.174 1.955.807 1.732.546 2.512-1.288 3.272-1.228.508-3.216.383-6.47-.316l.764-2.986c2.011.432 3.416.598 4.202.57-.163-.35-.149-.323-1.115-1.907z" opacity=".93"/><path d="M649.483 124.095c.115 2.498-.02 3.789-.93 4.993-1.39 1.842-4.416-.08-7.498-1.385l2.113-2.23c1.111.47 2.52 1.668 3.115 1.22.596-.447.63-2.08.393-3.24-.08-1.634-.117-1.936-.09-2.323.135-1.957.768-2.567 2.838-2.474 1.384.063 3.147 1.043 5.783 3.106l-2.213 2.437c-1.629-1.275-2.835-2.04-3.57-2.356-.028.395-.028.364.059 2.252z" opacity=".85"/><path d="M353.508 2263.414c-.026 2.453-.223 3.699-1.151 4.771-1.42 1.64-4.187-.582-7.041-2.211l2.125-1.938c1.03.588 2.302 1.92 2.89 1.55.59-.369.71-1.96.549-3.121.013-1.606-.007-1.906.04-2.28.233-1.897.867-2.42 2.826-2.092 1.31.219 2.93 1.378 5.32 3.696l-2.232 2.128c-1.476-1.433-2.58-2.318-3.26-2.711-.048.383-.046.353-.066 2.208z" opacity=".79"/><path d="M469.097 1976.428c-2.052.678-3.14.87-4.27.409-1.73-.706-.58-3.63.053-6.454l2.155 1.205c-.228 1.019-1.014 2.45-.557 2.833.457.381 1.815.027 2.741-.438 1.342-.447 1.587-.549 1.911-.617 1.64-.348 2.238.027 2.463 1.74.15 1.146-.405 2.817-1.73 5.454l-2.34-1.238c.819-1.63 1.276-2.794 1.43-3.47-.33.07-.305.063-1.856.576z"/><path d="M467.437 1650.295c2.414-.443 3.674-.486 4.904.22 1.881 1.08.227 4.221-.828 7.333l-2.307-1.716c.38-1.123 1.445-2.626.97-3.133-.475-.508-2.06-.323-3.168.057-1.58.294-1.87.37-2.247.396-1.906.133-2.54-.39-2.592-2.375-.035-1.328.794-3.14 2.613-5.927l2.514 1.784c-1.124 1.723-1.782 2.974-2.039 3.718.385-.026.356-.022 2.18-.357z" opacity=".79"/><path d="M229.642 2800.442c1.655 2.495 2.31 3.887 2.107 5.598-.31 2.618-4.63 2.247-8.63 2.535l.82-3.396c1.443-.103 3.64.38 3.983-.392.342-.772-.627-2.46-1.585-3.523-1.088-1.63-1.312-1.92-1.522-2.33-1.064-2.073-.782-3.03 1.421-4.026 1.474-.665 3.905-.592 7.908.13l-.797 3.659c-2.473-.446-4.194-.592-5.151-.529.213.42.195.388 1.446 2.274z" opacity=".81"/><path d="M115.137 1733.828c.204 1.903.165 2.887-.458 3.809-.954 1.41-3.31-.037-5.677-1.016l1.475-1.71c.854.352 1.965 1.258 2.39.914.423-.345.371-1.59.14-2.472-.138-1.245-.18-1.475-.179-1.77.008-1.491.453-1.96 2.006-1.9 1.038.041 2.404.779 4.475 2.337l-1.54 1.868c-1.28-.963-2.218-1.539-2.784-1.776-.002.3-.003.278.152 1.716z" opacity=".98"/><path d="M190.65 1274.693c-.015 2.747-.232 4.148-1.279 5.38-1.6 1.883-4.753-.513-8-2.24l2.4-2.24c1.17.624 2.622 2.071 3.288 1.638.666-.432.794-2.218.603-3.511.006-1.798-.018-2.132.033-2.553.254-2.131.97-2.738 3.194-2.437 1.487.202 3.332 1.445 6.057 3.959l-2.52 2.456c-1.683-1.554-2.94-2.507-3.714-2.925-.053.43-.05.397-.062 2.473z" opacity=".93"/></g><g opacity=".885" fill="#03DAC6" fill-rule="nonzero"><path d="M1330.325 3139.171l-2.235 6.14 2.235-6.14zm1.38-6.45l.854.31-4.788 13.156-.854-.31 4.788-13.156zm-3.943 5.517l-2.235 6.14 2.235-6.14zm2.234-6.139l.855.31-4.789 13.157-.854-.311 4.788-13.156zm-1.708-.622l-2.235 6.14 2.235-6.14zm-2.235 6.14l-2.234 6.139 2.234-6.14zm2.235-6.14l.854.311-4.788 13.156-.854-.311 4.788-13.156zm-2.563-.933l-2.234 6.14 2.234-6.14zm-2.234 6.14l-2.235 6.139 2.235-6.14zm3.088-5.829l.855.311-4.789 13.156-.854-.311 4.788-13.156zm-3.417-1.243l-2.234 6.139 2.234-6.14zm-2.234 6.139l-2.235 6.14 2.235-6.14zm3.943-5.518l.854.311-4.788 13.156-.854-.31 4.788-13.157z" opacity=".88"/><path d="M1303.762 2955.846l3.63-3.63-3.63 3.63zm-3.115 4.144l-.514-.514 7.778-7.778.514.514-7.778 7.778zm4.658-2.601l3.63-3.63-3.63 3.63zm-3.63 3.63l-.514-.515 7.778-7.778.515.515-7.779 7.778zm1.029 1.028l3.63-3.63-3.63 3.63zm3.63-3.63l3.63-3.63-3.63 3.63zm-3.63 3.63l-.514-.514 7.778-7.778.514.514-7.778 7.778zm1.543 1.543l3.63-3.63-3.63 3.63zm3.63-3.63l3.63-3.63-3.63 3.63zm-4.145 3.116l-.514-.514 7.778-7.779.515.515-7.779 7.778zm2.058 2.057l3.63-3.63-3.63 3.63zm3.63-3.63l3.63-3.63-3.63 3.63zm-4.659 2.601l-.514-.514 7.778-7.778.514.514-7.778 7.778z" opacity=".74"/><path d="M1324.037 2750.466l3.967 6.87-3.967-6.87zm-4.99-6.28l1.023-.59 8.5 14.722-1.023.591-8.5-14.722zm1.92 8.053l3.966 6.87-3.967-6.87zm-3.967-6.87l1.023-.591 8.5 14.722-1.023.591-8.5-14.722zm-2.047 1.182l3.967 6.87-3.967-6.87zm3.967 6.87l3.966 6.87-3.966-6.87zm-3.967-6.87l1.023-.591 8.5 14.722-1.023.591-8.5-14.722zm-3.07 1.772l3.966 6.87-3.967-6.87zm3.966 6.87l3.967 6.871-3.967-6.87zm-2.943-7.46l1.023-.592 8.5 14.723-1.023.59-8.5-14.722zm-4.094 2.363l3.967 6.87-3.967-6.87zm3.967 6.87l3.966 6.87-3.966-6.87zm-1.92-8.052l1.023-.59 8.5 14.722-1.023.59-8.5-14.722z" opacity=".86"/><path d="M1316.283 2576.813l-7.438-.65 7.438.65zm7.526-.345l-.087.996-15.94-1.394.088-.997 15.939 1.395zm-7.264-2.643l-7.438-.651 7.438.65zm7.438.65l-.087.997-15.94-1.395.088-.996 15.939 1.395zm.174-1.992l-7.438-.65 7.438.65zm-7.438-.65l-7.438-.651 7.438.65zm7.438.65l-.087.996-15.939-1.394.087-.996 15.94 1.394zm.262-2.988l-7.438-.651 7.438.65zm-7.438-.651l-7.439-.651 7.439.65zm7.35 1.647l-.086.996-15.94-1.395.088-.996 15.939 1.395zm.35-3.985l-7.439-.65 7.438.65zm-7.439-.65l-7.438-.652 7.438.651zm7.264 2.642l-.087.997-15.94-1.395.088-.996 15.939 1.394z" opacity=".72"/><path d="M1077.467 2363.546l-3.651 4.845 3.65-4.845zm2.925-5.392l.726.547-7.824 10.383-.726-.547 7.824-10.383zm-5.103 3.751l-3.651 4.845 3.65-4.845zm3.65-4.845l.727.547-7.824 10.382-.726-.547 7.824-10.382zm-1.451-1.094l-3.651 4.845 3.65-4.845zm-3.651 4.845l-3.651 4.845 3.65-4.845zm3.65-4.845l.727.547-7.824 10.382-.726-.547 7.824-10.382zm-2.178-1.641l-3.65 4.845 3.65-4.845zm-3.65 4.845l-3.652 4.845 3.651-4.845zm4.376-4.298l.727.547-7.824 10.382-.726-.547 7.823-10.382zm-2.904-2.189l-3.65 4.845 3.65-4.845zm-3.65 4.845l-3.652 4.845 3.651-4.845zm5.102-3.75l.726.547-7.823 10.382-.726-.547 7.823-10.383z" opacity=".8"/><path d="M1316.237 2209.702l-6.336 4.774 6.336-4.774zm5.624-5.719l.712.944-13.577 10.231-.711-.944 13.576-10.23zm-7.758 2.887l-6.336 4.775 6.336-4.775zm6.336-4.774l.711.944-13.577 10.23-.71-.943 13.576-10.231zm-1.423-1.888l-6.335 4.774 6.335-4.774zm-6.335 4.774l-6.336 4.775 6.336-4.775zm6.335-4.774l.712.944-13.577 10.23-.711-.943 13.576-10.231zm-2.133-2.831l-6.336 4.774 6.336-4.774zm-6.336 4.774l-6.336 4.774 6.336-4.774zm7.047-3.83l.711.943-13.577 10.231-.71-.944 13.576-10.23zm-2.845-3.776l-6.336 4.774 6.336-4.774zm-6.336 4.774l-6.336 4.775 6.336-4.775zm7.759-2.886l.71.944-13.576 10.23-.711-.943 13.577-10.231z" opacity=".95"/><path d="M1363.925 1998.047l1.314-8.296-1.314 8.296zm-.146 8.482l-1.168-.185 2.816-17.779 1.167.185-2.815 17.779zm3.648-7.927l1.314-8.297-1.314 8.297zm-1.314 8.297l-1.167-.185 2.816-17.779 1.167.185-2.816 17.779zm2.335.37l1.314-8.297-1.314 8.296zm1.314-8.297l1.314-8.297-1.314 8.297zm-1.314 8.296l-1.168-.185 2.816-17.778 1.167.185-2.815 17.778zm3.501.555l1.315-8.297-1.315 8.297zm1.315-8.297l1.314-8.296-1.314 8.296zm-2.482 8.112l-1.167-.185 2.816-17.778 1.167.185-2.816 17.778zm4.67.74l1.313-8.297-1.314 8.297zm1.313-8.297l1.314-8.297-1.314 8.297zm-3.648 7.927l-1.168-.185 2.816-17.778 1.168.184-2.816 17.779z" opacity=".97"/><path d="M1113.19 1724.385l7.213 1.933-7.212-1.933zm-7.494-.879l.283-1.053 15.454 4.14-.282 1.054-15.455-4.14zm6.648 4.04l7.212 1.933-7.212-1.933zm-7.212-1.932l.282-1.054 15.455 4.141-.283 1.054-15.454-4.141zm-.565 2.107l7.212 1.933-7.212-1.933zm7.212 1.933l7.212 1.932-7.212-1.932zm-7.212-1.933l.282-1.053 15.455 4.14-.282 1.054-15.455-4.14zm-.847 3.161l7.212 1.933-7.212-1.933zm7.212 1.933l7.212 1.933-7.212-1.933zm-6.93-2.986l.282-1.054 15.455 4.141-.282 1.054-15.455-4.141zm-1.13 4.215l7.213 1.932-7.212-1.932zm7.213 1.932l7.212 1.933-7.212-1.933zm-6.648-4.04l.283-1.054 15.455 4.142-.283 1.053-15.455-4.14z"/><path d="M984.898 1628l5.088 3.304-5.088-3.305zm-5.534-2.619l.446-.686 10.903 7.08-.446.687-10.903-7.08zm4.197 4.677l5.088 3.304-5.088-3.304zm-5.088-3.304l.446-.686 10.902 7.08-.445.686-10.903-7.08zm-.891 1.372l5.088 3.304-5.088-3.304zm5.088 3.304l5.088 3.304-5.088-3.304zm-5.088-3.304l.445-.686 10.903 7.08-.445.687-10.903-7.08zm-1.337 2.059l5.088 3.304-5.088-3.304zm5.088 3.304l5.088 3.304-5.088-3.304zm-4.642-3.99l.445-.687 10.903 7.08-.446.687-10.902-7.08zm-1.783 2.744l5.088 3.304-5.088-3.304zm5.088 3.304l5.088 3.305-5.088-3.305zm-4.197-4.676l.446-.686 10.903 7.08-.446.686-10.903-7.08zM1376.692 1470.995l7.942 2.735-7.942-2.735zm-8.327-1.617l.385-1.118 17.019 5.86-.385 1.118-17.02-5.86zm7.173 4.97l7.942 2.734-7.942-2.735zm-7.943-2.735l.385-1.118 17.02 5.86-.385 1.118-17.02-5.86zm-.77 2.234l7.943 2.735-7.942-2.735zm7.943 2.735l7.943 2.735-7.943-2.735zm-7.942-2.735l.385-1.117 17.019 5.86-.385 1.118-17.02-5.86zm-1.154 3.353l7.942 2.735-7.942-2.735zm7.942 2.735l7.942 2.734-7.942-2.734zm-7.558-3.853l.385-1.117 17.02 5.86-.385 1.118-17.02-5.86zm-1.539 4.47l7.943 2.735-7.943-2.735zm7.943 2.735l7.942 2.735-7.942-2.735zm-7.173-4.97l.385-1.117 17.019 5.86-.385 1.117-17.02-5.86z" opacity=".89"/><path d="M1217.387 1167.417l-3.748 4.162 3.748-4.162zm3.139-4.71l.608.548-8.03 8.918-.608-.547 8.03-8.918zm-4.964 3.068l-3.747 4.161 3.747-4.161zm3.748-4.162l.608.547-8.03 8.918-.608-.547 8.03-8.918zm-1.216-1.095l-3.748 4.162 3.748-4.162zm-3.748 4.162l-3.747 4.161 3.747-4.161zm3.748-4.162l.608.548-8.03 8.917-.608-.547 8.03-8.918zm-1.825-1.642l-3.747 4.161 3.747-4.161zm-3.747 4.161l-3.747 4.162 3.747-4.162zm4.355-3.614l.608.548-8.03 8.917-.607-.547 8.03-8.918zm-2.432-2.19l-3.747 4.162 3.747-4.162zm-3.747 4.162l-3.747 4.161 3.747-4.161zm4.963-3.067l.608.548-8.03 8.917-.607-.547 8.03-8.918z" opacity=".7"/><path d="M1357.94 1004.288l-4.175-6.19 4.175 6.19zm5.08 5.58l-.904.61-8.947-13.264.904-.61 8.947 13.264zm-2.366-7.41l-4.176-6.19 4.176 6.19zm4.175 6.19l-.904.61-8.948-13.264.905-.61 8.947 13.264zm1.809-1.22l-4.176-6.19 4.176 6.19zm-4.176-6.19l-4.175-6.19 4.175 6.19zm4.176 6.19l-.905.61-8.947-13.264.905-.61 8.947 13.264zm2.713-1.83l-4.175-6.19 4.175 6.19zm-4.175-6.19l-4.176-6.19 4.176 6.19zm3.27 6.8l-.904.61-8.947-13.264.904-.61 8.948 13.264zm3.618-2.44l-4.175-6.19 4.175 6.19zm-4.175-6.19l-4.175-6.19 4.175 6.19zm2.366 7.41l-.904.61-8.947-13.264.904-.61 8.947 13.264z" opacity=".79"/><path d="M1105.117 873.048l-.732-8.368.732 8.368zm1.909 8.265l-1.177.103-1.57-17.932 1.178-.103 1.569 17.932zm1.623-8.574l-.733-8.368.733 8.368zm.732 8.368l-1.178.103-1.568-17.932 1.177-.103 1.569 17.932zm2.354-.206l-.732-8.368.732 8.368zm-.732-8.368l-.732-8.369.732 8.369zm.732 8.368l-1.177.103-1.569-17.932 1.178-.103 1.568 17.932zm3.532-.31l-.732-8.367.732 8.368zm-.732-8.367l-.732-8.369.732 8.369zm-.445 8.47l-1.177.104-1.57-17.932 1.178-.103 1.569 17.932zm4.71-.411l-.733-8.368.732 8.368zm-.733-8.368l-.732-8.369.732 8.369zm-1.622 8.574l-1.178.103-1.569-17.932 1.178-.103 1.569 17.932z" opacity=".98"/><path d="M1232.407 622.06l-8.114 2.174 8.114-2.174zm7.808-3.315l.306 1.141-17.387 4.659-.306-1.142 17.387-4.658zm-8.726-.11l-8.114 2.175 8.114-2.175zm8.114-2.174l.306 1.142-17.387 4.659-.306-1.142 17.387-4.659zm-.612-2.283l-8.114 2.174 8.114-2.174zm-8.114 2.174l-8.113 2.174 8.113-2.174zm8.114-2.174l.306 1.142-17.387 4.659-.305-1.142 17.386-4.659zm-.917-3.424l-8.114 2.174 8.114-2.174zm-8.114 2.174l-8.114 2.174 8.114-2.174zm8.42-1.033l.305 1.142-17.386 4.659-.306-1.142 17.386-4.659zm-1.224-4.566l-8.114 2.174 8.114-2.174zm-8.114 2.174l-8.114 2.174 8.114-2.174zm8.726.11l.306 1.14-17.387 4.66-.306-1.142 17.387-4.659z" opacity=".72"/><path d="M1267.077 472.494l3.09 4.1-3.09-4.1zm-3.67-3.662l.581-.437 6.62 8.785-.58.437-6.62-8.785zm1.928 4.976l3.09 4.1-3.09-4.1zm-3.09-4.1l.581-.438 6.62 8.785-.58.438-6.62-8.785zm-1.161.875l3.09 4.1-3.09-4.1zm3.09 4.1l3.089 4.1-3.09-4.1zm-3.09-4.1l.58-.437 6.62 8.785-.58.437-6.62-8.785zm-1.743 1.313l3.09 4.1-3.09-4.1zm3.09 4.1l3.089 4.1-3.09-4.1zm-2.509-4.537l.581-.438 6.62 8.785-.58.438-6.62-8.785zm-2.323 1.75l3.09 4.1-3.09-4.1zm3.09 4.1l3.089 4.1-3.09-4.1zm-1.928-4.975l.58-.438 6.62 8.785-.58.438-6.62-8.785zM1142.416 258.183l4.76 1.923-4.76-1.923zm-5.032-1.249l.272-.674 10.2 4.12-.273.675-10.2-4.12zm4.214 3.272l4.76 1.923-4.76-1.923zm-4.76-1.923l.273-.675 10.2 4.121-.273.674-10.2-4.12zm-.544 1.348l4.76 1.923-4.76-1.923zm4.76 1.923l4.759 1.923-4.76-1.923zm-4.76-1.923l.272-.674 10.2 4.12-.273.675-10.199-4.12zm-.817 2.023l4.76 1.923-4.76-1.923zm4.76 1.923l4.759 1.923-4.76-1.923zm-4.488-2.597l.273-.674 10.199 4.12-.273.675-10.199-4.121zm-1.09 2.697l4.76 1.923-4.76-1.923zm4.76 1.923l4.76 1.923-4.76-1.923zm-4.215-3.271l.273-.675 10.199 4.121-.273.674-10.199-4.12z" opacity=".89"/><path d="M1177.045 104.716l-4.774-5.12 4.774 5.12zm5.505 4.437l-.731.682-10.23-10.97.731-.682 10.23 10.97zm-3.311-6.483l-4.774-5.12 4.774 5.12zm4.774 5.12l-.731.681-10.23-10.97.731-.682 10.23 10.97zm1.463-1.365l-4.774-5.12 4.774 5.12zm-4.774-5.12l-4.774-5.119 4.774 5.12zm4.774 5.12l-.732.682-10.23-10.97.732-.682 10.23 10.97zm2.194-2.046l-4.774-5.12 4.774 5.12zm-4.774-5.12l-4.774-5.119 4.774 5.12zm4.042 5.802l-.73.682-10.23-10.97.73-.682 10.23 10.97zm2.926-2.728l-4.774-5.12 4.774 5.12zm-4.774-5.12l-4.774-5.119 4.774 5.12zm3.311 6.484l-.731.682-10.23-10.97.731-.682 10.23 10.97z" opacity=".77"/><path d="M610.577 3160.54l-4.437-4.137 4.437 4.138zm4.994 3.54l-.558.598-9.507-8.866.558-.598 9.507 8.866zm-3.32-5.334l-4.437-4.138 4.437 4.138zm4.436 4.137l-.558.599-9.507-8.866.558-.599 9.507 8.866zm1.116-1.197l-4.436-4.137 4.436 4.137zm-4.436-4.137l-4.437-4.137 4.437 4.137zm4.436 4.137l-.558.599-9.507-8.866.558-.599 9.507 8.866zm1.674-1.795l-4.436-4.137 4.436 4.137zm-4.436-4.137l-4.437-4.138 4.437 4.138zm3.878 4.736l-.558.598-9.507-8.866.558-.598 9.507 8.866zm2.232-2.394l-4.436-4.137 4.436 4.137zm-4.436-4.137l-4.437-4.138 4.437 4.138zm3.32 5.334l-.558.598-9.507-8.866.558-.598 9.507 8.866z" opacity=".86"/><path d="M677.323 3004.451l6.497.683-6.497-.683zm-6.593.221l.095-.904 13.924 1.464-.095.904-13.924-1.464zm6.308 2.491l6.497.683-6.497-.683zm-6.498-.683l.095-.904 13.923 1.464-.095.904-13.923-1.464zm-.19 1.809l6.498.683-6.498-.683zm6.498.683l6.497.682-6.497-.682zm-6.498-.683l.095-.904 13.923 1.463-.095.904-13.923-1.463zm-.285 2.712l6.498.683-6.498-.683zm6.498.683l6.497.683-6.497-.683zm-6.403-1.587l.095-.904 13.923 1.463-.095.904-13.923-1.463zm-.38 3.616l6.497.683-6.497-.683zm6.497.683l6.498.683-6.498-.683zm-6.307-2.49l.095-.905 13.923 1.463-.095.905-13.923-1.464z" opacity=".77"/><path d="M765.2 2670.19l4.114 5.664-4.115-5.663zm-4.924-5.075l.809-.587 8.817 12.135-.81.588-8.816-12.136zm2.496 6.84l4.115 5.662-4.115-5.663zm-4.114-5.664l.809-.588 8.817 12.136-.81.587-8.816-12.135zm-1.618 1.176l4.114 5.663-4.114-5.663zm4.114 5.663l4.115 5.663-4.115-5.663zm-4.114-5.663l.809-.588 8.817 12.135-.81.588-8.816-12.135zm-2.427 1.763l4.114 5.663-4.114-5.663zm4.114 5.663l4.115 5.663-4.115-5.663zm-3.305-6.25l.809-.589 8.816 12.136-.809.587-8.816-12.135zm-3.236 2.35l4.114 5.663-4.114-5.663zm4.114 5.663l4.115 5.664-4.115-5.664zm-2.496-6.838l.809-.588 8.816 12.135-.809.588-8.816-12.135z" opacity=".95"/><path d="M904.416 2580.829l7.76 1.65-7.76-1.65zm-7.987-.582l.227-1.067 16.629 3.534-.227 1.067-16.629-3.534zm7.307 3.783l7.76 1.65-7.76-1.65zm-7.76-1.65l.226-1.066 16.629 3.534-.227 1.067-16.628-3.534zm-.454 2.135l7.76 1.65-7.76-1.65zm7.76 1.65l7.76 1.649-7.76-1.65zm-7.76-1.65l.227-1.067 16.628 3.534-.227 1.067-16.628-3.534zm-.68 3.201l7.76 1.65-7.76-1.65zm7.76 1.65l7.76 1.649-7.76-1.65zm-7.534-2.717l.227-1.067 16.629 3.534-.227 1.068-16.629-3.535zm-.907 4.268l7.76 1.65-7.76-1.65zm7.76 1.65l7.76 1.65-7.76-1.65zm-7.306-3.784l.227-1.067 16.628 3.535-.227 1.067-16.628-3.535z" opacity=".93"/><path d="M802.773 2402.426l7.545-2.451-7.545 2.451zm-7.208 3.49l-.337-1.038 16.168-5.254.337 1.038-16.168 5.253zm8.22-.377l7.544-2.452-7.545 2.452zm-7.546 2.451l-.337-1.037 16.168-5.254.337 1.038-16.168 5.253zm.674 2.075l7.545-2.451-7.545 2.451zm7.545-2.451l7.545-2.452-7.545 2.452zm-7.545 2.451l-.337-1.037 16.168-5.254.337 1.038-16.168 5.253zm1.012 3.113l7.545-2.452-7.545 2.452zm7.545-2.452l7.545-2.451-7.545 2.451zm-7.883 1.414l-.337-1.037 16.168-5.254.337 1.038-16.168 5.253zm1.349 4.15l7.545-2.451-7.545 2.451zm7.545-2.451l7.545-2.452-7.545 2.452zm-8.22.376l-.336-1.037 16.168-5.254.337 1.038-16.168 5.253z" opacity=".76"/><path d="M822.056 2195.724l2.66 5.453-2.66-5.453zm-3.395-5.094l.736-.359 5.699 11.684-.736.36-5.699-11.685zm1.19 6.17l2.659 5.453-2.66-5.453zm-2.66-5.453l.735-.359 5.699 11.685-.735.358-5.7-11.684zm-1.471.717l2.66 5.453-2.66-5.453zm2.66 5.453l2.659 5.453-2.66-5.453zm-2.66-5.453l.735-.358 5.7 11.684-.736.359-5.7-11.685zm-2.206 1.077l2.66 5.452-2.66-5.452zm2.66 5.452l2.659 5.453-2.66-5.453zm-1.925-5.811l.736-.359 5.698 11.684-.735.36-5.699-11.685zm-2.941 1.435l2.66 5.452-2.66-5.452zm2.66 5.452l2.659 5.453-2.66-5.453zm-1.19-6.17l.736-.358 5.699 11.684-.736.358-5.699-11.684z" opacity=".84"/><path d="M608.195 1972.43l-5.586.391 5.586-.39zm5.53-1.206l.057.816-11.971.837-.057-.816 11.97-.837zm-5.7-1.242l-5.587.39 5.586-.39zm5.586-.39l.057.815-11.971.837-.057-.816 11.97-.837zm-.115-1.633l-5.586.39 5.586-.39zm-5.586.39l-5.586.391 5.586-.39zm5.586-.39l.057.816-11.97.837-.057-.816 11.97-.837zm-.17-2.449l-5.587.39 5.586-.39zm-5.587.39l-5.587.392 5.587-.391zm5.643.426l.057.817-11.97.837-.058-.816 11.971-.838zm-.228-3.264l-5.586.39 5.586-.39zm-5.586.39l-5.587.391 5.587-.39zm5.7 1.242l.057.816-11.97.837-.058-.816 11.971-.837z" opacity=".7"/><path d="M567.608 1837.014l-6.792 1.693 6.792-1.693zm6.55-2.664l.242.97-14.554 3.63-.242-.971 14.554-3.63zm-7.276-.247l-6.792 1.693 6.792-1.693zm6.792-1.694l.242.97-14.554 3.63-.242-.97 14.554-3.63zm-.483-1.94l-6.793 1.693 6.793-1.693zm-6.793 1.693l-6.792 1.694 6.792-1.694zm6.793-1.693l.241.97-14.554 3.629-.242-.97 14.555-3.63zm-.726-2.911l-6.792 1.693 6.792-1.693zm-6.792 1.693l-6.792 1.694 6.792-1.694zm7.034-.723l.242.97-14.555 3.63-.242-.971 14.555-3.629zm-.968-3.881l-6.792 1.693 6.792-1.693zm-6.792 1.693l-6.792 1.694 6.792-1.694zm7.276.248l.242.97-14.555 3.629-.242-.97 14.555-3.63zM614.917 1652.172l.57-6.508-.57 6.508zm.337 6.588l-.906-.08 1.22-13.946.906.08-1.22 13.946zm2.38-6.35l.57-6.508-.57 6.508zm-.569 6.509l-.906-.08 1.22-13.946.906.079-1.22 13.947zm1.811.158l.57-6.508-.57 6.508zm.57-6.508l.57-6.509-.57 6.509zm-.57 6.508l-.905-.08 1.22-13.946.905.08-1.22 13.946zm2.717.238l.57-6.509-.57 6.509zm.57-6.509l.569-6.508-.57 6.508zm-1.476 6.43l-.905-.08 1.22-13.947.906.08-1.22 13.946zm3.623.316l.57-6.508-.57 6.508zm.57-6.508l.569-6.509-.57 6.509zm-2.381 6.35l-.906-.08 1.22-13.946.906.08-1.22 13.946z" opacity=".94"/><path d="M784.576 1403.045l-6.34 1.58 6.34-1.58zm6.12-2.463l.22.882-13.585 3.387-.22-.882 13.584-3.387zm-6.78-.183l-6.339 1.58 6.34-1.58zm6.34-1.58l.22.881-13.585 3.387-.22-.882 13.585-3.387zm-.44-1.765l-6.34 1.58 6.34-1.58zm-6.34 1.58l-6.339 1.581 6.34-1.58zm6.34-1.58l.22.882-13.584 3.387-.22-.882 13.584-3.387zm-.66-2.646l-6.34 1.58 6.34-1.58zm-6.34 1.58l-6.339 1.58 6.34-1.58zm6.56-.698l.22.882-13.584 3.387-.22-.882 13.584-3.387zm-.88-3.529l-6.34 1.58 6.34-1.58zm-6.34 1.58l-6.338 1.581 6.339-1.58zm6.78.185l.22.882-13.584 3.387-.22-.883 13.584-3.386z" opacity=".8"/><path d="M652.912 1252.052l-7.842-3.01 7.842 3.01zm8.266 1.907l-.424 1.103-16.804-6.45.423-1.104 16.805 6.45zm-6.995-5.217l-7.842-3.01 7.842 3.01zm7.842 3.01l-.424 1.104-16.804-6.451.423-1.103 16.805 6.45zm.847-2.206l-7.842-3.01 7.842 3.01zm-7.842-3.01l-7.842-3.01 7.842 3.01zm7.842 3.01l-.424 1.103-16.804-6.45.423-1.104 16.805 6.45zm1.27-3.31l-7.842-3.01 7.842 3.01zm-7.842-3.01l-7.842-3.01 7.842 3.01zm7.419 4.113l-.424 1.103-16.804-6.45.423-1.104 16.805 6.451zm1.694-4.413l-7.842-3.01 7.842 3.01zm-7.842-3.01l-7.842-3.01 7.842 3.01zm6.995 5.216l-.424 1.104-16.804-6.45.424-1.104 16.804 6.45z" opacity=".84"/><path d="M846.1 948.435l1.242 4.981-1.242-4.98zm-1.948-4.805l.706-.176 2.661 10.674-.705.176-2.662-10.674zm-.17 5.333l1.243 4.98-1.242-4.98zm-1.241-4.98l.706-.177 2.66 10.674-.705.175-2.661-10.673zm-1.411.351l1.242 4.98-1.242-4.98zm1.242 4.98l1.241 4.982-1.241-4.981zm-1.242-4.98l.705-.176 2.662 10.673-.706.176-2.661-10.673zm-2.117.528l1.242 4.98-1.242-4.98zm1.242 4.98l1.241 4.982-1.241-4.981zm-.537-5.156l.706-.176 2.661 10.673-.705.176-2.662-10.673zm-2.822.704l1.242 4.98-1.242-4.98zm1.242 4.98l1.241 4.981-1.241-4.98zm.169-5.332l.706-.176 2.66 10.673-.705.176-2.661-10.673z" opacity=".88"/><path d="M902.04 821.964l3.479-4.97-3.48 4.97zm-2.736 5.49l-.745-.52 7.457-10.65.745.522-7.457 10.649zm4.97-3.926l3.479-4.97-3.48 4.97zm-3.48 4.97l-.745-.522 7.456-10.649.745.521-7.457 10.65zm1.489 1.042l3.48-4.97-3.48 4.97zm3.48-4.97l3.48-4.969-3.48 4.97zm-3.48 4.97l-.745-.521 7.457-10.65.744.522-7.456 10.65zm2.234 1.565l3.48-4.97-3.48 4.97zm3.48-4.97l3.48-4.97-3.48 4.97zm-4.225 4.448l-.745-.521 7.457-10.65.745.522-7.457 10.65zm2.979 2.086l3.48-4.97-3.48 4.97zm3.48-4.97l3.48-4.97-3.48 4.97zm-4.97 3.927l-.744-.521 7.456-10.65.745.522-7.456 10.649z" opacity=".94"/><path d="M885.818 632.219l1.216-6.894-1.216 6.894zm-.23 7.067l-.985-.174 2.604-14.772.985.174-2.605 14.772zm3.185-6.547l1.215-6.893-1.215 6.893zm-1.216 6.894l-.985-.174 2.605-14.772.985.174-2.605 14.772zm1.97.347l1.215-6.893-1.215 6.893zm1.215-6.893l1.216-6.894-1.216 6.894zm-1.215 6.893l-.985-.173 2.605-14.772.984.173-2.604 14.772zm2.954.521l1.216-6.893-1.216 6.893zm1.216-6.893l1.215-6.894-1.215 6.894zm-2.2 6.72l-.985-.174 2.604-14.772.985.174-2.605 14.772zm3.939.694l1.215-6.893-1.215 6.893zm1.215-6.893l1.216-6.894-1.216 6.894zm-3.185 6.546l-.985-.174 2.605-14.772.985.174-2.605 14.772z" opacity=".84"/><path d="M523.362 441.249l-6.28-1.8 6.28 1.8zm6.53.927l-.25.874-13.458-3.859.251-.874 13.458 3.859zm-5.778-3.549l-6.28-1.8 6.28 1.8zm6.28 1.801l-.25.874-13.458-3.859.25-.874 13.458 3.86zm.501-1.747l-6.28-1.801 6.28 1.8zm-6.28-1.801l-6.28-1.801 6.28 1.8zm6.28 1.8l-.25.874-13.458-3.859.25-.873 13.458 3.859zm.752-2.621l-6.28-1.801 6.28 1.8zm-6.28-1.801l-6.28-1.8 6.28 1.8zm6.03 2.675l-.251.874-13.458-3.86.25-.873 13.458 3.859zm1.001-3.496l-6.28-1.8 6.28 1.8zm-6.28-1.8l-6.28-1.801 6.28 1.8zm5.78 3.548l-.251.874-13.458-3.859.25-.874 13.458 3.859z" opacity=".96"/><path d="M877.345 193.749l5.406-2.754-5.406 2.754zm-5.034 3.483l-.371-.729 11.583-5.902.371.73-11.583 5.901zm6.149-1.296l5.405-2.754-5.405 2.754zm-5.406 2.754l-.371-.729 11.583-5.902.371.73-11.583 5.901zm.743 1.458l5.405-2.754-5.405 2.754zm5.405-2.754l5.406-2.754-5.406 2.754zm-5.405 2.754l-.371-.729 11.583-5.902.371.73-11.583 5.901zm1.114 2.187l5.406-2.754-5.406 2.754zm5.406-2.754l5.405-2.754-5.405 2.754zm-5.777 2.025l-.371-.729 11.583-5.902.371.73-11.583 5.901zm1.486 2.916l5.405-2.754-5.405 2.754zm5.405-2.754l5.406-2.754-5.406 2.754zm-6.148 1.296l-.372-.729 11.583-5.902.372.73-11.583 5.901zM886.041 124.444l8.217-1.747-8.217 1.747zm-7.97 2.902l-.246-1.156 17.607-3.742.245 1.156-17.606 3.742zm8.708.566l8.216-1.747-8.216 1.747zm-8.217 1.746l-.246-1.156 17.607-3.742.246 1.156-17.607 3.742zm.492 2.312l8.216-1.746-8.216 1.746zm8.216-1.746l8.216-1.747-8.216 1.747zm-8.216 1.746l-.246-1.156 17.606-3.742.246 1.156-17.606 3.742zm.737 3.468l8.216-1.746-8.216 1.746zm8.216-1.746l8.217-1.747-8.217 1.747zm-8.462.59l-.246-1.156 17.607-3.742.246 1.156-17.607 3.742zm.983 4.624l8.216-1.746-8.216 1.746zm8.216-1.746l8.217-1.747-8.217 1.747zm-8.708-.566l-.245-1.156 17.606-3.742.246 1.156-17.607 3.742z" opacity=".99"/><path d="M311.945 3069.814l5.362 4.5-5.362-4.5zm-6.005-3.733l.643-.766 11.49 9.641-.643.766-11.49-9.641zm4.076 6.031l5.363 4.5-5.363-4.5zm-5.362-4.5l.643-.765 11.49 9.642-.642.766-11.49-9.642zm-1.285 1.533l5.362 4.5-5.362-4.5zm5.362 4.5l5.362 4.499-5.362-4.5zm-5.362-4.5l.642-.766 11.491 9.642-.643.766-11.49-9.642zm-1.929 2.298l5.363 4.5-5.363-4.5zm5.363 4.5l5.362 4.499-5.362-4.5zm-4.72-5.266l.643-.766 11.49 9.642-.642.766-11.491-9.642zm-2.571 3.064l5.362 4.5-5.362-4.5zm5.362 4.5l5.363 4.5-5.363-4.5zm-4.077-6.032l.643-.766 11.49 9.642-.642.766-11.49-9.642z" opacity=".73"/><path d="M397.621 3006.792l1.378-7.813-1.378 7.813zm-.213 8.018l-1.164-.206 2.952-16.741 1.164.205-2.952 16.742zm3.705-7.403l1.378-7.813-1.378 7.813zm-1.378 7.813l-1.164-.205 2.953-16.742 1.163.205-2.952 16.742zm2.328.41l1.378-7.812-1.378 7.812zm1.378-7.812l1.377-7.813-1.377 7.813zm-1.378 7.812l-1.164-.205 2.952-16.742 1.164.206-2.952 16.741zm3.492.616l1.377-7.813-1.377 7.813zm1.377-7.813l1.378-7.813-1.378 7.813zm-2.541 7.608l-1.164-.205 2.952-16.742 1.164.205-2.952 16.742zm4.655.82l1.378-7.812-1.378 7.813zm1.378-7.812l1.377-7.813-1.377 7.813zm-3.705 7.402l-1.164-.205 2.952-16.742 1.164.206-2.952 16.741z" opacity=".72"/><path d="M179.66 2684.263h6.066-6.066zm-6.067.818v-.818h13v.818h-13zm6.067 1.637h6.066-6.066zm-6.067 0v-.818h13v.818h-13zm0 1.636h6.067-6.067zm6.067 0h6.066-6.066zm-6.067 0v-.818h13v.818h-13zm0 2.455h6.067-6.067zm6.067 0h6.066-6.066zm-6.067-.818v-.819h13v.819h-13zm0 3.272h6.067-6.067zm6.067 0h6.066-6.066zm-6.067-1.636v-.818h13v.818h-13z" opacity=".99"/><path d="M113.195 2483.71l-4.306 2.796 4.306-2.796zm3.909-3.405l.396.61-9.226 5.99-.396-.61 9.226-5.99zm-5.098 1.576l-4.305 2.795 4.305-2.795zm4.305-2.796l.397.61-9.226 5.99-.396-.61 9.225-5.99zm-.792-1.22l-4.305 2.796 4.305-2.796zm-4.305 2.796l-4.305 2.795 4.305-2.795zm4.305-2.796l.396.61-9.225 5.99-.396-.61 9.225-5.99zm-1.188-1.83l-4.305 2.796 4.305-2.796zm-4.305 2.796l-4.305 2.796 4.305-2.796zm4.701-2.186l.396.61-9.225 5.99-.396-.609 9.225-5.991zm-1.584-2.44l-4.306 2.796 4.306-2.796zm-4.306 2.796l-4.305 2.796 4.305-2.796zm5.098-1.576l.396.61-9.225 5.991-.397-.61 9.226-5.99z" opacity=".87"/><path d="M321.212 2396.173l-6.847-1.455 6.847 1.455zm7.055.477l-.208.978-14.672-3.118.208-.978 14.672 3.118zm-6.431-3.411l-6.847-1.456 6.847 1.456zm6.847 1.455l-.208.978-14.672-3.119.207-.978 14.673 3.119zm.416-1.956l-6.848-1.456 6.848 1.456zm-6.848-1.456l-6.847-1.455 6.847 1.455zm6.848 1.456l-.208.978-14.673-3.119.208-.978 14.673 3.119zm.623-2.935l-6.847-1.455 6.847 1.455zm-6.847-1.455l-6.847-1.456 6.847 1.456zm6.64 2.433l-.209.979-14.672-3.12.208-.977 14.672 3.118zm.831-3.912l-6.847-1.456 6.847 1.456zm-6.847-1.456l-6.847-1.455 6.847 1.455zm6.431 3.412l-.208.978-14.672-3.118.208-.979 14.672 3.12z" opacity=".77"/><path d="M69.13 2128.501l4.989 2.542-4.99-2.542zm-5.32-1.894l.33-.648 10.692 5.448-.33.648-10.692-5.448zm4.329 3.838l4.99 2.542-4.99-2.542zm-4.99-2.542l.33-.648 10.692 5.448-.33.648-10.692-5.448zm-.66 1.296l4.99 2.542-4.99-2.542zm4.99 2.542l4.99 2.542-4.99-2.542zm-4.99-2.542l.33-.648 10.692 5.448-.33.648-10.692-5.448zm-.99 1.944l4.989 2.542-4.99-2.542zm4.989 2.542l4.99 2.542-4.99-2.542zm-4.66-3.19l.33-.648 10.693 5.448-.33.648-10.693-5.448zm-1.32 2.592l4.99 2.542-4.99-2.542zm4.99 2.542l4.989 2.542-4.99-2.542zm-4.33-3.838l.33-.648 10.692 5.448-.33.648-10.692-5.448z" opacity=".98"/><path d="M42.754 2003.135l-4.69 2.088 4.69-2.088zm4.394-2.753l.296.665-10.05 4.474-.295-.665 10.049-4.474zm-5.281.76l-4.69 2.087 4.69-2.088zm4.69-2.088l.295.664-10.049 4.474-.296-.664 10.05-4.474zm-.592-1.33l-4.69 2.089 4.69-2.088zm-4.69 2.089l-4.69 2.088 4.69-2.088zm4.69-2.088l.295.664-10.049 4.474-.295-.664 10.049-4.474zm-.888-1.993l-4.69 2.087 4.69-2.087zm-4.69 2.087l-4.689 2.088 4.69-2.088zm4.986-1.423l.296.664-10.05 4.474-.295-.664 10.05-4.474zm-1.183-2.658l-4.69 2.088 4.69-2.088zm-4.69 2.088l-4.69 2.088 4.69-2.088zm5.281-.759l.296.665-10.049 4.474-.296-.665 10.05-4.474z" opacity=".7"/><path d="M179.164 1808.05l-.456 6.518.456-6.517zm-.451-6.58l.907.063-.977 13.966-.907-.063.977-13.966zm-2.27 6.39l-.455 6.518.456-6.517zm.456-6.517l.907.064-.976 13.965-.907-.063.976-13.966zm-1.813-.127l-.456 6.518.456-6.518zm-.456 6.518l-.456 6.517.456-6.517zm.456-6.518l.906.064-.976 13.966-.907-.064.977-13.966zm-2.721-.19l-.456 6.517.456-6.517zm-.456 6.517l-.456 6.518.456-6.518zm1.363-6.454l.907.064-.977 13.966-.907-.064.977-13.966zm-3.628-.253l-.455 6.517.455-6.517zm-.455 6.517l-.456 6.518.456-6.518zm2.269-6.39l.907.063-.977 13.966-.907-.063.977-13.966z" opacity=".79"/><path d="M50.006 1674.382l-4.715 3.818 4.715-3.818zm4.2-4.454l.514.636-10.103 8.181-.514-.636 10.102-8.18zm-5.745 2.546l-4.715 3.818 4.715-3.818zm4.715-3.818l.515.636-10.103 8.181-.515-.635 10.103-8.182zm-1.03-1.271l-4.715 3.818 4.715-3.818zm-4.715 3.818l-4.714 3.817 4.714-3.817zm4.715-3.818l.515.636-10.103 8.18-.515-.635 10.103-8.181zm-1.545-1.908l-4.714 3.818 4.714-3.818zm-4.714 3.818l-4.715 3.818 4.715-3.818zm5.23-3.182l.514.636-10.103 8.181-.515-.636 10.103-8.181zm-2.06-2.543l-4.715 3.817 4.715-3.817zm-4.715 3.817l-4.715 3.818 4.715-3.818zm5.744-2.546l.515.636-10.103 8.181-.515-.636 10.103-8.18z" opacity=".88"/><path d="M361.02 1351.979l3.55-7.613-3.55 7.613zm-2.48 8.112l-1.07-.5 7.607-16.313 1.071.5-7.607 16.313zm5.693-6.614l3.55-7.613-3.55 7.613zm-3.55 7.613l-1.071-.5 7.607-16.313 1.071.5-7.607 16.313zm2.142.999l3.55-7.613-3.55 7.613zm3.55-7.613l3.55-7.613-3.55 7.613zm-3.55 7.613l-1.07-.5 7.606-16.313 1.071.5-7.607 16.313zm3.214 1.498l3.55-7.613-3.55 7.613zm3.55-7.613l3.55-7.613-3.55 7.613zm-4.622 7.114l-1.07-.5 7.607-16.313 1.07.5-7.607 16.313zm4.285 1.998l3.55-7.613-3.55 7.613zm3.55-7.613l3.55-7.613-3.55 7.613zm-5.692 6.614l-1.071-.5 7.607-16.313 1.07.5-7.606 16.313z" opacity=".91"/><path d="M196.352 1166.571l-7.06-2.43 7.06 2.43zm7.415 1.4l-.355 1.03-15.129-5.208.355-1.032 15.129 5.21zm-6.35-4.494l-7.06-2.431 7.06 2.43zm7.06 2.43l-.355 1.032-15.128-5.21.355-1.03 15.128 5.209zm.71-2.062l-7.06-2.431 7.06 2.43zm-7.06-2.431l-7.06-2.431 7.06 2.43zm7.06 2.43l-.355 1.032-15.128-5.21.355-1.03 15.128 5.209zm1.066-3.094l-7.06-2.43 7.06 2.43zm-7.06-2.43l-7.06-2.432 7.06 2.431zm6.705 3.462l-.355 1.031-15.129-5.209.355-1.031 15.129 5.209zm1.42-4.126l-7.06-2.431 7.06 2.43zm-7.06-2.431l-7.06-2.431 7.06 2.43zm6.35 4.494l-.355 1.031-15.128-5.209.355-1.031 15.128 5.209z" opacity=".94"/><path d="M434.602 1110.263l6.31 1.691-6.31-1.69zm-6.546-.813l.235-.878 13.523 3.624-.235.878-13.523-3.624zm5.84 3.448l6.31 1.69-6.31-1.69zm-6.31-1.691l.234-.879 13.523 3.624-.235.878-13.523-3.623zm-.471 1.756l6.31 1.69-6.31-1.69zm6.31 1.69l6.311 1.692-6.31-1.691zm-6.31-1.69l.235-.878 13.523 3.623-.236.878-13.522-3.623zm-.706 2.634l6.31 1.691-6.31-1.69zm6.31 1.691l6.311 1.691-6.31-1.69zm-6.075-2.569l.235-.878 13.523 3.623-.235.879-13.523-3.624zm-.941 3.513l6.31 1.69-6.31-1.69zm6.31 1.69l6.311 1.691-6.31-1.69zm-5.84-3.447l.236-.878 13.523 3.624-.236.878-13.523-3.624z" opacity=".95"/><path d="M129.048 862.158l3.956-6.332-3.956 6.332zm-3.032 6.91l-.925-.578 8.479-13.569.925.578-8.479 13.57zm5.807-5.176l3.957-6.332-3.957 6.332zm-3.957 6.332l-.925-.578 8.479-13.569.925.579-8.479 13.568zm1.85 1.157l3.957-6.333-3.956 6.333zm3.957-6.333l3.957-6.332-3.957 6.332zm-3.956 6.333l-.926-.579 8.48-13.568.924.578-8.478 13.569zm2.775 1.734l3.957-6.332-3.957 6.332zm3.957-6.332l3.957-6.332-3.957 6.332zm-4.882 5.754l-.925-.578 8.478-13.57.926.579-8.48 13.569zm3.7 2.312l3.957-6.332-3.956 6.332zm3.957-6.332l3.957-6.332-3.957 6.332zm-5.807 5.176l-.925-.578 8.479-13.569.925.578-8.479 13.569z" opacity=".72"/><path d="M63.704 719.065l-5.033-2.455 5.033 2.455zm5.392 1.72l-.358.735-10.786-5.26.359-.736 10.785 5.26zm-4.316-3.926l-5.033-2.455 5.033 2.455zm5.034 2.455l-.36.735-10.785-5.26.359-.736 10.786 5.26zm.717-1.47l-5.033-2.456 5.033 2.455zm-5.033-2.456l-5.034-2.455 5.034 2.455zm5.033 2.455l-.359.736-10.785-5.26.358-.736 10.786 5.26zm1.076-2.206l-5.033-2.455 5.033 2.455zm-5.033-2.455l-5.034-2.455 5.034 2.455zm4.674 3.19l-.358.736-10.786-5.26.359-.736 10.785 5.26zm1.435-2.941l-5.033-2.455 5.033 2.455zm-5.033-2.455l-5.034-2.455 5.034 2.455zm4.316 3.926l-.36.735-10.785-5.26.359-.736 10.786 5.26z" opacity=".98"/><path d="M288.433 394.617l-5.896 5.309 5.896-5.309zm5.105-6.186l.79.878-12.633 11.375-.79-.878 12.633-11.375zm-7.477 3.551l-5.896 5.309 5.896-5.309zm5.895-5.308l.791.878-12.633 11.375-.791-.878 12.633-11.375zm-1.581-1.757l-5.896 5.309 5.896-5.309zm-5.896 5.309l-5.896 5.308 5.896-5.308zm5.896-5.309l.79.879-12.633 11.375-.79-.878 12.633-11.376zm-2.373-2.634l-5.895 5.308 5.895-5.308zm-5.895 5.308l-5.896 5.309 5.896-5.309zm6.686-4.43l.79.878-12.633 11.375-.79-.878 12.633-11.375zm-3.163-3.513l-5.896 5.308 5.896-5.308zm-5.896 5.308l-5.895 5.309 5.895-5.309zm7.477-3.552l.791.879-12.633 11.375-.791-.878 12.633-11.376z" opacity=".88"/><path d="M89.144 340.627l1.164 5.477-1.164-5.477zm-1.965-5.308l.8-.17 2.495 11.738-.8.17-2.495-11.738zm-.436 5.818l1.164 5.478-1.164-5.478zm-1.165-5.477l.8-.17 2.496 11.737-.8.17-2.496-11.737zm-1.6.34l1.164 5.477L83.978 336zm1.164 5.477l1.164 5.478-1.164-5.478zM83.978 336l.8-.17 2.495 11.737-.8.17L83.978 336zm-2.401.51l1.164 5.478-1.164-5.478zm1.164 5.478l1.165 5.477-1.165-5.477zm-.364-5.648l.8-.17 2.495 11.738-.8.17-2.495-11.738zm-3.201.68l1.164 5.478-1.164-5.478zm1.164 5.478l1.165 5.478-1.165-5.478zm.437-5.818l.8-.17 2.495 11.738-.8.17-2.495-11.738z" opacity=".95"/></g></g></svg>