<svg xmlns="http://www.w3.org/2000/svg" xmlns:xlink="http://www.w3.org/1999/xlink" width="886" height="189" viewBox="0 0 886 189"><defs><path id="a" d="M143.8 63.5l-69 124h-1l-73-124H47l28.4 57.8 25-57.8h43.4zm138.7 0V185h-38.9v-15a54.5 54.5 0 0 1-40.6 18.3c-18 0-32.6-5.3-43.8-16-11.2-10.8-16.8-26.8-16.8-47.9a74 74 0 0 1 8.2-35.2 60.8 60.8 0 0 1 21.8-23.5 55 55 0 0 1 29.2-8.3c10.8 0 19.3 1.6 25.6 4.9A52.2 52.2 0 0 1 244 76l2.5-12.5h36.1zm-68.4 93.1c13.6 0 23.4-6 29.5-18.3v-29.8c-2.2-5.9-6-10.6-11.5-14.1S220 89 212.8 89a29 29 0 0 0-21.9 9.4c-6 6.3-9 14.3-9 24a34.9 34.9 0 0 0 16.3 29.7c4.9 3 10.2 4.4 16 4.4zm137.4-65.3c3.3-6.5 8-12.3 13.7-17.5a75.4 75.4 0 0 1 18-12 37 37 0 0 1 14.4-4.4l-2 39a35.4 35.4 0 0 0-25.3 5.8 43.9 43.9 0 0 0-18.3 35.3V185h-38.6V63.5h35l3 27.8zM457 63.5V185h-38.9V63.5h39zm-39.7-43a18 18 0 0 1 6.5-14.1 22 22 0 0 1 15-5.7c5.4 0 10.2 1.9 14.5 5.7a18 18 0 0 1 6.3 14c0 5.6-2 10.2-6.3 14a22.3 22.3 0 0 1-29.3 0 17.5 17.5 0 0 1-6.6-14zm201.3 43V185h-39v-15a54.5 54.5 0 0 1-40.5 18.3c-18 0-32.6-5.3-43.8-16-11.2-10.8-16.8-26.8-16.8-47.9 0-13.3 2.7-25 8.2-35.2a60.8 60.8 0 0 1 21.8-23.5 55 55 0 0 1 29.2-8.3c10.7 0 19.3 1.6 25.6 4.9A52.2 52.2 0 0 1 580 76l2.5-12.5h36.2zm-68.4 93.1c13.5 0 23.3-6 29.5-18.3v-29.8a28.6 28.6 0 0 0-11.6-14.1 34.9 34.9 0 0 0-19.3-5.3 29 29 0 0 0-21.8 9.4c-6 6.3-9 14.3-9 24a34.9 34.9 0 0 0 16.2 29.7c5 3 10.2 4.4 16 4.4zm183.8-99c11.5 0 21 3.5 28.7 10.4a34.3 34.3 0 0 1 11.8 26v91h-38.9v-76.5c-.5-11.8-6.5-17.7-17.8-17.7-8.9 0-16 4.1-21.4 12.5-5.3 8.3-8 19-8 32.2V185h-39V63.5H685l2.7 19.5c4.5-8 10.6-14.2 18.5-18.7a55.9 55.9 0 0 1 28-6.6zm121.7-47.5V63h29.5v30.3h-29.5V185H817V93.3h-19V63h19V10h38.8z"/></defs><g fill="none" fill-rule="evenodd"><mask id="b" fill="#fff"><use xlink:href="#a"/></mask><use fill="#33333D" xlink:href="#a"/><g mask="url(#b)"><path fill="#03DAC6" d="M-1572 1185h4170v-2987h-4170z"/><path fill="#EDE8D7" d="M237.6-607.3l12.2-.9 25.1-3.4 31.3-2.3-18.5 49.1-137.1 62.5-2 101.3 252.8-62-1.6 47.8S318-376 309.8-287c-4 44.1-2 81.9-11.7 101-18.7 36.6-48.3 45.3-65.6 73-43.1 69.4-11 155-11 155L124-56-59.7-358S42.2-376.6 84.8-524.2c69.5-92 152.8-83 152.8-83m929.8 694v60.6l-147 216.8-.8.2v1l-1.6 2.3-73 44.3-91.3 55.5L970 210.6z"/><path fill="#FFC4BC" d="M101.4-254.8s-7.8-22.4-4.2-43.5c3.8-22 19.4-42.8 49.3-42.5 28.7.3 47.2 18.4 50.1 40.2 3 22.6-6.2 44.1-12.7 58.4-7.7 17 25.6-15.6 48.7 4.3 23 20 20 61.8-20.6 92.3-40.5 30.6-5 40.6-21.8 84.2A2248.3 2248.3 0 0 1 146.5 41l-86 66.8L-2.2-32.7l-17.3-179 69-73 51.8 29.9z"/><path fill="#33333D" d="M341.5-6.1l4 32.4 102.9 44.6h79.8l75.5 84.2L798.3-71.3l55.5 51.7 70-152s2-21.4-17.1-42.7C893.4-229 855.2-237 855.2-237s32.2-29 50.6-62c16.8-30 27.1-62.2 25.6-83-5.3-71-108.2-138.6-108.2-138.6l-28 24.5s-111.7 161-107.3 267.6c0 0-55.1-36.7-125.8 2.8-70.7 39.6-24.5 23.6-39 51.5C491.7-114 541.6-39.4 505-.6c-18.5 19.5-52.8 23.7-78.7 17.5-30.2-7.3-50.8-27.1-50.8-27.1l6.7-58.6-40.8 62.7z"/><path fill="#FFC4BC" d="M923.8-171.6s-1 26.7-15 85.2c-7 29-1.4 56.7 19.4 74.4 21.5 18.5 53.2 25 53.2 25s-22 34.5 0 59a146 146 0 0 1 21.7 30c4 8 16.9 12.7 16.9 18.4 0 11.3-12.7 20.8 8 17l21.4 50.5-48.7 33.3-79.2-9.5-9-19s43.2-17.5 10.7-88.2c0 0 8-15.4-24.4-68.6-3.6-6-20.6-5-25.3-12-2.2-3.3-3.6-9.6-5.5-12.5-39.6-58.7-16.8-52.1-16.8-52.1s-4.4-27 72.6-130.9"/><path fill="#FF0166" d="M592.9 206.4c-7.8 8.2-51.7-4-85.2-26.8-36.3-24.8-61.5-61.6-47.4-86.9 13.4-24 62.4-11.5 90.1 23.5 29.2 36.8 53.2 78.8 42.5 90.2m130.5 12.8c-34.3-34.3-63.5-5.2-117.2-73.8-20.8-26.6-41.5-55.5-57.9-69.6-25.8-22.2-54.8-20.4-100.3-23.5C373.8 47 341.5-6.1 341.5-6.1v66.6c107.5 9.2 66 47.6 111.1 110 45 62.5 119.8 65.5 168.4 71.7 48.7 6.1 84 5.6 68.6 23.5-15.3 18-65 70.2-65 70.2l30.7 35.4L726 302s37-43.3-2.6-83M-31.4 12.6c3-5.4 22.3-6.1 29.5 8.2 4.6 9.1.6 32-4 39.2-10.1 16-50.9 40.3-75.5 36.7-53.3-7.8-33.1-66.2-99.3-75.4-66.1-9.3-61.9-71.9-20.6-83.3 41.3-11.3 22.4-56.8-18.2-72.5-40.5-15.7-62.1-38.2-51.4-80.2 8-31.5 20.8-46.4 41.3-33.9 6.8 4.2 32.6 36 37.5 40.8 20 19.2 25.2-4.3-6.8-32.5-32-28.3-21.1-56.1-1.2-75.7 20-19.5 51.8 17.5 73.9 12.6 22-5-6.2-55.3 66.5-54.6L.7-294.6s-47.6 11.4-46.2 58.3c1.4 47-13.5 62-44.8 79-19 10.4-25.7 30.8-15.7 45.5 6.5 9.6 25.5 13.4 34.2 22.1 22 22-42.7 42.6-40.6 90 2.2 47.3 41.9 82.7 81 12.3m310.8 30.9s-38 24.7-120.3 38.4C77 95.6 28.7 148.8-17.2 272.9c0 0 55.6 11.2 75-34 19.3-45 17-30.9 16.6-15-.7 31.8 15.7 80.8 53.9 86.7 0 0 12-7.2 37.7 0 25.8 7.3 26.2-54.8 27.8-34.6 1.6 20.1 52.6-50.7 68-93.4 15.2-42.7 33.8-83.4 17.6-139"/><path fill="#423D89" d="M-303.5 58s15.3-2.2 27.4 1.5c29.7 9.2 29.4 39 29.4 102.7 0 50.8.4 76.4.4 76.4l69 7.7V351c0 48.1 55.9 82.3 117.6 31.5C-31.4 359-19 311-6 266.8 7.1 222.7 58.6 106.1 165.8 92 273 77.7 279.4 43.5 279.4 43.5s-31-23.8-31-59.7c0 0-59 23.1-59-43 0 0-68.7 142.3-189 154.3 0 0 5.2-44.8 34.6-68.8 29.4-24 27.5-46 18.1-87.7a43 43 0 0 1 11-39.4 43.1 43.1 0 0 0 14.3-32c-.8-18.4-15.8-31-29.3-49-16.3-22-11.8-46.4 7-63.1l-65.8-60.6s-32.2 11-39.3 56.5c-7.4 48.1-7.6 64.9-39.8 83.5-18.2 10.5-31.3 28.6-31 38.1.5 15.8 14.6 28.7 40 37.4C-39-76-114-65-116.4-3c-2.4 62 39 69.8 56.8 66.1 16.7-3.4 25.3-10.2 31.9-24.5C-23.4 28.8-20.1 20-15 22c5.3 2.3 4.5 15-.6 27.3C-21.8 64-35.1 78.6-64.3 80c-53.4 2.7-57-58.7-116.4-58.7V67s-59.3-42.5-122.8-9"/><path fill="#FF0166" d="M767.6-54.6l62.7 14.9s8.1 48.6-44.8 97.4c0 0 3.5 27.4-6.4 37.3-11.9 11.9-49 20.4-74.2-6.3C679.8 62 671.6 62.5 684 43a96.4 96.4 0 0 1 31.8-29.5c10.7-6.3 29-11 37.5-19.6 22.1-22.3 14.4-48.5 14.4-48.5"/><path fill="#33333D" d="M-743.2 457.1l566-210.8V351c0 23.8 37.1 44.7 77.7 28.4 35-14.1 72.2-59.3 93.6-112.5 0 0 23.5 2.8 49.3-39 23.7-38.4 44.2-31.1 44.2-31.1s-8.4 23.3-5.2 48.2c2.9 23 16.5 47.4 35.9 56 3.4 1.5 13.9 1.2 9.6-14.3-3-11.2-7.2-23.6-10.3-41.6-1.6-9.1 2.6-18 5.3-24.4 5-11.5 14.3-9.2 15.6 3.5 2.8 30.3 10 81 25.7 79.8 22.2-1.8 3-75.6 9.2-100.5 0 0 15.7-14.9 30.6-24 6.7-4 13.5 2.2 7.3 13.1-11 18.9-24.2 47.1-15.5 60.7 13.7 21.4 105-103.6 83.6-209.7 0 0 14 14.2 62.2 17V287L290 320.6s-70.8-11.5-140.3-1.9c-69.5 9.7-90.5 16.6-103 22.8-57.5 28.8-56.5 73-56.5 73s-202.8 66.4-274.2 94.2V395l-281.7 102.8s-38.6-23.3-84-7.4c-38.6 13.5-47.6 53.9-47.6 53.9l-46-4.1v-83z"/><path fill="#423D89" d="M607.8 110.1a165 165 0 0 1 18.8-39.7c12.5-21.4 26-42.7 34-66.4 8.8-26.6 10.3-58.3 26.4-81.8 25.8-37.6 74.1-40.9 95.2-37.6 18.7 3 56.8 14.2 73.8 54.5 7.4 17.5 7.8 42.6 18.3 62 13.6 25 30.5 27.7 42.3 44.2 9.3 13 12.7 37.2 6.6 59.2 0 0-44.8-73.7-137.7-46.8 0 0 36.2-23 27.7-90.5l-45.6-21.8S779-11.9 736.1 4.2c-43 16.1 14 65-31.2 84.5-45.1 19.6-60.2 43.3-64.9 90.7a160.6 160.6 0 0 1-31.4-31c-6.7-8.5-2.6-31.5-.8-38.3"/><path fill="#33333D" d="M53.1-61.4c16 40.4 51.3 29 51.3 55.3v54.6S65.4 91.9.4 95c0 0-8.1-55.5 26.5-78.2C61.5-6 53.1-61.4 53.1-61.4"/><path fill="#03DAC6" d="M423.2 319c-4 8.6-2.1 57.3-25.8 57.3-27.4 0-49-24.5-107.3-55.7-31.7-17-44.2-20.6-47.3-28.9-4.5-12 .1-18.3 12.5-26.4 20.3-13.4 20.8-26 4-47.4-22.2-28.6-48.4-59.3-46.4-95.5a37 37 0 0 1 5.4-18.8C229 87.6 254 89.2 270 100c21 14.2 29.4 51 55.5 54.2a34.5 34.5 0 0 0 30.8-12.8c4.3-5.5 7.9-13 14.8-13.8 6.1-.7 11.4 4.8 13.5 10.6 2.2 5.8 2.2 12.2 3.9 18.2 5.8 20.3 28.9 30 49.8 32.9 20.9 2.7 43.1 1.4 61.9 11.1 4.3 2.3 8.6 5.3 10.4 9.9a20 20 0 0 1 1 8.6c-3 45.3-69.5 60.2-88.3 100.2"/><path fill="#423D89" d="M468.6 113.7a51.3 51.3 0 0 0-24 53c1.8 8.9 6 17.2 7.5 26.2s-.6 19.7-8.4 24.4c-3.5 2.2-7.8 2.8-11.8 4a41.8 41.8 0 0 0-25 54.5c5.2 11.6 16.1 22 14.6 34.7-1.5 11.8-15 15.7-24.5 23-5.3 4.2-15.2 11.8-13.3 26.7 1 7.3 10.4 15.5 13.7 16 24.8 4.2 76.7 24.4 43.5 67.2-10.6 13.7-9.3 28-7 45.2 73.2-19.4 96.6-25 96.6-25s-17.4-16-15.6-32.4c2.4-20.8 21.3-35.2 38.1-47.7s34.7-29.3 33.2-50.2c-1.8-26.3-34-46.4-27.9-72 3.1-13 15.7-22.9 16-36.1.1-12-9.9-21.6-20-27.9C544 191 532.6 186 525.8 176c-13.3-19.4 7-45.1-2.6-59.3-10-14.7-42.2-10.2-54.6-3"/></g></g></svg>