<svg width="5195" height="2392" fill="none" xmlns="http://www.w3.org/2000/svg"><path fill-rule="evenodd" clip-rule="evenodd" d="M1400.5 314c96-41.5 341.5-154.38 341.5-154.38 60-24.038 180-72.114 300-66.105 120 6.01 240 66.105 360 78.124 120 12.019 240-24.038 360-18.029 120 6.01 240 54.086 300 78.124l60 24.038V370H1291.5s13-14.5 109-56z" fill="#E61A6B"/><path d="M1372.5 97.5c-312-57-569-.5-837 283s-276 1005.5-535 2011h5194C4553 1869 4061 615 3872 380.5S3478.5 0 3012 0s-536.5 230-906.5 230-421-75.5-733-132.5z" fill="#1A1837"/></svg>