<svg width="302" height="76" viewBox="0 0 302 76" fill="none" xmlns="http://www.w3.org/2000/svg">
<path d="M12.3281 26.3438L24.1406 51.9844L35.9062 26.3438H47.7656L24.0469 75.1406L0.515625 26.3438H12.3281Z" fill="black"/>
<path d="M86.9062 26.3438H97.5V72H86.9062V67.2188C82.5625 71.2812 77.8906 73.3125 72.8906 73.3125C66.5781 73.3125 61.3594 71.0312 57.2344 66.4688C53.1406 61.8125 51.0938 56 51.0938 49.0312C51.0938 42.1875 53.1406 36.4844 57.2344 31.9219C61.3281 27.3594 66.4531 25.0781 72.6094 25.0781C77.9219 25.0781 82.6875 27.2656 86.9062 31.6406V26.3438ZM61.875 49.0312C61.875 53.4062 63.0469 56.9688 65.3906 59.7188C67.7969 62.5 70.8281 63.8906 74.4844 63.8906C78.3906 63.8906 81.5469 62.5469 83.9531 59.8594C86.3594 57.0781 87.5625 53.5469 87.5625 49.2656C87.5625 44.9844 86.3594 41.4531 83.9531 38.6719C81.5469 35.9531 78.4219 34.5938 74.5781 34.5938C70.9531 34.5938 67.9219 35.9688 65.4844 38.7188C63.0781 41.5 61.875 44.9375 61.875 49.0312Z" fill="black"/>
<path d="M110.812 26.3438H121.359V30.4219C123.297 28.3906 125.016 27 126.516 26.25C128.047 25.4688 129.859 25.0781 131.953 25.0781C134.734 25.0781 137.641 25.9844 140.672 27.7969L135.844 37.4531C133.844 36.0156 131.891 35.2969 129.984 35.2969C124.234 35.2969 121.359 39.6406 121.359 48.3281V72H110.812V26.3438Z" fill="black"/>
<path d="M158.766 26.3438V72H148.219V26.3438H158.766ZM146.625 7.35938C146.625 5.51562 147.297 3.92188 148.641 2.57812C149.984 1.23438 151.594 0.5625 153.469 0.5625C155.375 0.5625 157 1.23438 158.344 2.57812C159.688 3.89062 160.359 5.5 160.359 7.40625C160.359 9.3125 159.688 10.9375 158.344 12.2812C157.031 13.625 155.422 14.2969 153.516 14.2969C151.609 14.2969 149.984 13.625 148.641 12.2812C147.297 10.9375 146.625 9.29688 146.625 7.35938Z" fill="black"/>
<path d="M205.781 26.3438H216.375V72H205.781V67.2188C201.438 71.2812 196.766 73.3125 191.766 73.3125C185.453 73.3125 180.234 71.0312 176.109 66.4688C172.016 61.8125 169.969 56 169.969 49.0312C169.969 42.1875 172.016 36.4844 176.109 31.9219C180.203 27.3594 185.328 25.0781 191.484 25.0781C196.797 25.0781 201.562 27.2656 205.781 31.6406V26.3438ZM180.75 49.0312C180.75 53.4062 181.922 56.9688 184.266 59.7188C186.672 62.5 189.703 63.8906 193.359 63.8906C197.266 63.8906 200.422 62.5469 202.828 59.8594C205.234 57.0781 206.438 53.5469 206.438 49.2656C206.438 44.9844 205.234 41.4531 202.828 38.6719C200.422 35.9531 197.297 34.5938 193.453 34.5938C189.828 34.5938 186.797 35.9688 184.359 38.7188C181.953 41.5 180.75 44.9375 180.75 49.0312Z" fill="black"/>
<path d="M229.688 26.3438H240.281V30.5625C243.969 26.9062 248.125 25.0781 252.75 25.0781C258.062 25.0781 262.203 26.75 265.172 30.0938C267.734 32.9375 269.016 37.5781 269.016 44.0156V72H258.422V46.5C258.422 42 257.797 38.8906 256.547 37.1719C255.328 35.4219 253.109 34.5469 249.891 34.5469C246.391 34.5469 243.906 35.7031 242.438 38.0156C241 40.2969 240.281 44.2812 240.281 49.9688V72H229.688V26.3438Z" fill="black"/>
<path d="M293.25 36.1875V72H282.703V36.1875H278.203V26.3438H282.703V9.60938H293.25V26.3438H301.453V36.1875H293.25Z" fill="black"/>
</svg>
